<svg xmlns="http://www.w3.org/2000/svg" width="1120" height="560" viewBox="0 0 1120 560">
  <rect width="100%" height="100%" fill="#fbfaf7"/>
  <style>
    text { font-family: Arial, Helvetica, sans-serif; fill: #1d252c; }
    .title { font-size: 22px; font-weight: 700; }
    .label { font-size: 14px; }
    .small { font-size: 11px; fill: #52606d; }
    .axis { stroke: #9aa5b1; stroke-width: 1; }
  </style>
<text class="title" x="70" y="38">RQ4 AI minus human effect sizes</text>
<line class="axis" x1="70" y1="285" x2="1070" y2="285"/>
<text class="small" x="70" y="60">Bars show Cohen&apos;s d. Negative = lower in AI; positive = higher in AI.</text>
<rect x="70" y="163.6" width="62" height="121.4" fill="#7a4fb3"/>
<text class="small" x="66" y="155.6">1.10</text>
<text class="small" transform="translate(76 500) rotate(35)">variance</text>
<rect x="195" y="134.1" width="62" height="150.9" fill="#7a4fb3"/>
<text class="small" x="191" y="126.1">1.36</text>
<text class="small" transform="translate(201 500) rotate(35)">peak rate</text>
<rect x="320" y="95.0" width="62" height="190.0" fill="#7a4fb3"/>
<text class="small" x="316" y="87.0">1.72</text>
<text class="small" transform="translate(326 500) rotate(35)">peak mass</text>
<rect x="445" y="203.7" width="62" height="81.3" fill="#7a4fb3"/>
<text class="small" x="441" y="195.7">0.74</text>
<text class="small" transform="translate(451 500) rotate(35)">mean abs diff</text>
<rect x="570" y="285.0" width="62" height="64.3" fill="#b84a4a"/>
<text class="small" x="566" y="277.0">-0.58</text>
<text class="small" transform="translate(576 500) rotate(35)">smoothness</text>
<rect x="695" y="257.7" width="62" height="27.3" fill="#7a4fb3"/>
<text class="small" x="691" y="249.7">0.25</text>
<text class="small" transform="translate(701 500) rotate(35)">lag1 autocorr</text>
<rect x="820" y="214.6" width="62" height="70.4" fill="#7a4fb3"/>
<text class="small" x="816" y="206.6">0.64</text>
<text class="small" transform="translate(826 500) rotate(35)">max autocorr lag2 16</text>
<rect x="945" y="285.0" width="62" height="150.4" fill="#b84a4a"/>
<text class="small" x="941" y="277.0">-1.36</text>
<text class="small" transform="translate(951 500) rotate(35)">surprisal entropy</text>
</svg>
