<svg xmlns="http://www.w3.org/2000/svg" width="980" height="456" viewBox="0 0 980 456">
  <rect width="100%" height="100%" fill="#fbfaf7"/>
  <style>
    text { font-family: Arial, Helvetica, sans-serif; fill: #1d252c; }
    .title { font-size: 21px; font-weight: 700; }
    .label { font-size: 13px; }
    .small { font-size: 11px; fill: #52606d; }
    .axis { stroke: #9aa5b1; stroke-width: 1; }
  </style>
<text class="title" x="70" y="38">jsb_vs_js_fake: sequence-dependency effects</text>
<line class="axis" x1="270" y1="406" x2="900" y2="406"/>
<line class="axis" x1="585.0" y1="70" x2="585.0" y2="406"/>
<text class="small" x="270" y="438">human higher</text>
<text class="small" x="840" y="438">AI higher</text>
<text class="small" x="30" y="98.0">state_entropy</text>
<rect x="366.5" y="84.0" width="218.5" height="20" fill="#2f6f9f" rx="2"/>
<text class="small" x="322.5" y="98.0">-1.95</text>
<text class="small" x="30" y="146.0">entropy_rate_order1</text>
<rect x="458.4" y="132.0" width="126.6" height="20" fill="#2f6f9f" rx="2"/>
<text class="small" x="414.4" y="146.0">-1.13</text>
<text class="small" x="30" y="194.0">entropy_rate_order2</text>
<rect x="585.0" y="180.0" width="174.6" height="20" fill="#b84a6b" rx="2"/>
<text class="small" x="767.6" y="194.0">1.56</text>
<text class="small" x="30" y="242.0">predictability_gain_order1</text>
<rect x="437.8" y="228.0" width="147.2" height="20" fill="#2f6f9f" rx="2"/>
<text class="small" x="393.8" y="242.0">-1.31</text>
<text class="small" x="30" y="290.0">predictability_gain_order2</text>
<rect x="311.1" y="276.0" width="273.9" height="20" fill="#2f6f9f" rx="2"/>
<text class="small" x="267.1" y="290.0">-2.45</text>
<text class="small" x="30" y="338.0">same_state_transition_rate</text>
<rect x="585.0" y="324.0" width="9.5" height="20" fill="#b84a6b" rx="2"/>
<text class="small" x="602.5" y="338.0">0.08</text>
<text class="small" x="30" y="386.0">dominant_transition_rate</text>
<rect x="585.0" y="372.0" width="149.3" height="20" fill="#b84a6b" rx="2"/>
<text class="small" x="742.3" y="386.0">1.33</text>
</svg>
