<svg xmlns="http://www.w3.org/2000/svg" width="980" height="540" viewBox="0 0 980 540">
  <rect width="100%" height="100%" fill="#fbfaf7"/>
  <style>
    text { font-family: Arial, Helvetica, sans-serif; fill: #1d252c; }
    .title { font-size: 21px; font-weight: 700; }
    .label { font-size: 13px; }
    .small { font-size: 11px; fill: #52606d; }
    .axis { stroke: #9aa5b1; stroke-width: 1; }
  </style>
<text class="title" x="70" y="38">jsb_vs_js_fake: raw normalized surprisal profile</text>
<line class="axis" x1="80" y1="460" x2="860" y2="460"/>
<line class="axis" x1="80" y1="70" x2="80" y2="460"/>
<text class="label" x="410" y="505">Normalized piece time</text>
<text class="label" transform="translate(24 330) rotate(-90)">Surprisal (bits)</text>
<polyline points="80.0,325.8 87.9,335.1 95.8,344.1 103.6,367.6 111.5,386.6 119.4,401.0 127.3,406.1 135.2,416.6 143.0,413.0 150.9,409.6 158.8,402.4 166.7,386.1 174.5,372.9 182.4,370.3 190.3,385.4 198.2,400.7 206.1,409.3 213.9,416.8 221.8,413.4 229.7,406.6 237.6,412.7 245.5,411.4 253.3,397.3 261.2,381.7 269.1,381.8 277.0,368.0 284.8,361.6 292.7,361.7 300.6,372.7 308.5,370.7 316.4,368.1 324.2,375.4 332.1,375.1 340.0,390.5 347.9,399.7 355.8,398.0 363.6,378.3 371.5,382.3 379.4,382.9 387.3,379.3 395.2,372.1 403.0,367.7 410.9,385.5 418.8,386.3 426.7,378.9 434.5,372.5 442.4,373.5 450.3,374.6 458.2,373.2 466.1,368.1 473.9,373.3 481.8,384.7 489.7,384.8 497.6,383.9 505.5,382.0 513.3,384.5 521.2,385.3 529.1,388.0 537.0,389.2 544.8,397.4 552.7,402.2 560.6,397.8 568.5,395.0 576.4,394.3 584.2,382.4 592.1,374.8 600.0,373.5 607.9,375.6 615.8,387.7 623.6,393.7 631.5,394.0 639.4,378.7 647.3,376.3 655.2,388.7 663.0,385.6 670.9,380.7 678.8,387.0 686.7,404.5 694.5,406.8 702.4,408.9 710.3,412.3 718.2,413.4 726.1,410.8 733.9,412.0 741.8,398.9 749.7,387.7 757.6,375.3 765.5,372.4 773.3,379.5 781.2,401.8 789.1,419.8 797.0,426.9 804.8,423.6 812.7,416.9 820.6,419.9 828.5,417.3 836.4,411.5 844.2,393.9 852.1,373.4 860.0,335.4" fill="none" stroke="#2f6f9f" stroke-width="4"/>
<polyline points="80.0,349.3 87.9,261.7 95.8,254.9 103.6,260.8 111.5,254.7 119.4,241.8 127.3,231.4 135.2,216.4 143.0,207.8 150.9,205.5 158.8,210.8 166.7,198.0 174.5,202.6 182.4,203.9 190.3,223.2 198.2,214.7 206.1,203.2 213.9,190.4 221.8,200.8 229.7,205.2 237.6,200.5 245.5,198.4 253.3,195.4 261.2,198.3 269.1,214.9 277.0,204.9 284.8,202.6 292.7,199.3 300.6,194.6 308.5,195.3 316.4,202.2 324.2,193.6 332.1,188.5 340.0,189.4 347.9,210.1 355.8,208.8 363.6,193.3 371.5,196.5 379.4,201.4 387.3,199.7 395.2,187.5 403.0,185.6 410.9,188.8 418.8,185.2 426.7,188.3 434.5,187.6 442.4,198.2 450.3,185.7 458.2,195.1 466.1,197.0 473.9,209.0 481.8,189.1 489.7,192.9 497.6,192.8 505.5,197.4 513.3,190.3 521.2,191.0 529.1,191.9 537.0,198.5 544.8,194.5 552.7,192.2 560.6,196.0 568.5,193.0 576.4,202.1 584.2,198.9 592.1,199.1 600.0,197.9 607.9,184.8 615.8,179.3 623.6,185.8 631.5,186.1 639.4,193.6 647.3,202.7 655.2,203.3 663.0,195.2 670.9,190.6 678.8,177.9 686.7,182.2 694.5,189.4 702.4,201.8 710.3,189.8 718.2,203.6 726.1,196.0 733.9,187.8 741.8,186.4 749.7,192.9 757.6,188.2 765.5,193.7 773.3,202.0 781.2,205.9 789.1,201.2 797.0,196.4 804.8,190.7 812.7,180.5 820.6,187.7 828.5,181.1 836.4,170.5 844.2,129.6 852.1,103.1 860.0,181.1" fill="none" stroke="#b84a6b" stroke-width="4"/>
<line x1="880" y1="100" x2="908" y2="100" stroke="#2f6f9f" stroke-width="4"/>
<text class="small" x="916" y="104">human</text>
<line x1="880" y1="124" x2="908" y2="124" stroke="#b84a6b" stroke-width="4"/>
<text class="small" x="916" y="128">AI</text>
</svg>
