<svg xmlns="http://www.w3.org/2000/svg" width="980" height="540" viewBox="0 0 980 540">
  <rect width="100%" height="100%" fill="#fbfaf7"/>
  <style>
    text { font-family: Arial, Helvetica, sans-serif; fill: #1d252c; }
    .title { font-size: 21px; font-weight: 700; }
    .label { font-size: 13px; }
    .small { font-size: 11px; fill: #52606d; }
    .axis { stroke: #9aa5b1; stroke-width: 1; }
  </style>
<text class="title" x="70" y="38">jsb_vs_js_fake: local volatility profile</text>
<line class="axis" x1="80" y1="460" x2="860" y2="460"/>
<line class="axis" x1="80" y1="70" x2="80" y2="460"/>
<text class="label" x="410" y="505">Normalized piece time</text>
<text class="label" transform="translate(24 330) rotate(-90)">Local variance</text>
<polyline points="80.0,426.8 87.9,421.4 95.8,413.4 103.6,408.1 111.5,406.3 119.4,403.0 127.3,399.7 135.2,398.5 143.0,397.3 150.9,395.0 158.8,393.7 166.7,392.5 174.5,389.2 182.4,384.9 190.3,380.8 198.2,379.6 206.1,379.6 213.9,378.5 221.8,377.8 229.7,377.5 237.6,376.4 245.5,375.3 253.3,374.6 261.2,375.5 269.1,377.4 277.0,380.2 284.8,380.7 292.7,382.7 300.6,382.7 308.5,380.6 316.4,373.8 324.2,370.9 332.1,369.1 340.0,367.8 347.9,366.5 355.8,364.8 363.6,362.8 371.5,360.1 379.4,354.0 387.3,352.3 395.2,354.3 403.0,353.8 410.9,352.7 418.8,354.3 426.7,356.6 434.5,356.1 442.4,357.1 450.3,357.4 458.2,358.4 466.1,359.6 473.9,362.0 481.8,362.7 489.7,364.9 497.6,366.9 505.5,369.2 513.3,369.9 521.2,371.7 529.1,375.2 537.0,377.4 544.8,379.3 552.7,381.7 560.6,385.1 568.5,386.2 576.4,386.8 584.2,389.2 592.1,392.1 600.0,393.4 607.9,394.8 615.8,395.9 623.6,395.3 631.5,395.3 639.4,394.9 647.3,394.8 655.2,395.4 663.0,393.7 670.9,392.1 678.8,393.7 686.7,393.0 694.5,391.6 702.4,390.5 710.3,390.7 718.2,391.8 726.1,392.8 733.9,393.6 741.8,393.4 749.7,392.2 757.6,391.8 765.5,391.6 773.3,391.2 781.2,391.7 789.1,391.1 797.0,389.4 804.8,389.5 812.7,392.0 820.6,394.9 828.5,397.4 836.4,401.1 844.2,403.5 852.1,405.4 860.0,407.8" fill="none" stroke="#2f6f9f" stroke-width="4"/>
<polyline points="80.0,227.2 87.9,216.7 95.8,213.6 103.6,209.2 111.5,201.9 119.4,194.4 127.3,188.5 135.2,183.0 143.0,175.5 150.9,170.4 158.8,165.3 166.7,156.8 174.5,148.9 182.4,141.5 190.3,136.4 198.2,131.9 206.1,128.0 213.9,122.3 221.8,118.3 229.7,117.1 237.6,112.4 245.5,110.3 253.3,111.3 261.2,113.3 269.1,112.9 277.0,112.0 284.8,109.9 292.7,107.7 300.6,106.2 308.5,103.9 316.4,103.2 324.2,104.6 332.1,104.8 340.0,106.8 347.9,110.5 355.8,113.0 363.6,116.7 371.5,116.2 379.4,118.0 387.3,120.4 395.2,122.2 403.0,122.0 410.9,121.8 418.8,120.4 426.7,121.2 434.5,120.7 442.4,124.3 450.3,122.9 458.2,123.9 466.1,124.1 473.9,121.6 481.8,121.2 489.7,121.4 497.6,121.9 505.5,120.9 513.3,121.5 521.2,118.5 529.1,119.5 537.0,120.5 544.8,120.2 552.7,119.3 560.6,120.3 568.5,121.9 576.4,123.9 584.2,124.3 592.1,123.7 600.0,122.0 607.9,121.4 615.8,121.5 623.6,122.3 631.5,121.3 639.4,122.7 647.3,123.5 655.2,124.3 663.0,123.9 670.9,121.7 678.8,120.7 686.7,117.7 694.5,117.4 702.4,114.2 710.3,113.1 718.2,113.1 726.1,113.4 733.9,113.6 741.8,114.9 749.7,116.0 757.6,117.6 765.5,118.0 773.3,115.4 781.2,113.3 789.1,114.5 797.0,115.4 804.8,114.5 812.7,112.7 820.6,111.5 828.5,113.4 836.4,118.9 844.2,123.0 852.1,125.5 860.0,133.1" fill="none" stroke="#b84a6b" stroke-width="4"/>
<line x1="880" y1="100" x2="908" y2="100" stroke="#2f6f9f" stroke-width="4"/>
<text class="small" x="916" y="104">human</text>
<line x1="880" y1="124" x2="908" y2="124" stroke="#b84a6b" stroke-width="4"/>
<text class="small" x="916" y="128">AI</text>
</svg>
