<svg xmlns="http://www.w3.org/2000/svg" width="920" height="500" viewBox="0 0 920 500">
  <rect width="100%" height="100%" fill="#fbfaf7"/>
  <style>
    text { font-family: Arial, Helvetica, sans-serif; fill: #1d252c; }
    .title { font-size: 21px; font-weight: 700; }
    .label { font-size: 13px; }
    .small { font-size: 11px; fill: #52606d; }
    .axis { stroke: #9aa5b1; stroke-width: 1; }
  </style>
<text class="title" x="70" y="38">jsb_vs_js_fake: AI minus human profile</text>
<line class="axis" x1="80" y1="420" x2="870" y2="420"/>
<line x1="80" y1="374.4" x2="870" y2="374.4" stroke="#777" stroke-dasharray="5 5"/>
<polyline points="80.0,399.1 88.0,297.5 96.0,280.8 103.9,262.4 111.9,236.0 119.9,207.4 127.9,191.2 135.9,164.4 143.8,159.2 151.8,160.3 159.8,173.4 167.8,177.0 175.8,195.8 183.7,199.8 191.7,204.3 199.7,179.3 207.7,158.2 215.7,136.9 223.6,151.3 231.6,163.1 239.6,151.8 247.6,151.0 255.6,162.6 263.5,182.0 271.5,199.3 279.5,203.4 287.5,207.6 295.5,204.1 303.4,187.6 311.4,190.4 319.4,200.4 327.4,183.6 335.4,178.7 343.3,163.5 351.3,175.5 359.3,175.9 367.3,180.4 375.3,179.6 383.2,184.0 391.2,186.0 399.2,180.8 407.2,183.3 415.2,168.1 423.1,163.4 431.1,174.4 439.1,180.5 447.1,190.5 455.1,176.3 463.0,187.6 471.0,195.0 479.0,202.0 487.0,169.2 494.9,173.1 502.9,173.9 510.9,180.7 518.9,170.8 526.9,170.5 534.8,168.7 542.8,174.4 550.8,161.6 558.8,154.0 566.8,162.7 574.7,162.6 582.7,172.8 590.7,181.9 598.7,190.1 606.7,190.2 614.6,174.2 622.6,155.8 630.6,156.4 638.6,156.3 646.6,180.3 654.5,192.3 662.5,179.9 670.5,174.7 678.5,175.0 686.5,155.0 694.4,141.2 702.4,146.4 710.4,157.2 718.4,141.0 726.4,154.3 734.3,149.1 742.3,139.3 750.3,151.4 758.3,170.1 766.3,178.1 774.2,186.9 782.2,188.1 790.2,168.9 798.2,145.1 806.2,132.7 814.1,130.1 822.1,126.5 830.1,130.8 838.1,126.6 846.1,121.6 854.0,97.2 862.0,90.9 870.0,212.5" fill="none" stroke="#7a4fb3" stroke-width="3"/>
<text class="label" x="360" y="465">Normalized piece time</text>
<text class="label" transform="translate(24 315) rotate(-90)">AI minus human</text>
</svg>
