<svg xmlns="http://www.w3.org/2000/svg" width="980" height="540" viewBox="0 0 980 540">
  <rect width="100%" height="100%" fill="#fbfaf7"/>
  <style>
    text { font-family: Arial, Helvetica, sans-serif; fill: #1d252c; }
    .title { font-size: 21px; font-weight: 700; }
    .label { font-size: 13px; }
    .small { font-size: 11px; fill: #52606d; }
    .axis { stroke: #9aa5b1; stroke-width: 1; }
  </style>
<text class="title" x="70" y="38">maestro_matched_excerpt_vs_music_transformer_sample500: raw normalized surprisal profile</text>
<line class="axis" x1="80" y1="460" x2="860" y2="460"/>
<line class="axis" x1="80" y1="70" x2="80" y2="460"/>
<text class="label" x="410" y="505">Normalized piece time</text>
<text class="label" transform="translate(24 330) rotate(-90)">Surprisal (bits)</text>
<polyline points="80.0,324.1 87.9,402.3 95.8,402.0 103.6,399.1 111.5,413.8 119.4,407.6 127.3,407.1 135.2,397.0 143.0,401.4 150.9,403.5 158.8,413.3 166.7,405.7 174.5,404.1 182.4,410.7 190.3,410.0 198.2,413.3 206.1,407.7 213.9,411.2 221.8,407.4 229.7,408.3 237.6,416.0 245.5,408.8 253.3,408.5 261.2,416.5 269.1,406.8 277.0,394.0 284.8,404.1 292.7,405.0 300.6,396.8 308.5,407.0 316.4,402.4 324.2,421.9 332.1,409.9 340.0,404.4 347.9,416.6 355.8,404.9 363.6,413.1 371.5,406.0 379.4,405.9 387.3,408.1 395.2,394.3 403.0,407.1 410.9,415.4 418.8,410.8 426.7,401.8 434.5,401.4 442.4,396.6 450.3,402.9 458.2,405.0 466.1,407.2 473.9,402.1 481.8,407.1 489.7,407.8 497.6,394.3 505.5,414.8 513.3,407.3 521.2,402.8 529.1,407.1 537.0,409.7 544.8,404.9 552.7,404.0 560.6,411.5 568.5,417.6 576.4,404.6 584.2,405.9 592.1,400.0 600.0,414.4 607.9,396.1 615.8,400.8 623.6,409.9 631.5,407.6 639.4,403.7 647.3,407.1 655.2,403.9 663.0,404.3 670.9,403.0 678.8,392.2 686.7,400.1 694.5,390.2 702.4,406.3 710.3,394.5 718.2,400.7 726.1,419.2 733.9,387.3 741.8,405.3 749.7,411.4 757.6,407.1 765.5,401.9 773.3,411.4 781.2,402.9 789.1,396.9 797.0,405.0 804.8,401.6 812.7,409.3 820.6,399.3 828.5,403.2 836.4,412.3 844.2,394.9 852.1,401.2 860.0,404.3" fill="none" stroke="#2f6f9f" stroke-width="4"/>
<polyline points="80.0,258.8 87.9,303.9 95.8,307.7 103.6,318.2 111.5,310.3 119.4,307.1 127.3,307.0 135.2,307.4 143.0,306.7 150.9,309.3 158.8,303.0 166.7,307.3 174.5,303.0 182.4,301.8 190.3,315.6 198.2,307.5 206.1,315.3 213.9,300.8 221.8,297.1 229.7,316.4 237.6,313.1 245.5,304.3 253.3,313.3 261.2,301.9 269.1,307.1 277.0,301.2 284.8,304.9 292.7,310.9 300.6,318.1 308.5,306.6 316.4,303.5 324.2,303.1 332.1,301.8 340.0,314.1 347.9,300.5 355.8,294.8 363.6,311.9 371.5,308.5 379.4,307.1 387.3,293.6 395.2,303.1 403.0,307.0 410.9,314.9 418.8,299.6 426.7,298.1 434.5,307.5 442.4,303.5 450.3,302.1 458.2,312.3 466.1,311.8 473.9,304.8 481.8,308.2 489.7,309.7 497.6,305.9 505.5,303.6 513.3,306.2 521.2,322.1 529.1,302.2 537.0,308.7 544.8,297.0 552.7,300.8 560.6,304.2 568.5,297.2 576.4,303.2 584.2,296.7 592.1,299.4 600.0,300.7 607.9,301.6 615.8,295.1 623.6,301.5 631.5,298.8 639.4,293.3 647.3,295.0 655.2,309.5 663.0,304.5 670.9,296.7 678.8,293.6 686.7,298.7 694.5,292.0 702.4,304.3 710.3,307.9 718.2,303.0 726.1,291.6 733.9,292.4 741.8,304.8 749.7,288.8 757.6,290.4 765.5,295.5 773.3,292.8 781.2,299.2 789.1,288.5 797.0,287.0 804.8,283.3 812.7,282.6 820.6,273.4 828.5,270.8 836.4,270.2 844.2,247.6 852.1,199.1 860.0,108.1" fill="none" stroke="#b84a6b" stroke-width="4"/>
<line x1="880" y1="100" x2="908" y2="100" stroke="#2f6f9f" stroke-width="4"/>
<text class="small" x="916" y="104">human</text>
<line x1="880" y1="124" x2="908" y2="124" stroke="#b84a6b" stroke-width="4"/>
<text class="small" x="916" y="128">AI</text>
</svg>
