<svg xmlns="http://www.w3.org/2000/svg" width="920" height="500" viewBox="0 0 920 500">
  <rect width="100%" height="100%" fill="#fbfaf7"/>
  <style>
    text { font-family: Arial, Helvetica, sans-serif; fill: #1d252c; }
    .title { font-size: 21px; font-weight: 700; }
    .label { font-size: 13px; }
    .small { font-size: 11px; fill: #52606d; }
    .axis { stroke: #9aa5b1; stroke-width: 1; }
  </style>
<text class="title" x="70" y="38">maestro_matched_excerpt_vs_music_transformer_sample500: AI minus human profile</text>
<line class="axis" x1="80" y1="420" x2="870" y2="420"/>
<line x1="80" y1="420.0" x2="870" y2="420.0" stroke="#777" stroke-dasharray="5 5"/>
<polyline points="80.0,348.4 88.0,312.1 96.0,316.5 103.9,331.3 111.9,306.4 119.9,309.8 127.9,310.2 135.9,321.7 143.8,316.2 151.8,316.6 159.8,299.0 167.8,312.2 175.8,309.2 183.7,300.6 191.7,316.4 199.7,304.0 207.7,318.6 215.7,299.0 223.6,299.0 231.6,319.2 239.6,307.1 247.6,305.3 255.6,315.6 263.5,294.3 271.5,310.7 279.5,318.2 287.5,311.2 295.5,316.8 303.4,333.7 311.4,309.9 319.4,311.5 327.4,289.7 335.4,301.4 343.3,320.9 351.3,292.6 359.3,299.2 367.3,309.0 375.3,313.1 383.2,311.7 391.2,294.3 399.2,320.0 407.2,310.2 415.2,309.8 423.1,298.1 431.1,306.3 439.1,317.1 447.1,318.0 455.1,309.4 463.0,318.3 471.0,315.3 479.0,313.2 487.0,311.5 494.9,312.4 502.9,323.1 510.9,298.0 518.9,309.1 526.9,331.5 534.8,305.0 542.8,309.2 550.8,301.7 558.8,306.8 566.8,302.3 574.7,287.9 582.7,308.7 590.7,300.2 598.7,309.8 606.7,295.2 614.6,316.4 622.6,304.1 630.6,301.2 638.6,300.6 646.6,299.0 654.5,297.0 662.5,316.4 670.5,310.4 678.5,303.4 686.5,311.8 694.4,308.8 702.4,312.3 710.4,308.1 718.4,325.0 726.4,312.8 734.3,280.0 742.3,315.9 750.3,309.8 758.3,285.5 766.3,292.0 774.2,303.2 782.2,289.8 790.2,306.2 798.2,301.1 806.2,290.6 814.1,290.3 822.1,281.0 830.1,281.9 838.1,274.8 846.1,264.1 854.0,258.5 862.0,198.3 870.0,95.1" fill="none" stroke="#7a4fb3" stroke-width="3"/>
<text class="label" x="360" y="465">Normalized piece time</text>
<text class="label" transform="translate(24 315) rotate(-90)">AI minus human</text>
</svg>
