<svg xmlns="http://www.w3.org/2000/svg" width="980" height="540" viewBox="0 0 980 540">
  <rect width="100%" height="100%" fill="#fbfaf7"/>
  <style>
    text { font-family: Arial, Helvetica, sans-serif; fill: #1d252c; }
    .title { font-size: 21px; font-weight: 700; }
    .label { font-size: 13px; }
    .small { font-size: 11px; fill: #52606d; }
    .axis { stroke: #9aa5b1; stroke-width: 1; }
  </style>
<text class="title" x="70" y="38">maestro_matched_excerpt_vs_music_transformer_sample500: local volatility profile</text>
<line class="axis" x1="80" y1="460" x2="860" y2="460"/>
<line class="axis" x1="80" y1="70" x2="80" y2="460"/>
<text class="label" x="410" y="505">Normalized piece time</text>
<text class="label" transform="translate(24 330) rotate(-90)">Local variance</text>
<polyline points="80.0,321.9 87.9,316.1 95.8,319.7 103.6,317.0 111.5,333.3 119.4,338.9 127.3,335.1 135.2,336.0 143.0,327.7 150.9,323.1 158.8,327.1 166.7,329.6 174.5,327.3 182.4,327.8 190.3,329.9 198.2,326.8 206.1,324.0 213.9,327.5 221.8,324.9 229.7,324.3 237.6,322.5 245.5,325.8 253.3,329.4 261.2,333.4 269.1,336.0 277.0,337.9 284.8,336.2 292.7,333.9 300.6,336.4 308.5,339.8 316.4,338.3 324.2,329.2 332.1,326.0 340.0,329.3 347.9,332.4 355.8,325.8 363.6,325.4 371.5,329.3 379.4,322.7 387.3,325.5 395.2,329.6 403.0,331.1 410.9,327.3 418.8,322.7 426.7,327.3 434.5,329.7 442.4,332.8 450.3,332.3 458.2,319.7 466.1,320.9 473.9,326.5 481.8,327.2 489.7,328.7 497.6,333.3 505.5,329.7 513.3,324.6 521.2,325.2 529.1,326.3 537.0,326.3 544.8,321.5 552.7,325.2 560.6,329.3 568.5,332.6 576.4,335.7 584.2,330.4 592.1,332.4 600.0,335.0 607.9,331.7 615.8,327.7 623.6,328.4 631.5,322.6 639.4,330.6 647.3,327.4 655.2,326.6 663.0,330.6 670.9,338.1 678.8,339.0 686.7,331.3 694.5,337.2 702.4,337.8 710.3,339.6 718.2,338.6 726.1,336.7 733.9,333.4 741.8,333.9 749.7,334.1 757.6,336.4 765.5,337.1 773.3,328.1 781.2,330.2 789.1,337.2 797.0,333.7 804.8,326.8 812.7,329.4 820.6,328.6 828.5,329.2 836.4,329.7 844.2,327.0 852.1,329.8 860.0,348.0" fill="none" stroke="#2f6f9f" stroke-width="4"/>
<polyline points="80.0,421.4 87.9,417.4 95.8,418.8 103.6,425.4 111.5,426.8 119.4,432.3 127.3,430.6 135.2,431.6 143.0,430.4 150.9,428.9 158.8,428.9 166.7,430.6 174.5,432.1 182.4,431.8 190.3,427.3 198.2,429.0 206.1,432.2 213.9,429.2 221.8,430.5 229.7,426.5 237.6,428.1 245.5,421.1 253.3,415.4 261.2,418.7 269.1,421.6 277.0,419.7 284.8,415.0 292.7,415.3 300.6,412.4 308.5,412.7 316.4,414.3 324.2,416.1 332.1,420.5 340.0,421.7 347.9,414.4 355.8,413.3 363.6,409.2 371.5,410.9 379.4,411.6 387.3,413.5 395.2,414.9 403.0,408.3 410.9,413.7 418.8,416.3 426.7,411.8 434.5,411.5 442.4,411.3 450.3,409.4 458.2,403.4 466.1,403.4 473.9,410.9 481.8,416.4 489.7,419.7 497.6,414.9 505.5,415.1 513.3,417.6 521.2,414.9 529.1,406.8 537.0,399.6 544.8,409.3 552.7,409.1 560.6,402.1 568.5,392.7 576.4,388.3 584.2,389.7 592.1,395.4 600.0,392.5 607.9,394.6 615.8,397.2 623.6,397.9 631.5,394.2 639.4,393.1 647.3,385.7 655.2,380.6 663.0,387.2 670.9,385.4 678.8,396.7 686.7,401.3 694.5,398.0 702.4,392.8 710.3,398.8 718.2,391.2 726.1,388.5 733.9,387.2 741.8,380.8 749.7,375.3 757.6,368.4 765.5,366.4 773.3,362.8 781.2,372.3 789.1,372.1 797.0,366.8 804.8,357.2 812.7,349.2 820.6,332.4 828.5,320.5 836.4,280.4 844.2,197.6 852.1,106.8 860.0,97.7" fill="none" stroke="#b84a6b" stroke-width="4"/>
<line x1="880" y1="100" x2="908" y2="100" stroke="#2f6f9f" stroke-width="4"/>
<text class="small" x="916" y="104">human</text>
<line x1="880" y1="124" x2="908" y2="124" stroke="#b84a6b" stroke-width="4"/>
<text class="small" x="916" y="128">AI</text>
</svg>
