<svg xmlns="http://www.w3.org/2000/svg" width="980" height="360" viewBox="0 0 980 360">
  <rect width="100%" height="100%" fill="#fbfaf7"/>
  <style>
    text { font-family: Arial, Helvetica, sans-serif; fill: #1d252c; }
    .title { font-size: 21px; font-weight: 700; }
    .label { font-size: 13px; }
    .small { font-size: 11px; fill: #52606d; }
    .axis { stroke: #9aa5b1; stroke-width: 1; }
  </style>
<text class="title" x="70" y="38">jsb_vs_js_fake: special-position alignment effects</text>
<line class="axis" x1="300" y1="300" x2="900" y2="300"/>
<line class="axis" x1="600.0" y1="65" x2="600.0" y2="300"/>
<text class="label" x="490" y="340">Cohen's d (AI minus human)</text>
<text class="small" x="28" y="92.5">boundary_zone_surprisal_lift</text>
<rect x="600.0" y="78.5" width="131.8" height="20" fill="#b84a6b" rx="2"/>
<text class="small" x="739.8" y="92.5">0.41</text>
<text class="small" x="28" y="139.5">high_event_boundary_enrichment</text>
<rect x="600.0" y="125.5" width="58.2" height="20" fill="#b84a6b" rx="2"/>
<text class="small" x="666.2" y="139.5">0.18</text>
<text class="small" x="28" y="186.5">peak_boundary_enrichment</text>
<rect x="600.0" y="172.5" width="71.8" height="20" fill="#b84a6b" rx="2"/>
<text class="small" x="679.8" y="186.5">0.22</text>
<text class="small" x="28" y="233.5">changepoint_boundary_enrichment</text>
<rect x="600.0" y="219.5" width="255.6" height="20" fill="#b84a6b" rx="2"/>
<text class="small" x="863.6" y="233.5">0.79</text>
<text class="small" x="28" y="280.5">closing_minus_opening_surprisal</text>
<rect x="600.0" y="266.5" width="260.9" height="20" fill="#b84a6b" rx="2"/>
<text class="small" x="868.9" y="280.5">0.80</text>
</svg>
