<svg xmlns="http://www.w3.org/2000/svg" width="920" height="500" viewBox="0 0 920 500">
  <rect width="100%" height="100%" fill="#fbfaf7"/>
  <style>
    text { font-family: Arial, Helvetica, sans-serif; fill: #1d252c; }
    .title { font-size: 21px; font-weight: 700; }
    .label { font-size: 13px; }
    .small { font-size: 11px; fill: #52606d; }
    .axis { stroke: #9aa5b1; stroke-width: 1; }
  </style>
<text class="title" x="70" y="38">RQ1 jazz minus classical mean profile</text>
<line class="axis" x1="80" y1="420" x2="870" y2="420"/>
<line class="axis" x1="80" y1="70" x2="80" y2="420"/>
<line x1="80" y1="334.9" x2="870" y2="334.9" stroke="#777" stroke-dasharray="5 5"/>
<text class="label" x="350" y="465">Normalized piece time</text>
<text class="label" transform="translate(24 315) rotate(-90)">jtc minus dcml</text>
<polyline points="80.0,331.9 88.0,285.9 96.0,283.0 103.9,241.4 111.9,235.4 119.9,222.2 127.9,307.7 135.9,295.7 143.8,258.5 151.8,221.4 159.8,268.7 167.8,258.1 175.8,272.7 183.7,293.0 191.7,322.1 199.7,270.4 207.7,209.8 215.7,308.1 223.6,268.5 231.6,257.6 239.6,263.1 247.6,253.3 255.6,232.8 263.5,258.4 271.5,250.7 279.5,185.8 287.5,281.4 295.5,233.7 303.4,267.5 311.4,303.2 319.4,193.4 327.4,264.1 335.4,234.3 343.3,197.4 351.3,119.0 359.3,282.2 367.3,285.9 375.3,252.9 383.2,319.8 391.2,312.8 399.2,270.8 407.2,306.2 415.2,304.4 423.1,277.6 431.1,191.1 439.1,133.5 447.1,228.7 455.1,313.8 463.0,311.8 471.0,178.3 479.0,333.1 487.0,241.6 494.9,283.6 502.9,170.7 510.9,378.7 518.9,262.5 526.9,266.8 534.8,243.1 542.8,265.4 550.8,265.8 558.8,229.0 566.8,272.0 574.7,340.5 582.7,194.0 590.7,224.3 598.7,181.2 606.7,200.0 614.6,251.7 622.6,289.9 630.6,223.8 638.6,250.3 646.6,212.8 654.5,253.1 662.5,184.7 670.5,197.8 678.5,117.2 686.5,287.4 694.4,358.1 702.4,236.6 710.4,271.7 718.4,272.7 726.4,302.6 734.3,231.7 742.3,212.6 750.3,268.8 758.3,215.9 766.3,290.6 774.2,111.3 782.2,213.0 790.2,214.1 798.2,260.0 806.2,156.8 814.1,135.9 822.1,256.6 830.1,202.9 838.1,339.1 846.1,273.4 854.0,254.2 862.0,288.3 870.0,272.4" fill="none" stroke="#7a4fb3" stroke-width="3"/>
</svg>
