<svg xmlns="http://www.w3.org/2000/svg" width="980" height="540" viewBox="0 0 980 540">
  <rect width="100%" height="100%" fill="#fbfaf7"/>
  <style>
    text { font-family: Arial, Helvetica, sans-serif; fill: #1d252c; }
    .title { font-size: 21px; font-weight: 700; }
    .label { font-size: 13px; }
    .small { font-size: 11px; fill: #52606d; }
    .axis { stroke: #9aa5b1; stroke-width: 1; }
  </style>
<text class="title" x="70" y="38">RQ1 normalized mean surprisal profile</text>
<line class="axis" x1="80" y1="460" x2="860" y2="460"/>
<line class="axis" x1="80" y1="70" x2="80" y2="460"/>
<text class="label" x="380" y="505">Normalized piece time</text>
<text class="label" transform="translate(24 330) rotate(-90)">Surprisal (bits)</text>
<polyline points="80.0,229.2 87.9,302.8 95.8,303.9 103.6,347.7 111.5,338.6 119.4,326.9 127.3,348.5 135.2,300.6 143.0,310.5 150.9,340.0 158.8,335.1 166.7,351.2 174.5,352.0 182.4,306.1 190.3,293.8 198.2,321.6 206.1,320.6 213.9,293.3 221.8,311.9 229.7,348.3 237.6,336.7 245.5,340.3 253.3,339.3 261.2,331.8 269.1,348.5 277.0,350.6 284.8,328.5 292.7,364.2 300.6,340.9 308.5,336.1 316.4,358.7 324.2,294.0 332.1,331.8 340.0,336.0 347.9,361.3 355.8,346.3 363.6,336.1 371.5,337.4 379.4,348.1 387.3,318.8 395.2,326.4 403.0,337.0 410.9,333.0 418.8,365.5 426.7,347.8 434.5,378.9 442.4,338.3 450.3,336.3 458.2,346.1 466.1,361.0 473.9,309.5 481.8,334.9 489.7,292.5 497.6,365.7 505.5,309.0 513.3,329.6 521.2,333.6 529.1,350.6 537.0,341.3 544.8,341.7 552.7,325.7 560.6,353.8 568.5,359.0 576.4,382.3 584.2,340.5 592.1,340.1 600.0,343.4 607.9,320.6 615.8,336.1 623.6,346.9 631.5,305.5 639.4,332.8 647.3,366.4 655.2,355.8 663.0,372.4 670.9,402.0 678.8,332.9 686.7,311.9 694.5,320.9 702.4,323.4 710.3,354.8 718.2,325.2 726.1,339.8 733.9,334.6 741.8,302.9 749.7,375.8 757.6,352.5 765.5,388.5 773.3,341.2 781.2,346.0 789.1,359.6 797.0,392.3 804.8,359.5 812.7,356.4 820.6,379.1 828.5,321.2 836.4,321.9 844.2,321.0 852.1,292.4 860.0,180.7" fill="none" stroke="#2f6f9f" stroke-width="4"/>
<polyline points="80.0,226.7 87.9,261.6 95.8,260.2 103.6,269.0 111.5,254.9 119.4,232.0 127.3,325.6 135.2,267.7 143.0,246.2 150.9,244.5 158.8,279.3 166.7,286.6 174.5,299.7 182.4,270.8 190.3,283.0 198.2,267.3 206.1,215.3 213.9,270.7 221.8,256.0 229.7,283.2 237.6,276.2 245.5,271.6 253.3,253.3 261.2,267.4 269.1,277.7 277.0,225.0 284.8,283.5 292.7,279.0 300.6,284.2 308.5,309.5 316.4,239.6 324.2,234.4 332.1,247.1 340.0,220.3 347.9,179.5 355.8,302.0 363.6,294.8 371.5,268.4 379.4,335.4 387.3,300.2 395.2,272.5 403.0,312.8 410.9,307.4 418.8,317.3 426.7,226.7 434.5,209.3 442.4,248.9 450.3,318.6 458.2,326.7 466.1,229.2 473.9,308.0 481.8,256.4 489.7,249.4 497.6,227.5 505.5,345.9 513.3,268.7 521.2,276.3 529.1,273.3 537.0,282.8 544.8,283.6 552.7,236.5 560.6,300.9 568.5,363.7 576.4,263.6 584.2,247.4 592.1,210.7 600.0,229.7 607.9,250.6 615.8,298.3 623.6,253.4 631.5,234.3 639.4,230.1 647.3,297.5 655.2,229.4 663.0,256.9 670.9,218.6 678.8,292.9 686.7,331.5 694.5,238.1 702.4,270.2 710.3,302.5 718.2,298.0 726.1,252.9 733.9,231.6 741.8,247.3 749.7,275.6 757.6,315.3 765.5,200.3 773.3,238.6 781.2,244.3 789.1,296.6 797.0,242.4 804.8,191.9 812.7,290.5 820.6,268.0 828.5,324.8 836.4,270.1 844.2,253.1 852.1,253.2 860.0,128.0" fill="none" stroke="#c46a32" stroke-width="4"/>
<line x1="880" y1="100" x2="908" y2="100" stroke="#2f6f9f" stroke-width="4"/>
<text class="small" x="916" y="104">DCML classical</text>
<line x1="880" y1="126" x2="908" y2="126" stroke="#c46a32" stroke-width="4"/>
<text class="small" x="916" y="130">JTC jazz</text>
</svg>
