<svg xmlns="http://www.w3.org/2000/svg" width="980" height="540" viewBox="0 0 980 540">
  <rect width="100%" height="100%" fill="#fbfaf7"/>
  <style>
    text { font-family: Arial, Helvetica, sans-serif; fill: #1d252c; }
    .title { font-size: 21px; font-weight: 700; }
    .label { font-size: 13px; }
    .small { font-size: 11px; fill: #52606d; }
    .axis { stroke: #9aa5b1; stroke-width: 1; }
  </style>
<text class="title" x="70" y="38">RQ1 normalized local volatility profile</text>
<line class="axis" x1="80" y1="460" x2="860" y2="460"/>
<line class="axis" x1="80" y1="70" x2="80" y2="460"/>
<text class="label" x="380" y="505">Normalized piece time</text>
<text class="label" transform="translate(24 330) rotate(-90)">Local variance</text>
<polyline points="80.0,335.5 87.9,276.6 95.8,259.6 103.6,293.4 111.5,260.9 119.4,219.4 127.3,216.7 135.2,214.9 143.0,195.8 150.9,181.9 158.8,192.2 166.7,178.8 174.5,172.3 182.4,174.6 190.3,194.3 198.2,175.1 206.1,179.1 213.9,180.4 221.8,205.1 229.7,191.8 237.6,217.8 245.5,208.0 253.3,194.5 261.2,167.5 269.1,237.7 277.0,208.6 284.8,174.7 292.7,193.3 300.6,194.6 308.5,179.7 316.4,180.0 324.2,158.0 332.1,141.6 340.0,186.3 347.9,128.2 355.8,150.8 363.6,153.0 371.5,164.8 379.4,185.7 387.3,187.9 395.2,187.1 403.0,166.0 410.9,175.9 418.8,209.4 426.7,192.4 434.5,217.8 442.4,200.6 450.3,195.2 458.2,194.1 466.1,213.3 473.9,199.7 481.8,173.9 489.7,172.1 497.6,181.2 505.5,163.3 513.3,158.0 521.2,163.9 529.1,176.8 537.0,174.1 544.8,189.6 552.7,160.3 560.6,189.2 568.5,200.2 576.4,201.7 584.2,204.4 592.1,236.6 600.0,182.9 607.9,171.1 615.8,174.2 623.6,173.0 631.5,204.9 639.4,199.1 647.3,181.8 655.2,166.8 663.0,172.0 670.9,165.4 678.8,168.4 686.7,176.5 694.5,191.5 702.4,178.6 710.3,211.0 718.2,179.2 726.1,170.6 733.9,166.7 741.8,176.9 749.7,193.2 757.6,169.2 765.5,201.9 773.3,180.5 781.2,174.6 789.1,220.7 797.0,231.8 804.8,207.6 812.7,216.2 820.6,211.7 828.5,236.4 836.4,263.2 844.2,253.1 852.1,276.4 860.0,261.7" fill="none" stroke="#2f6f9f" stroke-width="4"/>
<polyline points="80.0,401.8 87.9,361.3 95.8,362.5 103.6,328.5 111.5,313.2 119.4,319.6 127.3,317.8 135.2,313.0 143.0,321.7 150.9,318.2 158.8,323.4 166.7,324.9 174.5,330.1 182.4,328.7 190.3,340.3 198.2,341.6 206.1,333.8 213.9,336.3 221.8,337.4 229.7,324.4 237.6,322.7 245.5,313.9 253.3,324.9 261.2,329.8 269.1,327.7 277.0,323.9 284.8,347.5 292.7,339.2 300.6,344.7 308.5,340.1 316.4,332.0 324.2,348.6 332.1,349.7 340.0,358.9 347.9,356.0 355.8,340.5 363.6,320.6 371.5,326.0 379.4,333.4 387.3,294.7 395.2,293.6 403.0,289.5 410.9,292.1 418.8,291.6 426.7,291.8 434.5,306.7 442.4,321.0 450.3,333.3 458.2,325.7 466.1,322.0 473.9,326.3 481.8,290.7 489.7,277.8 497.6,267.8 505.5,274.0 513.3,263.9 521.2,296.3 529.1,292.8 537.0,291.2 544.8,309.8 552.7,298.8 560.6,293.5 568.5,286.0 576.4,301.8 584.2,298.7 592.1,309.3 600.0,311.0 607.9,315.6 615.8,317.3 623.6,330.5 631.5,335.4 639.4,351.1 647.3,363.3 655.2,357.6 663.0,350.1 670.9,354.5 678.8,355.2 686.7,349.0 694.5,369.3 702.4,359.7 710.3,362.3 718.2,375.3 726.1,373.5 733.9,365.8 741.8,350.5 749.7,336.4 757.6,330.6 765.5,311.0 773.3,301.0 781.2,291.2 789.1,286.6 797.0,285.6 804.8,302.3 812.7,293.7 820.6,288.8 828.5,273.5 836.4,281.3 844.2,307.1 852.1,304.7 860.0,304.4" fill="none" stroke="#c46a32" stroke-width="4"/>
<line x1="880" y1="100" x2="908" y2="100" stroke="#2f6f9f" stroke-width="4"/>
<text class="small" x="916" y="104">DCML classical</text>
<line x1="880" y1="126" x2="908" y2="126" stroke="#c46a32" stroke-width="4"/>
<text class="small" x="916" y="130">JTC jazz</text>
</svg>
