<svg xmlns="http://www.w3.org/2000/svg" width="980" height="550" viewBox="0 0 980 550">
  <rect width="100%" height="100%" fill="#fbfaf7"/>
  <style>
    text { font-family: Arial, Helvetica, sans-serif; fill: #1d252c; }
    .title { font-size: 21px; font-weight: 700; }
    .label { font-size: 13px; }
    .small { font-size: 11px; fill: #52606d; }
    .axis { stroke: #9aa5b1; stroke-width: 1; }
  </style>
<text class="title" x="70" y="38">RQ2 boundary time-structure effects</text>
<line class="axis" x1="310" y1="490" x2="900" y2="490"/>
<line class="axis" x1="605.0" y1="65" x2="605.0" y2="490"/>
<text class="small" x="620" y="88">positive = JTC higher than DCML</text>
<text class="small" x="25" y="90.2">boundary_lift_vs_unigram</text>
<rect x="348.5" y="76.2" width="256.5" height="20" fill="#2f6f9f" rx="2"/>
<text class="small" x="304.5" y="90.2">-1.02</text>
<text class="small" x="25" y="132.8">boundary_lift_vs_shuffled</text>
<rect x="605.0" y="118.8" width="231.8" height="20" fill="#c46a32" rx="2"/>
<text class="small" x="844.8" y="132.8">0.92</text>
<text class="small" x="25" y="175.2">boundary_value</text>
<rect x="605.0" y="161.2" width="193.0" height="20" fill="#c46a32" rx="2"/>
<text class="small" x="806.0" y="175.2">0.77</text>
<text class="small" x="25" y="217.8">boundary_core_lift_vs_far</text>
<rect x="463.0" y="203.8" width="142.0" height="20" fill="#2f6f9f" rx="2"/>
<text class="small" x="419.0" y="217.8">-0.56</text>
<text class="small" x="25" y="260.2">changepoint_boundary_enrichment</text>
<rect x="495.0" y="246.2" width="110.0" height="20" fill="#2f6f9f" rx="2"/>
<text class="small" x="451.0" y="260.2">-0.44</text>
<text class="small" x="25" y="302.8">normalized_boundary_z</text>
<rect x="605.0" y="288.8" width="64.1" height="20" fill="#c46a32" rx="2"/>
<text class="small" x="677.1" y="302.8">0.25</text>
<text class="small" x="25" y="345.2">peak_relative_event</text>
<rect x="541.7" y="331.2" width="63.3" height="20" fill="#2f6f9f" rx="2"/>
<text class="small" x="497.7" y="345.2">-0.25</text>
<text class="small" x="25" y="387.8">boundary_curve_range</text>
<rect x="605.0" y="373.8" width="59.1" height="20" fill="#c46a32" rx="2"/>
<text class="small" x="672.1" y="387.8">0.24</text>
<text class="small" x="25" y="430.2">boundary_local_variance_lift_vs_far</text>
<rect x="551.4" y="416.2" width="53.6" height="20" fill="#2f6f9f" rx="2"/>
<text class="small" x="507.4" y="430.2">-0.21</text>
<text class="small" x="25" y="472.8">normalized_peak_z</text>
<rect x="569.8" y="458.8" width="35.2" height="20" fill="#2f6f9f" rx="2"/>
<text class="small" x="525.8" y="472.8">-0.14</text>
</svg>
