<svg xmlns="http://www.w3.org/2000/svg" width="980" height="540" viewBox="0 0 980 540">
  <rect width="100%" height="100%" fill="#fbfaf7"/>
  <style>
    text { font-family: Arial, Helvetica, sans-serif; fill: #1d252c; }
    .title { font-size: 21px; font-weight: 700; }
    .label { font-size: 13px; }
    .small { font-size: 11px; fill: #52606d; }
    .axis { stroke: #9aa5b1; stroke-width: 1; }
  </style>
<text class="title" x="70" y="38">RQ2 all piece boundary-aligned curves</text>
<line class="axis" x1="80" y1="460" x2="860" y2="460"/>
<line class="axis" x1="80" y1="70" x2="80" y2="460"/>
<line x1="470.0" y1="70" x2="470.0" y2="460" stroke="#333" stroke-width="1.4" stroke-dasharray="5 5"/>
<text class="label" x="380" y="505">Event position relative to boundary</text>
<text class="label" transform="translate(24 330) rotate(-90)">Surprisal (bits)</text>
<polyline points="80.0,308.0 112.5,268.9 145.0,283.0 177.5,286.7 210.0,288.7 242.5,297.5 275.0,224.5 307.5,323.2 340.0,312.9 372.5,305.8 405.0,322.4 437.5,280.2 470.0,290.6 502.5,270.7 535.0,299.8 567.5,302.6 600.0,306.8 632.5,290.6 665.0,365.6 697.5,347.5 730.0,321.1 762.5,284.6 795.0,285.0 827.5,304.5 860.0,335.0" fill="none" stroke="#2f6f9f" stroke-width="1" opacity="0.18"/>
<polyline points="80.0,246.5 112.5,308.3 145.0,253.7 177.5,311.0 210.0,299.2 242.5,319.4 275.0,287.1 307.5,275.2 340.0,254.9 372.5,277.1 405.0,254.2 437.5,276.5 470.0,259.4 502.5,275.6 535.0,269.9 567.5,327.2 600.0,291.5 632.5,288.2 665.0,322.0 697.5,309.2 730.0,310.8 762.5,327.7 795.0,342.6 827.5,306.1 860.0,325.6" fill="none" stroke="#2f6f9f" stroke-width="1" opacity="0.18"/>
<polyline points="80.0,316.0 112.5,317.9 145.0,294.8 177.5,328.2 210.0,320.0 242.5,305.8 275.0,307.6 307.5,330.1 340.0,332.0 372.5,313.8 405.0,289.3 437.5,297.1 470.0,300.1 502.5,278.6 535.0,305.8 567.5,304.4 600.0,313.9 632.5,301.9 665.0,295.5 697.5,311.9 730.0,323.0 762.5,299.2 795.0,302.4 827.5,296.1 860.0,296.9" fill="none" stroke="#2f6f9f" stroke-width="1" opacity="0.18"/>
<polyline points="80.0,343.5 112.5,377.2 145.0,345.6 177.5,375.3 210.0,338.4 242.5,347.0 275.0,338.5 307.5,405.9 340.0,364.9 372.5,381.1 405.0,372.1 437.5,371.5 470.0,304.4 502.5,322.5 535.0,319.3 567.5,364.0 600.0,363.7 632.5,395.2 665.0,361.2 697.5,388.1 730.0,305.7 762.5,341.5 795.0,300.2 827.5,369.6 860.0,332.2" fill="none" stroke="#2f6f9f" stroke-width="1" opacity="0.18"/>
<polyline points="80.0,333.8 112.5,339.9 145.0,336.4 177.5,362.9 210.0,366.0 242.5,403.9 275.0,350.1 307.5,387.5 340.0,344.0 372.5,327.8 405.0,336.7 437.5,353.2 470.0,320.6 502.5,319.1 535.0,309.6 567.5,347.0 600.0,346.8 632.5,391.8 665.0,339.9 697.5,358.2 730.0,338.2 762.5,351.5 795.0,317.8 827.5,364.0 860.0,368.2" fill="none" stroke="#2f6f9f" stroke-width="1" opacity="0.18"/>
<polyline points="80.0,333.3 112.5,332.7 145.0,371.8 177.5,370.4 210.0,345.7 242.5,364.0 275.0,325.2 307.5,346.4 340.0,339.5 372.5,327.5 405.0,337.5 437.5,369.4 470.0,304.1 502.5,325.7 535.0,364.0 567.5,387.7 600.0,380.7 632.5,390.3 665.0,366.5 697.5,380.9 730.0,356.0 762.5,365.8 795.0,366.2 827.5,383.1 860.0,302.6" fill="none" stroke="#2f6f9f" stroke-width="1" opacity="0.18"/>
<polyline points="80.0,323.0 112.5,336.6 145.0,350.2 177.5,329.6 210.0,291.2 242.5,336.1 275.0,353.7 307.5,344.9 340.0,351.3 372.5,324.5 405.0,342.6 437.5,353.5 470.0,302.8 502.5,282.2 535.0,312.2 567.5,372.6 600.0,334.3 632.5,315.6 665.0,334.0 697.5,334.8 730.0,321.2 762.5,340.6 795.0,311.6 827.5,310.3 860.0,338.2" fill="none" stroke="#2f6f9f" stroke-width="1" opacity="0.18"/>
<polyline points="80.0,305.3 112.5,349.8 145.0,361.7 177.5,315.7 210.0,325.3 242.5,305.0 275.0,307.4 307.5,325.1 340.0,301.0 372.5,304.3 405.0,311.8 437.5,319.6 470.0,288.8 502.5,302.9 535.0,338.2 567.5,385.6 600.0,357.0 632.5,362.5 665.0,366.6 697.5,344.7 730.0,370.1 762.5,353.2 795.0,365.5 827.5,360.1 860.0,348.9" fill="none" stroke="#2f6f9f" stroke-width="1" opacity="0.18"/>
<polyline points="80.0,257.5 112.5,306.6 145.0,333.2 177.5,316.9 210.0,322.6 242.5,283.7 275.0,256.4 307.5,256.3 340.0,260.9 372.5,347.2 405.0,391.4 437.5,391.4 470.0,261.7 502.5,280.6 535.0,219.0 567.5,227.8 600.0,209.5 632.5,249.2 665.0,226.9 697.5,260.6 730.0,274.4 762.5,414.3 795.0,331.2 827.5,252.9 860.0,340.2" fill="none" stroke="#2f6f9f" stroke-width="1" opacity="0.18"/>
<polyline points="80.0,344.1 112.5,343.7 145.0,315.8 177.5,342.5 210.0,338.3 242.5,337.7 275.0,321.5 307.5,347.1 340.0,331.9 372.5,333.2 405.0,325.0 437.5,350.1 470.0,296.7 502.5,267.7 535.0,313.3 567.5,328.2 600.0,321.6 632.5,331.6 665.0,310.7 697.5,318.0 730.0,303.9 762.5,321.2 795.0,321.7 827.5,326.2 860.0,336.6" fill="none" stroke="#2f6f9f" stroke-width="1" opacity="0.18"/>
<polyline points="80.0,272.7 112.5,281.3 145.0,309.3 177.5,316.6 210.0,292.4 242.5,296.1 275.0,289.9 307.5,307.8 340.0,294.6 372.5,299.9 405.0,326.5 437.5,337.1 470.0,253.6 502.5,278.7 535.0,312.9 567.5,347.6 600.0,316.5 632.5,350.0 665.0,327.1 697.5,330.5 730.0,344.4 762.5,321.6 795.0,298.7 827.5,321.3 860.0,302.8" fill="none" stroke="#2f6f9f" stroke-width="1" opacity="0.18"/>
<polyline points="80.0,302.0 112.5,289.0 145.0,320.6 177.5,343.1 210.0,290.6 242.5,303.2 275.0,298.3 307.5,325.8 340.0,272.3 372.5,289.4 405.0,296.1 437.5,298.6 470.0,288.0 502.5,291.3 535.0,320.5 567.5,286.4 600.0,304.9 632.5,317.7 665.0,296.1 697.5,304.6 730.0,293.0 762.5,335.3 795.0,302.1 827.5,278.6 860.0,313.6" fill="none" stroke="#2f6f9f" stroke-width="1" opacity="0.18"/>
<polyline points="80.0,352.2 112.5,373.2 145.0,371.2 177.5,344.7 210.0,333.0 242.5,342.4 275.0,355.4 307.5,344.1 340.0,307.0 372.5,328.2 405.0,364.7 437.5,352.4 470.0,305.6 502.5,270.6 535.0,329.5 567.5,387.9 600.0,379.6 632.5,315.2 665.0,382.7 697.5,392.8 730.0,365.4 762.5,361.9 795.0,372.5 827.5,396.5 860.0,383.3" fill="none" stroke="#2f6f9f" stroke-width="1" opacity="0.18"/>
<polyline points="80.0,337.8 112.5,329.9 145.0,337.4 177.5,333.3 210.0,322.5 242.5,309.0 275.0,338.9 307.5,358.9 340.0,357.5 372.5,284.3 405.0,290.8 437.5,329.7 470.0,321.0 502.5,280.3 535.0,312.3 567.5,340.6 600.0,340.5 632.5,362.6 665.0,335.3 697.5,315.8 730.0,309.1 762.5,339.6 795.0,329.6 827.5,305.6 860.0,321.1" fill="none" stroke="#2f6f9f" stroke-width="1" opacity="0.18"/>
<polyline points="80.0,277.7 112.5,295.3 145.0,304.3 177.5,315.5 210.0,279.0 242.5,293.8 275.0,315.4 307.5,305.8 340.0,285.6 372.5,305.5 405.0,285.6 437.5,290.4 470.0,274.8 502.5,272.5 535.0,273.1 567.5,336.3 600.0,320.7 632.5,307.7 665.0,327.1 697.5,317.0 730.0,298.8 762.5,335.4 795.0,283.1 827.5,326.4 860.0,346.0" fill="none" stroke="#2f6f9f" stroke-width="1" opacity="0.18"/>
<polyline points="80.0,285.6 112.5,304.8 145.0,304.6 177.5,338.1 210.0,299.0 242.5,283.4 275.0,305.6 307.5,317.6 340.0,332.8 372.5,325.7 405.0,327.6 437.5,332.5 470.0,295.5 502.5,288.9 535.0,294.7 567.5,318.9 600.0,321.7 632.5,342.2 665.0,332.2 697.5,320.2 730.0,299.7 762.5,330.1 795.0,337.3 827.5,354.9 860.0,334.2" fill="none" stroke="#2f6f9f" stroke-width="1" opacity="0.18"/>
<polyline points="80.0,324.6 112.5,287.2 145.0,271.5 177.5,241.1 210.0,298.1 242.5,274.4 275.0,242.9 307.5,286.4 340.0,261.1 372.5,270.6 405.0,265.9 437.5,254.0 470.0,246.1 502.5,289.1 535.0,298.6 567.5,332.5 600.0,361.4 632.5,277.7 665.0,310.2 697.5,313.0 730.0,347.4 762.5,289.2 795.0,268.3 827.5,263.9 860.0,274.1" fill="none" stroke="#2f6f9f" stroke-width="1" opacity="0.18"/>
<polyline points="80.0,329.9 112.5,327.0 145.0,334.3 177.5,331.1 210.0,335.5 242.5,344.9 275.0,295.5 307.5,317.6 340.0,340.9 372.5,359.9 405.0,345.0 437.5,329.5 470.0,270.6 502.5,266.0 535.0,341.5 567.5,357.9 600.0,327.1 632.5,351.1 665.0,304.7 697.5,319.1 730.0,359.1 762.5,366.1 795.0,328.9 827.5,344.2 860.0,318.4" fill="none" stroke="#2f6f9f" stroke-width="1" opacity="0.18"/>
<polyline points="80.0,276.7 112.5,277.1 145.0,264.5 177.5,317.1 210.0,304.1 242.5,277.6 275.0,289.1 307.5,333.1 340.0,280.0 372.5,278.7 405.0,270.1 437.5,310.3 470.0,307.5 502.5,244.7 535.0,252.9 567.5,303.1 600.0,289.5 632.5,272.5 665.0,285.6 697.5,282.9 730.0,272.5 762.5,261.0 795.0,268.2 827.5,310.8 860.0,266.0" fill="none" stroke="#2f6f9f" stroke-width="1" opacity="0.18"/>
<polyline points="80.0,292.9 112.5,283.5 145.0,282.2 177.5,275.9 210.0,266.7 242.5,293.2 275.0,309.7 307.5,282.9 340.0,308.6 372.5,286.5 405.0,286.6 437.5,281.9 470.0,281.4 502.5,265.2 535.0,290.6 567.5,275.3 600.0,277.8 632.5,312.4 665.0,310.2 697.5,313.2 730.0,291.4 762.5,278.8 795.0,291.2 827.5,303.5 860.0,315.5" fill="none" stroke="#2f6f9f" stroke-width="1" opacity="0.18"/>
<polyline points="80.0,307.1 112.5,296.3 145.0,327.0 177.5,319.3 210.0,332.0 242.5,323.8 275.0,321.4 307.5,318.0 340.0,312.8 372.5,310.2 405.0,325.0 437.5,316.2 470.0,326.8 502.5,287.0 535.0,295.5 567.5,286.5 600.0,287.2 632.5,301.5 665.0,316.7 697.5,314.0 730.0,313.6 762.5,306.1 795.0,303.8 827.5,308.1 860.0,303.5" fill="none" stroke="#2f6f9f" stroke-width="1" opacity="0.18"/>
<polyline points="80.0,320.7 112.5,322.2 145.0,315.1 177.5,361.9 210.0,331.8 242.5,328.4 275.0,331.6 307.5,329.1 340.0,305.6 372.5,307.3 405.0,333.3 437.5,349.6 470.0,268.1 502.5,282.3 535.0,302.7 567.5,345.3 600.0,269.0 632.5,339.2 665.0,327.6 697.5,340.5 730.0,295.3 762.5,336.0 795.0,339.2 827.5,382.0 860.0,307.9" fill="none" stroke="#2f6f9f" stroke-width="1" opacity="0.18"/>
<polyline points="80.0,347.6 112.5,334.1 145.0,320.8 177.5,354.4 210.0,331.9 242.5,343.2 275.0,310.0 307.5,315.1 340.0,334.7 372.5,357.0 405.0,345.6 437.5,340.6 470.0,304.4 502.5,292.8 535.0,292.9 567.5,306.7 600.0,312.9 632.5,336.0 665.0,310.7 697.5,310.1 730.0,301.1 762.5,323.8 795.0,344.4 827.5,324.0 860.0,321.3" fill="none" stroke="#2f6f9f" stroke-width="1" opacity="0.18"/>
<polyline points="80.0,293.0 112.5,287.1 145.0,289.8 177.5,290.8 210.0,310.5 242.5,299.3 275.0,289.6 307.5,313.2 340.0,311.5 372.5,304.0 405.0,313.6 437.5,322.3 470.0,261.5 502.5,297.5 535.0,291.6 567.5,293.9 600.0,298.5 632.5,322.9 665.0,316.4 697.5,306.9 730.0,329.2 762.5,341.8 795.0,342.9 827.5,321.2 860.0,299.5" fill="none" stroke="#2f6f9f" stroke-width="1" opacity="0.18"/>
<polyline points="80.0,366.2 112.5,345.5 145.0,365.6 177.5,362.0 210.0,371.8 242.5,340.7 275.0,355.7 307.5,371.4 340.0,380.8 372.5,376.9 405.0,347.6 437.5,366.1 470.0,319.0 502.5,290.2 535.0,295.5 567.5,319.2 600.0,311.9 632.5,298.1 665.0,314.5 697.5,306.9 730.0,293.4 762.5,310.7 795.0,327.3 827.5,346.9 860.0,321.1" fill="none" stroke="#2f6f9f" stroke-width="1" opacity="0.18"/>
<polyline points="80.0,290.4 112.5,270.6 145.0,317.6 177.5,297.9 210.0,280.1 242.5,301.0 275.0,291.8 307.5,298.8 340.0,308.7 372.5,290.2 405.0,280.9 437.5,316.7 470.0,279.5 502.5,282.0 535.0,310.3 567.5,292.9 600.0,264.6 632.5,308.3 665.0,295.2 697.5,270.1 730.0,317.9 762.5,303.6 795.0,275.6 827.5,322.4 860.0,277.3" fill="none" stroke="#2f6f9f" stroke-width="1" opacity="0.18"/>
<polyline points="80.0,298.4 112.5,306.7 145.0,329.0 177.5,343.3 210.0,326.4 242.5,330.5 275.0,297.8 307.5,278.5 340.0,262.5 372.5,314.7 405.0,307.2 437.5,309.5 470.0,322.5 502.5,270.4 535.0,309.6 567.5,283.3 600.0,334.2 632.5,281.2 665.0,298.1 697.5,307.8 730.0,337.8 762.5,343.6 795.0,333.4 827.5,313.5 860.0,318.9" fill="none" stroke="#2f6f9f" stroke-width="1" opacity="0.18"/>
<polyline points="80.0,368.2 112.5,343.0 145.0,262.6 177.5,293.0 210.0,289.4 242.5,288.2 275.0,340.7 307.5,279.3 340.0,348.8 372.5,323.5 405.0,277.6 437.5,276.5 470.0,315.2 502.5,267.1 535.0,294.1 567.5,373.3 600.0,364.7 632.5,350.4 665.0,349.9 697.5,342.6 730.0,334.3 762.5,360.5 795.0,354.7 827.5,353.3 860.0,343.8" fill="none" stroke="#2f6f9f" stroke-width="1" opacity="0.18"/>
<polyline points="80.0,265.5 112.5,262.7 145.0,408.7 177.5,431.2 210.0,254.1 242.5,263.1 275.0,265.5 307.5,262.7 340.0,256.7 372.5,397.2 405.0,259.2 437.5,260.9 470.0,368.2 502.5,257.5 535.0,257.1 567.5,262.2 600.0,265.5 632.5,264.5 665.0,260.0 697.5,400.0 730.0,435.9 762.5,187.4 795.0,264.1 827.5,265.5 860.0,257.9" fill="none" stroke="#2f6f9f" stroke-width="1" opacity="0.18"/>
<polyline points="80.0,299.7 112.5,257.9 145.0,273.3 177.5,291.8 210.0,326.2 242.5,364.4 275.0,376.7 307.5,317.0 340.0,337.6 372.5,313.0 405.0,278.9 437.5,341.4 470.0,281.6 502.5,295.3 535.0,269.9 567.5,293.7 600.0,276.0 632.5,315.5 665.0,280.2 697.5,314.9 730.0,284.9 762.5,304.7 795.0,294.7 827.5,270.0 860.0,285.0" fill="none" stroke="#2f6f9f" stroke-width="1" opacity="0.18"/>
<polyline points="80.0,322.6 112.5,338.1 145.0,301.7 177.5,327.7 210.0,377.7 242.5,268.0 275.0,277.0 307.5,258.2 340.0,305.2 372.5,255.0 405.0,303.7 437.5,263.4 470.0,264.1 502.5,252.1 535.0,323.4 567.5,258.8 600.0,337.8 632.5,331.8 665.0,366.0 697.5,404.6 730.0,319.1 762.5,306.9 795.0,313.7 827.5,332.3 860.0,258.3" fill="none" stroke="#2f6f9f" stroke-width="1" opacity="0.18"/>
<polyline points="80.0,342.5 112.5,364.9 145.0,345.8 177.5,399.3 210.0,220.2 242.5,253.6 275.0,259.4 307.5,249.1 340.0,291.6 372.5,338.5 405.0,353.2 437.5,398.7 470.0,358.9 502.5,294.6 535.0,336.7 567.5,329.4 600.0,262.9 632.5,264.6 665.0,330.3 697.5,333.7 730.0,357.2 762.5,358.6 795.0,230.4 827.5,288.6 860.0,282.8" fill="none" stroke="#2f6f9f" stroke-width="1" opacity="0.18"/>
<polyline points="80.0,282.8 112.5,276.3 145.0,320.5 177.5,290.1 210.0,315.4 242.5,343.7 275.0,310.8 307.5,291.3 340.0,303.3 372.5,299.2 405.0,344.3 437.5,286.6 470.0,292.4 502.5,274.1 535.0,314.5 567.5,272.2 600.0,282.6 632.5,310.4 665.0,264.3 697.5,205.1 730.0,323.5 762.5,360.5 795.0,249.5 827.5,347.8 860.0,324.1" fill="none" stroke="#2f6f9f" stroke-width="1" opacity="0.18"/>
<polyline points="80.0,315.5 112.5,286.2 145.0,311.6 177.5,301.4 210.0,298.1 242.5,290.0 275.0,288.9 307.5,299.1 340.0,313.9 372.5,283.0 405.0,288.4 437.5,336.4 470.0,298.9 502.5,305.3 535.0,278.9 567.5,300.6 600.0,255.2 632.5,311.8 665.0,302.7 697.5,270.2 730.0,311.1 762.5,285.2 795.0,305.4 827.5,316.3 860.0,303.5" fill="none" stroke="#2f6f9f" stroke-width="1" opacity="0.18"/>
<polyline points="80.0,277.2 112.5,319.5 145.0,297.4 177.5,337.4 210.0,323.5 242.5,306.3 275.0,260.4 307.5,279.8 340.0,255.1 372.5,312.3 405.0,292.2 437.5,274.3 470.0,252.7 502.5,280.7 535.0,288.6 567.5,258.6 600.0,343.8 632.5,333.2 665.0,302.6 697.5,332.2 730.0,317.9 762.5,332.0 795.0,295.6 827.5,288.0 860.0,273.3" fill="none" stroke="#2f6f9f" stroke-width="1" opacity="0.18"/>
<polyline points="80.0,356.3 112.5,399.4 145.0,376.1 177.5,280.5 210.0,277.8 242.5,331.2 275.0,339.6 307.5,360.8 340.0,358.6 372.5,338.5 405.0,383.3 437.5,305.5 470.0,307.5 502.5,309.9 535.0,327.2 567.5,324.3 600.0,337.1 632.5,354.3 665.0,347.8 697.5,329.8 730.0,377.9 762.5,360.4 795.0,354.0 827.5,303.3 860.0,315.9" fill="none" stroke="#2f6f9f" stroke-width="1" opacity="0.18"/>
<polyline points="80.0,307.1 112.5,264.3 145.0,292.5 177.5,327.5 210.0,298.3 242.5,285.1 275.0,264.7 307.5,279.5 340.0,353.8 372.5,273.3 405.0,306.4 437.5,327.7 470.0,271.1 502.5,320.4 535.0,348.1 567.5,291.2 600.0,258.5 632.5,307.9 665.0,350.0 697.5,299.5 730.0,287.9 762.5,320.5 795.0,323.6 827.5,315.7 860.0,301.0" fill="none" stroke="#2f6f9f" stroke-width="1" opacity="0.18"/>
<polyline points="80.0,323.4 112.5,357.9 145.0,309.5 177.5,306.7 210.0,361.2 242.5,402.2 275.0,341.3 307.5,269.0 340.0,363.0 372.5,355.8 405.0,313.8 437.5,346.3 470.0,320.2 502.5,268.7 535.0,382.7 567.5,354.4 600.0,335.1 632.5,349.3 665.0,348.0 697.5,324.7 730.0,315.7 762.5,365.9 795.0,376.0 827.5,356.2 860.0,330.5" fill="none" stroke="#2f6f9f" stroke-width="1" opacity="0.18"/>
<polyline points="80.0,357.8 112.5,238.5 145.0,285.0 177.5,306.0 210.0,289.7 242.5,385.3 275.0,327.3 307.5,357.6 340.0,406.5 372.5,361.8 405.0,363.2 437.5,252.0 470.0,323.8 502.5,267.3 535.0,253.0 567.5,316.4 600.0,330.9 632.5,360.8 665.0,340.3 697.5,365.1 730.0,380.6 762.5,338.8 795.0,367.9 827.5,356.9 860.0,319.9" fill="none" stroke="#2f6f9f" stroke-width="1" opacity="0.18"/>
<polyline points="80.0,330.2 112.5,314.5 145.0,293.2 177.5,300.2 210.0,265.0 242.5,270.8 275.0,292.6 307.5,257.8 340.0,307.3 372.5,348.0 405.0,306.1 437.5,289.0 470.0,303.6 502.5,285.4 535.0,282.2 567.5,265.6 600.0,305.2 632.5,332.2 665.0,295.1 697.5,302.5 730.0,311.6 762.5,306.5 795.0,286.3 827.5,275.2 860.0,271.9" fill="none" stroke="#2f6f9f" stroke-width="1" opacity="0.18"/>
<polyline points="80.0,355.0 112.5,352.7 145.0,342.8 177.5,288.3 210.0,302.5 242.5,278.4 275.0,292.2 307.5,296.7 340.0,304.7 372.5,328.4 405.0,377.5 437.5,362.8 470.0,349.3 502.5,301.5 535.0,319.5 567.5,291.8 600.0,325.6 632.5,318.1 665.0,297.0 697.5,332.4 730.0,297.3 762.5,280.2 795.0,317.7 827.5,322.5 860.0,314.8" fill="none" stroke="#2f6f9f" stroke-width="1" opacity="0.18"/>
<polyline points="80.0,348.7 112.5,321.9 145.0,347.1 177.5,246.4 210.0,270.5 242.5,262.6 275.0,345.8 307.5,359.6 340.0,427.6 372.5,400.9 405.0,348.8 437.5,332.7 470.0,270.6 502.5,277.3 535.0,279.9 567.5,269.9 600.0,298.0 632.5,277.0 665.0,333.8 697.5,351.8 730.0,374.6 762.5,371.4 795.0,311.2 827.5,303.3 860.0,303.6" fill="none" stroke="#2f6f9f" stroke-width="1" opacity="0.18"/>
<polyline points="80.0,317.0 112.5,329.7 145.0,295.2 177.5,378.9 210.0,366.2 242.5,305.6 275.0,348.3 307.5,327.5 340.0,326.8 372.5,338.0 405.0,304.9 437.5,269.6 470.0,306.6 502.5,273.6 535.0,306.1 567.5,283.5 600.0,288.8 632.5,330.0 665.0,356.8 697.5,326.5 730.0,314.1 762.5,341.7 795.0,294.1 827.5,333.8 860.0,305.8" fill="none" stroke="#2f6f9f" stroke-width="1" opacity="0.18"/>
<polyline points="80.0,328.7 112.5,317.1 145.0,326.8 177.5,294.1 210.0,301.7 242.5,335.9 275.0,304.5 307.5,348.7 340.0,358.9 372.5,388.0 405.0,312.2 437.5,313.7 470.0,304.9 502.5,316.3 535.0,375.9 567.5,349.7 600.0,341.6 632.5,351.3 665.0,306.2 697.5,322.8 730.0,259.1 762.5,374.8 795.0,325.4 827.5,333.6 860.0,280.3" fill="none" stroke="#2f6f9f" stroke-width="1" opacity="0.18"/>
<polyline points="80.0,375.0 112.5,390.2 145.0,368.5 177.5,361.9 210.0,366.6 242.5,393.8 275.0,357.1 307.5,373.3 340.0,376.4 372.5,320.2 405.0,318.1 437.5,312.9 470.0,335.8 502.5,322.1 535.0,342.7 567.5,367.3 600.0,398.1 632.5,361.7 665.0,311.6 697.5,317.3 730.0,353.2 762.5,368.1 795.0,343.5 827.5,354.6 860.0,346.9" fill="none" stroke="#2f6f9f" stroke-width="1" opacity="0.18"/>
<polyline points="80.0,299.6 112.5,252.6 145.0,316.8 177.5,315.3 210.0,261.4 242.5,263.8 275.0,263.9 307.5,264.8 340.0,309.5 372.5,257.6 405.0,299.7 437.5,259.5 470.0,206.7 502.5,259.7 535.0,288.6 567.5,293.3 600.0,286.8 632.5,265.3 665.0,248.2 697.5,265.0 730.0,315.8 762.5,262.2 795.0,265.0 827.5,392.1 860.0,324.0" fill="none" stroke="#2f6f9f" stroke-width="1" opacity="0.18"/>
<polyline points="80.0,310.9 112.5,292.6 145.0,289.4 177.5,309.3 210.0,318.8 242.5,318.5 275.0,314.5 307.5,305.5 340.0,296.4 372.5,341.7 405.0,302.2 437.5,317.8 470.0,363.8 502.5,302.1 535.0,285.0 567.5,287.1 600.0,285.8 632.5,297.7 665.0,294.3 697.5,275.6 730.0,315.8 762.5,288.2 795.0,296.6 827.5,321.7 860.0,316.3" fill="none" stroke="#2f6f9f" stroke-width="1" opacity="0.18"/>
<polyline points="80.0,359.0 112.5,320.8 145.0,327.1 177.5,316.4 210.0,262.5 242.5,304.7 275.0,304.5 307.5,356.8 340.0,291.2 372.5,291.1 405.0,302.9 437.5,296.3 470.0,354.7 502.5,285.6 535.0,331.8 567.5,308.8 600.0,300.7 632.5,337.8 665.0,325.1 697.5,361.8 730.0,352.3 762.5,339.1 795.0,298.6 827.5,325.9 860.0,292.9" fill="none" stroke="#2f6f9f" stroke-width="1" opacity="0.18"/>
<polyline points="80.0,253.7 112.5,319.1 145.0,322.0 177.5,302.9 210.0,285.1 242.5,325.1 275.0,308.7 307.5,267.5 340.0,324.1 372.5,317.3 405.0,272.7 437.5,288.3 470.0,263.2 502.5,305.4 535.0,312.3 567.5,324.5 600.0,339.4 632.5,323.4 665.0,284.7 697.5,276.8 730.0,266.1 762.5,277.6 795.0,319.8 827.5,340.4 860.0,332.6" fill="none" stroke="#2f6f9f" stroke-width="1" opacity="0.18"/>
<polyline points="80.0,269.8 112.5,270.3 145.0,278.6 177.5,330.0 210.0,293.3 242.5,306.4 275.0,283.3 307.5,357.4 340.0,328.6 372.5,359.5 405.0,341.3 437.5,330.5 470.0,281.9 502.5,312.2 535.0,326.2 567.5,291.3 600.0,308.5 632.5,344.4 665.0,326.6 697.5,380.8 730.0,307.6 762.5,286.0 795.0,302.6 827.5,325.2 860.0,356.8" fill="none" stroke="#2f6f9f" stroke-width="1" opacity="0.18"/>
<polyline points="80.0,263.8 112.5,270.1 145.0,284.5 177.5,277.8 210.0,299.2 242.5,284.2 275.0,292.1 307.5,297.7 340.0,311.4 372.5,302.5 405.0,287.0 437.5,320.1 470.0,286.9 502.5,283.2 535.0,300.7 567.5,356.6 600.0,385.4 632.5,378.9 665.0,338.9 697.5,353.6 730.0,352.8 762.5,316.9 795.0,346.2 827.5,336.7 860.0,328.0" fill="none" stroke="#2f6f9f" stroke-width="1" opacity="0.18"/>
<polyline points="80.0,304.1 112.5,284.6 145.0,319.2 177.5,335.9 210.0,315.3 242.5,327.7 275.0,307.7 307.5,343.3 340.0,259.6 372.5,290.3 405.0,270.5 437.5,301.1 470.0,296.9 502.5,283.8 535.0,335.5 567.5,348.9 600.0,274.3 632.5,284.3 665.0,321.1 697.5,350.0 730.0,294.1 762.5,313.1 795.0,314.1 827.5,287.6 860.0,327.4" fill="none" stroke="#2f6f9f" stroke-width="1" opacity="0.18"/>
<polyline points="80.0,302.3 112.5,280.7 145.0,313.7 177.5,321.7 210.0,311.7 242.5,342.1 275.0,274.8 307.5,312.7 340.0,350.5 372.5,348.5 405.0,322.0 437.5,334.7 470.0,263.0 502.5,317.5 535.0,306.7 567.5,300.8 600.0,282.5 632.5,285.1 665.0,315.7 697.5,330.6 730.0,271.4 762.5,323.9 795.0,289.7 827.5,338.1 860.0,304.5" fill="none" stroke="#2f6f9f" stroke-width="1" opacity="0.18"/>
<polyline points="80.0,277.0 112.5,271.0 145.0,297.6 177.5,260.1 210.0,308.6 242.5,312.1 275.0,278.3 307.5,305.3 340.0,331.9 372.5,333.2 405.0,315.1 437.5,322.2 470.0,300.7 502.5,258.8 535.0,346.1 567.5,276.2 600.0,267.6 632.5,291.3 665.0,261.0 697.5,304.5 730.0,280.2 762.5,305.7 795.0,277.2 827.5,285.8 860.0,285.9" fill="none" stroke="#2f6f9f" stroke-width="1" opacity="0.18"/>
<polyline points="80.0,337.8 112.5,290.4 145.0,257.5 177.5,318.9 210.0,398.3 242.5,281.9 275.0,371.2 307.5,349.4 340.0,404.1 372.5,307.4 405.0,292.8 437.5,395.2 470.0,375.5 502.5,259.0 535.0,302.2 567.5,256.2 600.0,299.7 632.5,262.2 665.0,264.5 697.5,345.6 730.0,252.7 762.5,265.5 795.0,356.5 827.5,289.9 860.0,385.3" fill="none" stroke="#2f6f9f" stroke-width="1" opacity="0.18"/>
<polyline points="80.0,276.7 112.5,280.7 145.0,341.9 177.5,315.3 210.0,297.3 242.5,327.1 275.0,288.4 307.5,294.5 340.0,324.4 372.5,296.1 405.0,284.6 437.5,295.0 470.0,301.6 502.5,329.6 535.0,374.8 567.5,383.9 600.0,346.8 632.5,368.1 665.0,247.7 697.5,289.5 730.0,346.2 762.5,363.0 795.0,348.1 827.5,342.1 860.0,282.7" fill="none" stroke="#2f6f9f" stroke-width="1" opacity="0.18"/>
<polyline points="80.0,359.1 112.5,328.2 145.0,359.3 177.5,254.9 210.0,265.5 242.5,264.5 275.0,427.6 307.5,447.2 340.0,442.4 372.5,305.0 405.0,263.1 437.5,318.1 470.0,265.5 502.5,317.5 535.0,430.8 567.5,371.6 600.0,247.0 632.5,391.1 665.0,252.4 697.5,264.5 730.0,265.0 762.5,405.8 795.0,366.7 827.5,405.8 860.0,343.6" fill="none" stroke="#2f6f9f" stroke-width="1" opacity="0.18"/>
<polyline points="80.0,253.4 112.5,253.6 145.0,284.4 177.5,262.2 210.0,280.0 242.5,263.1 275.0,259.2 307.5,263.9 340.0,284.6 372.5,314.2 405.0,268.7 437.5,294.8 470.0,280.6 502.5,261.5 535.0,272.0 567.5,264.2 600.0,278.4 632.5,235.6 665.0,300.7 697.5,259.3 730.0,256.1 762.5,264.5 795.0,265.0 827.5,276.6 860.0,278.2" fill="none" stroke="#2f6f9f" stroke-width="1" opacity="0.18"/>
<polyline points="80.0,330.0 112.5,328.2 145.0,265.5 177.5,332.7 210.0,358.9 242.5,326.2 275.0,357.2 307.5,358.6 340.0,304.5 372.5,309.5 405.0,307.7 437.5,290.9 470.0,285.9 502.5,299.9 535.0,263.5 567.5,316.2 600.0,332.7 632.5,373.5 665.0,362.4 697.5,363.4 730.0,340.7 762.5,271.7 795.0,255.7 827.5,304.8 860.0,296.3" fill="none" stroke="#2f6f9f" stroke-width="1" opacity="0.18"/>
<polyline points="80.0,435.1 112.5,365.9 145.0,290.0 177.5,300.2 210.0,244.2 242.5,304.2 275.0,389.5 307.5,333.9 340.0,333.7 372.5,313.6 405.0,285.4 437.5,337.7 470.0,306.8 502.5,309.8 535.0,325.5 567.5,349.9 600.0,293.0 632.5,327.9 665.0,344.1 697.5,365.1 730.0,260.6 762.5,320.9 795.0,290.5 827.5,285.9 860.0,297.4" fill="none" stroke="#2f6f9f" stroke-width="1" opacity="0.18"/>
<polyline points="80.0,276.5 112.5,321.3 145.0,256.8 177.5,250.9 210.0,278.8 242.5,276.8 275.0,316.3 307.5,356.9 340.0,363.9 372.5,274.1 405.0,319.9 437.5,329.6 470.0,301.2 502.5,275.0 535.0,346.5 567.5,343.8 600.0,320.4 632.5,310.8 665.0,254.0 697.5,277.7 730.0,278.4 762.5,285.7 795.0,319.1 827.5,343.8 860.0,301.5" fill="none" stroke="#2f6f9f" stroke-width="1" opacity="0.18"/>
<polyline points="80.0,289.9 112.5,260.3 145.0,264.0 177.5,285.1 210.0,289.0 242.5,321.2 275.0,287.6 307.5,262.9 340.0,259.5 372.5,291.7 405.0,291.3 437.5,264.7 470.0,261.9 502.5,265.4 535.0,271.0 567.5,336.9 600.0,350.7 632.5,334.4 665.0,337.6 697.5,258.1 730.0,348.6 762.5,348.6 795.0,368.2 827.5,371.1 860.0,357.2" fill="none" stroke="#2f6f9f" stroke-width="1" opacity="0.18"/>
<polyline points="80.0,306.6 112.5,345.4 145.0,316.9 177.5,355.4 210.0,354.5 242.5,375.3 275.0,378.0 307.5,356.9 340.0,342.9 372.5,360.9 405.0,388.0 437.5,381.2 470.0,346.5 502.5,377.6 535.0,300.8 567.5,292.5 600.0,323.1 632.5,366.2 665.0,368.0 697.5,363.9 730.0,321.2 762.5,330.0 795.0,339.4 827.5,384.9 860.0,329.5" fill="none" stroke="#2f6f9f" stroke-width="1" opacity="0.18"/>
<polyline points="80.0,301.6 112.5,280.6 145.0,310.4 177.5,260.8 210.0,266.4 242.5,313.7 275.0,263.2 307.5,308.9 340.0,273.9 372.5,290.1 405.0,304.6 437.5,307.7 470.0,321.4 502.5,284.2 535.0,276.9 567.5,300.6 600.0,266.5 632.5,262.5 665.0,296.1 697.5,261.4 730.0,263.0 762.5,278.5 795.0,321.0 827.5,282.7 860.0,264.1" fill="none" stroke="#2f6f9f" stroke-width="1" opacity="0.18"/>
<polyline points="80.0,338.0 112.5,301.3 145.0,320.5 177.5,339.7 210.0,267.1 242.5,280.8 275.0,333.1 307.5,351.6 340.0,355.7 372.5,304.3 405.0,283.0 437.5,296.5 470.0,274.0 502.5,267.4 535.0,316.1 567.5,387.9 600.0,378.1 632.5,365.9 665.0,330.6 697.5,330.1 730.0,293.5 762.5,255.3 795.0,349.8 827.5,381.6 860.0,344.9" fill="none" stroke="#2f6f9f" stroke-width="1" opacity="0.18"/>
<polyline points="80.0,291.0 112.5,254.3 145.0,265.2 177.5,291.0 210.0,253.2 242.5,331.3 275.0,367.4 307.5,409.8 340.0,367.2 372.5,372.9 405.0,378.9 437.5,342.7 470.0,271.4 502.5,245.4 535.0,350.8 567.5,317.5 600.0,308.1 632.5,264.5 665.0,264.9 697.5,256.5 730.0,238.5 762.5,325.9 795.0,250.8 827.5,265.0 860.0,264.4" fill="none" stroke="#2f6f9f" stroke-width="1" opacity="0.18"/>
<polyline points="80.0,429.5 112.5,368.3 145.0,314.2 177.5,343.2 210.0,391.7 242.5,309.8 275.0,330.2 307.5,411.9 340.0,448.0 372.5,331.5 405.0,255.0 437.5,335.1 470.0,263.4 502.5,294.0 535.0,276.0 567.5,264.6 600.0,345.3 632.5,294.8 665.0,363.3 697.5,361.9 730.0,366.8 762.5,290.3 795.0,351.4 827.5,329.0 860.0,322.4" fill="none" stroke="#2f6f9f" stroke-width="1" opacity="0.18"/>
<polyline points="80.0,319.7 112.5,321.0 145.0,310.6 177.5,276.0 210.0,299.6 242.5,335.0 275.0,325.0 307.5,314.8 340.0,280.6 372.5,257.7 405.0,262.0 437.5,312.7 470.0,285.9 502.5,299.2 535.0,344.2 567.5,355.5 600.0,367.8 632.5,336.6 665.0,288.1 697.5,260.0 730.0,307.6 762.5,346.6 795.0,322.3 827.5,361.9 860.0,304.9" fill="none" stroke="#2f6f9f" stroke-width="1" opacity="0.18"/>
<polyline points="80.0,297.7 112.5,295.7 145.0,349.7 177.5,314.1 210.0,291.0 242.5,261.1 275.0,263.6 307.5,278.3 340.0,336.5 372.5,278.9 405.0,288.3 437.5,296.7 470.0,264.4 502.5,250.0 535.0,290.6 567.5,299.1 600.0,263.2 632.5,329.8 665.0,350.0 697.5,302.6 730.0,272.5 762.5,344.9 795.0,327.6 827.5,292.1 860.0,285.0" fill="none" stroke="#2f6f9f" stroke-width="1" opacity="0.18"/>
<polyline points="80.0,327.2 112.5,329.2 145.0,329.5 177.5,343.0 210.0,317.8 242.5,318.9 275.0,339.2 307.5,352.5 340.0,339.3 372.5,383.9 405.0,334.9 437.5,372.7 470.0,321.4 502.5,264.7 535.0,316.7 567.5,337.8 600.0,361.2 632.5,339.9 665.0,322.9 697.5,338.0 730.0,340.4 762.5,331.8 795.0,299.6 827.5,320.5 860.0,355.8" fill="none" stroke="#2f6f9f" stroke-width="1" opacity="0.18"/>
<polyline points="80.0,301.5 112.5,287.0 145.0,343.7 177.5,318.1 210.0,344.0 242.5,365.3 275.0,324.8 307.5,261.5 340.0,281.9 372.5,354.6 405.0,312.3 437.5,352.5 470.0,274.7 502.5,282.8 535.0,292.6 567.5,378.4 600.0,370.0 632.5,392.7 665.0,360.3 697.5,373.3 730.0,365.5 762.5,293.7 795.0,381.4 827.5,382.1 860.0,378.8" fill="none" stroke="#2f6f9f" stroke-width="1" opacity="0.18"/>
<polyline points="80.0,353.4 112.5,263.1 145.0,265.5 177.5,260.4 210.0,263.1 242.5,265.0 275.0,346.7 307.5,260.4 340.0,249.8 372.5,383.2 405.0,282.8 437.5,263.6 470.0,394.4 502.5,246.7 535.0,262.2 567.5,264.5 600.0,265.5 632.5,265.0 665.0,336.5 697.5,381.7 730.0,360.4 762.5,261.7 795.0,261.7 827.5,265.5 860.0,334.2" fill="none" stroke="#2f6f9f" stroke-width="1" opacity="0.18"/>
<polyline points="80.0,299.1 112.5,316.2 145.0,286.8 177.5,272.7 210.0,307.8 242.5,337.3 275.0,352.6 307.5,351.4 340.0,278.9 372.5,279.8 405.0,266.1 437.5,382.9 470.0,385.9 502.5,274.1 535.0,279.2 567.5,274.8 600.0,320.9 632.5,318.4 665.0,324.2 697.5,311.5 730.0,331.5 762.5,292.7 795.0,305.5 827.5,276.7 860.0,286.1" fill="none" stroke="#2f6f9f" stroke-width="1" opacity="0.18"/>
<polyline points="80.0,310.2 112.5,329.6 145.0,330.7 177.5,298.5 210.0,257.5 242.5,326.6 275.0,317.0 307.5,327.8 340.0,287.8 372.5,315.8 405.0,272.0 437.5,297.5 470.0,302.8 502.5,326.4 535.0,317.3 567.5,307.7 600.0,339.1 632.5,337.4 665.0,374.8 697.5,323.6 730.0,249.3 762.5,304.5 795.0,310.1 827.5,323.2 860.0,292.5" fill="none" stroke="#2f6f9f" stroke-width="1" opacity="0.18"/>
<polyline points="80.0,294.7 112.5,295.0 145.0,283.1 177.5,270.5 210.0,286.0 242.5,328.7 275.0,315.8 307.5,299.7 340.0,315.3 372.5,322.3 405.0,283.2 437.5,262.0 470.0,296.3 502.5,286.9 535.0,290.3 567.5,365.2 600.0,335.6 632.5,357.9 665.0,289.7 697.5,296.7 730.0,310.2 762.5,329.8 795.0,346.5 827.5,359.4 860.0,304.3" fill="none" stroke="#2f6f9f" stroke-width="1" opacity="0.18"/>
<polyline points="80.0,312.0 112.5,273.7 145.0,297.5 177.5,331.0 210.0,307.0 242.5,326.9 275.0,319.5 307.5,279.2 340.0,280.1 372.5,328.6 405.0,304.4 437.5,289.1 470.0,283.5 502.5,268.8 535.0,276.6 567.5,300.8 600.0,297.3 632.5,325.5 665.0,322.8 697.5,318.2 730.0,289.3 762.5,268.3 795.0,319.0 827.5,354.3 860.0,327.0" fill="none" stroke="#2f6f9f" stroke-width="1" opacity="0.18"/>
<polyline points="80.0,283.1 112.5,284.1 145.0,285.8 177.5,271.8 210.0,325.1 242.5,284.3 275.0,273.6 307.5,283.1 340.0,252.7 372.5,295.2 405.0,281.6 437.5,308.5 470.0,283.3 502.5,298.9 535.0,319.7 567.5,310.8 600.0,309.6 632.5,300.8 665.0,318.7 697.5,332.9 730.0,304.7 762.5,326.8 795.0,344.0 827.5,300.8 860.0,307.4" fill="none" stroke="#2f6f9f" stroke-width="1" opacity="0.18"/>
<polyline points="80.0,348.7 112.5,359.0 145.0,307.7 177.5,304.3 210.0,277.4 242.5,327.4 275.0,352.7 307.5,283.1 340.0,275.1 372.5,260.0 405.0,255.2 437.5,253.6 470.0,285.5 502.5,303.7 535.0,284.0 567.5,354.0 600.0,344.7 632.5,341.4 665.0,285.2 697.5,332.4 730.0,311.1 762.5,359.7 795.0,309.5 827.5,378.6 860.0,289.4" fill="none" stroke="#2f6f9f" stroke-width="1" opacity="0.18"/>
<polyline points="80.0,303.1 112.5,349.4 145.0,345.6 177.5,331.0 210.0,319.3 242.5,358.5 275.0,371.7 307.5,376.0 340.0,302.6 372.5,339.3 405.0,374.6 437.5,364.6 470.0,320.7 502.5,333.0 535.0,246.5 567.5,264.7 600.0,365.9 632.5,391.0 665.0,403.2 697.5,383.5 730.0,369.8 762.5,385.6 795.0,374.5 827.5,352.5 860.0,369.5" fill="none" stroke="#2f6f9f" stroke-width="1" opacity="0.18"/>
<polyline points="80.0,254.4 112.5,290.8 145.0,302.7 177.5,375.8 210.0,239.9 242.5,274.9 275.0,310.9 307.5,324.2 340.0,254.0 372.5,285.9 405.0,284.6 437.5,274.6 470.0,260.6 502.5,255.7 535.0,281.3 567.5,277.6 600.0,262.6 632.5,298.7 665.0,284.0 697.5,284.3 730.0,259.6 762.5,295.8 795.0,288.4 827.5,299.6 860.0,273.6" fill="none" stroke="#2f6f9f" stroke-width="1" opacity="0.18"/>
<polyline points="80.0,265.1 112.5,257.4 145.0,280.1 177.5,286.2 210.0,283.3 242.5,317.7 275.0,327.1 307.5,277.1 340.0,280.9 372.5,311.4 405.0,312.9 437.5,324.6 470.0,252.9 502.5,283.8 535.0,277.3 567.5,309.6 600.0,297.5 632.5,285.8 665.0,285.0 697.5,277.1 730.0,273.2 762.5,261.5 795.0,271.4 827.5,275.8 860.0,290.7" fill="none" stroke="#2f6f9f" stroke-width="1" opacity="0.18"/>
<polyline points="80.0,269.4 112.5,320.6 145.0,282.7 177.5,334.2 210.0,302.1 242.5,242.0 275.0,284.7 307.5,263.6 340.0,276.4 372.5,317.5 405.0,318.6 437.5,318.8 470.0,260.8 502.5,286.7 535.0,245.0 567.5,244.5 600.0,286.6 632.5,261.9 665.0,293.6 697.5,245.5 730.0,285.6 762.5,317.2 795.0,313.6 827.5,265.5 860.0,325.0" fill="none" stroke="#2f6f9f" stroke-width="1" opacity="0.18"/>
<polyline points="80.0,299.0 112.5,306.5 145.0,288.1 177.5,359.3 210.0,291.4 242.5,260.9 275.0,302.3 307.5,279.9 340.0,299.0 372.5,341.3 405.0,265.7 437.5,295.1 470.0,286.3 502.5,282.4 535.0,310.8 567.5,309.3 600.0,270.3 632.5,324.1 665.0,279.5 697.5,267.9 730.0,276.5 762.5,354.7 795.0,275.4 827.5,289.0 860.0,290.9" fill="none" stroke="#2f6f9f" stroke-width="1" opacity="0.18"/>
<polyline points="80.0,311.0 112.5,314.8 145.0,308.8 177.5,301.4 210.0,292.2 242.5,327.1 275.0,289.9 307.5,310.4 340.0,303.9 372.5,303.1 405.0,271.3 437.5,313.4 470.0,301.0 502.5,320.4 535.0,331.6 567.5,299.3 600.0,335.7 632.5,319.3 665.0,318.6 697.5,296.2 730.0,321.0 762.5,328.0 795.0,336.9 827.5,320.7 860.0,335.0" fill="none" stroke="#2f6f9f" stroke-width="1" opacity="0.18"/>
<polyline points="80.0,299.5 112.5,275.3 145.0,263.5 177.5,278.3 210.0,276.0 242.5,275.7 275.0,292.2 307.5,307.0 340.0,338.5 372.5,355.9 405.0,302.3 437.5,300.4 470.0,256.8 502.5,301.2 535.0,307.5 567.5,255.8 600.0,255.0 632.5,271.9 665.0,339.5 697.5,361.8 730.0,349.2 762.5,338.5 795.0,323.9 827.5,367.9 860.0,338.7" fill="none" stroke="#2f6f9f" stroke-width="1" opacity="0.18"/>
<polyline points="80.0,372.7 112.5,337.9 145.0,327.5 177.5,319.5 210.0,303.6 242.5,271.5 275.0,260.0 307.5,324.6 340.0,357.1 372.5,342.0 405.0,288.7 437.5,319.0 470.0,271.6 502.5,251.1 535.0,342.4 567.5,315.8 600.0,306.2 632.5,297.9 665.0,320.5 697.5,328.1 730.0,285.3 762.5,277.6 795.0,308.0 827.5,288.9 860.0,298.1" fill="none" stroke="#2f6f9f" stroke-width="1" opacity="0.18"/>
<polyline points="80.0,290.9 112.5,297.4 145.0,331.9 177.5,326.4 210.0,341.9 242.5,337.0 275.0,362.2 307.5,263.6 340.0,260.0 372.5,256.4 405.0,291.8 437.5,321.7 470.0,313.9 502.5,276.8 535.0,311.4 567.5,313.5 600.0,316.6 632.5,402.4 665.0,343.5 697.5,293.6 730.0,276.7 762.5,315.8 795.0,344.9 827.5,326.6 860.0,266.6" fill="none" stroke="#2f6f9f" stroke-width="1" opacity="0.18"/>
<polyline points="80.0,300.4 112.5,277.5 145.0,261.7 177.5,261.2 210.0,286.0 242.5,298.8 275.0,259.6 307.5,291.2 340.0,311.9 372.5,250.5 405.0,269.0 437.5,277.8 470.0,277.7 502.5,272.6 535.0,317.7 567.5,243.6 600.0,322.6 632.5,242.5 665.0,263.7 697.5,263.8 730.0,253.7 762.5,274.2 795.0,260.7 827.5,249.2 860.0,332.6" fill="none" stroke="#2f6f9f" stroke-width="1" opacity="0.18"/>
<polyline points="80.0,300.6 112.5,268.8 145.0,290.2 177.5,301.6 210.0,370.6 242.5,310.7 275.0,332.0 307.5,325.9 340.0,343.3 372.5,302.3 405.0,318.1 437.5,321.2 470.0,327.4 502.5,307.0 535.0,298.1 567.5,296.0 600.0,288.4 632.5,288.5 665.0,298.0 697.5,281.6 730.0,287.3 762.5,302.7 795.0,288.8 827.5,283.5 860.0,280.9" fill="none" stroke="#2f6f9f" stroke-width="1" opacity="0.18"/>
<polyline points="80.0,264.4 112.5,292.1 145.0,277.3 177.5,283.5 210.0,307.9 242.5,308.0 275.0,373.6 307.5,348.5 340.0,344.7 372.5,317.2 405.0,350.1 437.5,299.1 470.0,293.2 502.5,269.5 535.0,276.8 567.5,268.5 600.0,262.2 632.5,268.9 665.0,298.1 697.5,294.0 730.0,331.2 762.5,359.4 795.0,371.9 827.5,359.4 860.0,348.6" fill="none" stroke="#2f6f9f" stroke-width="1" opacity="0.18"/>
<polyline points="80.0,281.6 112.5,267.5 145.0,300.0 177.5,277.3 210.0,280.5 242.5,278.3 275.0,306.9 307.5,314.0 340.0,314.4 372.5,287.2 405.0,284.0 437.5,283.4 470.0,269.7 502.5,274.1 535.0,306.8 567.5,281.5 600.0,346.0 632.5,296.4 665.0,330.4 697.5,271.3 730.0,320.5 762.5,297.6 795.0,293.3 827.5,322.6 860.0,279.4" fill="none" stroke="#2f6f9f" stroke-width="1" opacity="0.18"/>
<polyline points="80.0,282.5 112.5,350.0 145.0,224.4 177.5,261.2 210.0,301.8 242.5,281.1 275.0,253.1 307.5,265.3 340.0,280.3 372.5,306.2 405.0,270.7 437.5,277.3 470.0,252.4 502.5,260.3 535.0,260.8 567.5,299.4 600.0,292.9 632.5,278.6 665.0,249.1 697.5,276.2 730.0,290.8 762.5,280.8 795.0,243.5 827.5,278.3 860.0,278.0" fill="none" stroke="#2f6f9f" stroke-width="1" opacity="0.18"/>
<polyline points="80.0,309.3 112.5,312.2 145.0,296.9 177.5,281.0 210.0,303.4 242.5,292.5 275.0,315.2 307.5,270.5 340.0,334.9 372.5,287.9 405.0,303.8 437.5,328.5 470.0,245.2 502.5,247.5 535.0,307.2 567.5,261.5 600.0,256.3 632.5,281.2 665.0,292.5 697.5,227.7 730.0,262.9 762.5,259.2 795.0,295.2 827.5,325.8 860.0,321.1" fill="none" stroke="#2f6f9f" stroke-width="1" opacity="0.18"/>
<polyline points="80.0,327.9 112.5,326.4 145.0,253.7 177.5,272.0 210.0,320.8 242.5,331.1 275.0,333.7 307.5,301.9 340.0,346.5 372.5,299.9 405.0,261.6 437.5,287.9 470.0,267.2 502.5,288.8 535.0,308.3 567.5,310.9 600.0,321.9 632.5,330.6 665.0,288.2 697.5,312.1 730.0,259.6 762.5,332.9 795.0,291.9 827.5,334.6 860.0,320.7" fill="none" stroke="#2f6f9f" stroke-width="1" opacity="0.18"/>
<polyline points="80.0,337.5 112.5,372.8 145.0,333.2 177.5,300.4 210.0,299.8 242.5,262.6 275.0,305.1 307.5,256.2 340.0,328.4 372.5,263.3 405.0,243.1 437.5,232.9 470.0,245.0 502.5,285.6 535.0,252.5 567.5,298.1 600.0,330.9 632.5,275.5 665.0,296.5 697.5,288.3 730.0,303.3 762.5,311.0 795.0,301.5 827.5,350.3 860.0,320.2" fill="none" stroke="#2f6f9f" stroke-width="1" opacity="0.18"/>
<polyline points="80.0,292.3 112.5,290.5 145.0,307.1 177.5,293.9 210.0,317.8 242.5,291.0 275.0,277.8 307.5,300.5 340.0,289.5 372.5,279.6 405.0,357.9 437.5,301.0 470.0,261.4 502.5,273.0 535.0,274.2 567.5,287.9 600.0,264.7 632.5,309.8 665.0,318.5 697.5,327.4 730.0,302.3 762.5,296.5 795.0,310.1 827.5,350.1 860.0,280.2" fill="none" stroke="#2f6f9f" stroke-width="1" opacity="0.18"/>
<polyline points="80.0,260.7 112.5,237.8 145.0,384.2 177.5,374.7 210.0,270.9 242.5,331.6 275.0,310.9 307.5,357.1 340.0,374.9 372.5,272.4 405.0,304.4 437.5,288.8 470.0,249.4 502.5,250.3 535.0,272.5 567.5,280.1 600.0,312.5 632.5,356.1 665.0,390.5 697.5,279.1 730.0,301.5 762.5,254.3 795.0,275.8 827.5,313.1 860.0,249.2" fill="none" stroke="#2f6f9f" stroke-width="1" opacity="0.18"/>
<polyline points="80.0,313.1 112.5,340.8 145.0,254.7 177.5,296.1 210.0,336.0 242.5,286.2 275.0,300.9 307.5,263.2 340.0,306.3 372.5,309.1 405.0,346.0 437.5,287.3 470.0,303.2 502.5,331.7 535.0,283.2 567.5,314.6 600.0,327.1 632.5,306.1 665.0,369.4 697.5,336.1 730.0,298.5 762.5,304.5 795.0,314.5 827.5,307.2 860.0,251.8" fill="none" stroke="#2f6f9f" stroke-width="1" opacity="0.18"/>
<polyline points="80.0,286.4 112.5,319.3 145.0,282.5 177.5,320.2 210.0,350.6 242.5,319.6 275.0,336.3 307.5,367.1 340.0,272.5 372.5,300.4 405.0,281.4 437.5,313.9 470.0,250.3 502.5,273.9 535.0,293.9 567.5,313.3 600.0,278.6 632.5,289.0 665.0,273.5 697.5,279.2 730.0,316.4 762.5,319.1 795.0,280.0 827.5,320.0 860.0,302.4" fill="none" stroke="#2f6f9f" stroke-width="1" opacity="0.18"/>
<polyline points="80.0,301.7 112.5,308.5 145.0,313.4 177.5,328.6 210.0,300.3 242.5,330.4 275.0,336.1 307.5,329.9 340.0,308.9 372.5,344.4 405.0,333.8 437.5,345.9 470.0,303.6 502.5,314.3 535.0,291.1 567.5,322.4 600.0,286.6 632.5,309.3 665.0,253.7 697.5,280.7 730.0,316.5 762.5,335.6 795.0,317.9 827.5,332.3 860.0,296.0" fill="none" stroke="#2f6f9f" stroke-width="1" opacity="0.18"/>
<polyline points="80.0,277.3 112.5,305.0 145.0,270.6 177.5,284.3 210.0,273.1 242.5,344.0 275.0,269.4 307.5,331.1 340.0,254.7 372.5,283.7 405.0,276.7 437.5,280.7 470.0,298.1 502.5,261.5 535.0,264.2 567.5,315.1 600.0,315.2 632.5,268.7 665.0,321.5 697.5,282.3 730.0,289.5 762.5,265.1 795.0,288.2 827.5,274.6 860.0,301.5" fill="none" stroke="#2f6f9f" stroke-width="1" opacity="0.18"/>
<polyline points="80.0,258.7 112.5,299.9 145.0,261.0 177.5,281.3 210.0,294.8 242.5,274.3 275.0,285.3 307.5,272.9 340.0,284.6 372.5,260.2 405.0,295.2 437.5,300.5 470.0,273.6 502.5,291.6 535.0,309.2 567.5,272.3 600.0,333.6 632.5,298.4 665.0,305.8 697.5,274.9 730.0,322.9 762.5,286.9 795.0,275.1 827.5,277.2 860.0,278.5" fill="none" stroke="#2f6f9f" stroke-width="1" opacity="0.18"/>
<polyline points="80.0,323.0 112.5,321.8 145.0,323.8 177.5,324.5 210.0,335.1 242.5,347.5 275.0,286.2 307.5,302.5 340.0,312.0 372.5,292.6 405.0,311.3 437.5,334.4 470.0,253.5 502.5,301.2 535.0,306.0 567.5,304.1 600.0,317.5 632.5,321.7 665.0,309.8 697.5,343.3 730.0,345.8 762.5,301.6 795.0,286.8 827.5,317.3 860.0,321.7" fill="none" stroke="#2f6f9f" stroke-width="1" opacity="0.18"/>
<polyline points="80.0,279.7 112.5,293.0 145.0,311.8 177.5,295.0 210.0,296.0 242.5,324.3 275.0,339.5 307.5,294.4 340.0,325.8 372.5,296.4 405.0,288.2 437.5,287.4 470.0,255.5 502.5,280.9 535.0,278.0 567.5,280.1 600.0,285.0 632.5,301.5 665.0,274.9 697.5,259.4 730.0,277.6 762.5,285.3 795.0,280.5 827.5,278.9 860.0,273.2" fill="none" stroke="#2f6f9f" stroke-width="1" opacity="0.18"/>
<polyline points="80.0,260.7 112.5,286.6 145.0,310.9 177.5,306.5 210.0,293.9 242.5,280.8 275.0,322.8 307.5,342.0 340.0,330.1 372.5,275.9 405.0,292.3 437.5,321.9 470.0,265.3 502.5,260.5 535.0,313.1 567.5,289.1 600.0,347.2 632.5,312.8 665.0,330.5 697.5,272.5 730.0,319.3 762.5,328.3 795.0,312.2 827.5,294.7 860.0,337.6" fill="none" stroke="#2f6f9f" stroke-width="1" opacity="0.18"/>
<polyline points="80.0,306.1 112.5,305.9 145.0,306.1 177.5,305.9 210.0,297.6 242.5,304.7 275.0,302.1 307.5,305.9 340.0,306.1 372.5,305.9 405.0,306.1 437.5,294.8 470.0,256.0 502.5,234.2 535.0,363.3 567.5,318.0 600.0,322.0 632.5,321.5 665.0,323.8 697.5,318.4 730.0,323.1 762.5,319.2 795.0,319.2 827.5,311.5 860.0,319.2" fill="none" stroke="#2f6f9f" stroke-width="1" opacity="0.18"/>
<polyline points="80.0,317.4 112.5,305.6 145.0,330.9 177.5,337.1 210.0,324.6 242.5,342.3 275.0,328.3 307.5,332.8 340.0,328.2 372.5,306.5 405.0,304.0 437.5,333.6 470.0,292.9 502.5,295.1 535.0,312.4 567.5,308.5 600.0,306.1 632.5,331.8 665.0,312.4 697.5,332.0 730.0,331.1 762.5,321.2 795.0,300.7 827.5,341.1 860.0,313.0" fill="none" stroke="#2f6f9f" stroke-width="1" opacity="0.18"/>
<polyline points="80.0,266.6 112.5,289.2 145.0,320.5 177.5,348.8 210.0,319.4 242.5,312.6 275.0,324.4 307.5,339.0 340.0,319.0 372.5,325.3 405.0,324.8 437.5,300.3 470.0,265.3 502.5,271.1 535.0,311.5 567.5,305.0 600.0,335.3 632.5,335.3 665.0,332.3 697.5,348.8 730.0,352.9 762.5,309.5 795.0,329.2 827.5,289.0 860.0,309.2" fill="none" stroke="#2f6f9f" stroke-width="1" opacity="0.18"/>
<polyline points="80.0,278.8 112.5,278.3 145.0,335.0 177.5,299.7 210.0,282.2 242.5,324.4 275.0,324.3 307.5,291.7 340.0,274.7 372.5,297.3 405.0,308.7 437.5,368.7 470.0,235.9 502.5,319.6 535.0,351.8 567.5,339.3 600.0,295.7 632.5,317.8 665.0,341.4 697.5,320.0 730.0,263.5 762.5,290.4 795.0,318.0 827.5,304.5 860.0,227.3" fill="none" stroke="#2f6f9f" stroke-width="1" opacity="0.18"/>
<polyline points="80.0,317.7 112.5,290.8 145.0,325.0 177.5,320.2 210.0,283.7 242.5,286.6 275.0,275.8 307.5,323.5 340.0,317.8 372.5,331.8 405.0,299.5 437.5,316.4 470.0,282.7 502.5,274.7 535.0,274.4 567.5,270.6 600.0,288.8 632.5,297.5 665.0,282.8 697.5,301.7 730.0,285.8 762.5,266.1 795.0,312.0 827.5,290.1 860.0,286.7" fill="none" stroke="#2f6f9f" stroke-width="1" opacity="0.18"/>
<polyline points="80.0,297.1 112.5,296.5 145.0,294.9 177.5,312.3 210.0,337.4 242.5,332.3 275.0,314.1 307.5,311.6 340.0,315.4 372.5,307.8 405.0,304.3 437.5,315.2 470.0,284.3 502.5,281.3 535.0,314.8 567.5,311.8 600.0,312.7 632.5,341.1 665.0,318.1 697.5,306.6 730.0,315.9 762.5,323.4 795.0,333.5 827.5,315.2 860.0,304.7" fill="none" stroke="#2f6f9f" stroke-width="1" opacity="0.18"/>
<polyline points="80.0,292.0 112.5,296.1 145.0,298.2 177.5,328.6 210.0,287.3 242.5,309.8 275.0,293.7 307.5,313.2 340.0,302.7 372.5,312.7 405.0,315.5 437.5,307.0 470.0,254.1 502.5,284.6 535.0,286.0 567.5,292.6 600.0,304.4 632.5,305.7 665.0,292.1 697.5,317.7 730.0,297.0 762.5,305.3 795.0,300.8 827.5,312.5 860.0,303.5" fill="none" stroke="#2f6f9f" stroke-width="1" opacity="0.18"/>
<polyline points="80.0,341.2 112.5,350.4 145.0,340.8 177.5,336.8 210.0,313.6 242.5,354.7 275.0,364.8 307.5,370.3 340.0,348.7 372.5,341.5 405.0,332.2 437.5,347.4 470.0,311.4 502.5,314.3 535.0,323.9 567.5,342.8 600.0,351.9 632.5,370.9 665.0,367.8 697.5,332.0 730.0,312.8 762.5,350.0 795.0,322.3 827.5,343.8 860.0,335.8" fill="none" stroke="#2f6f9f" stroke-width="1" opacity="0.18"/>
<polyline points="80.0,304.4 112.5,349.6 145.0,337.3 177.5,340.2 210.0,335.5 242.5,354.1 275.0,344.1 307.5,356.7 340.0,343.2 372.5,335.6 405.0,340.5 437.5,333.7 470.0,312.0 502.5,308.4 535.0,313.7 567.5,330.9 600.0,318.2 632.5,330.2 665.0,294.0 697.5,316.8 730.0,304.3 762.5,334.0 795.0,286.4 827.5,314.6 860.0,314.5" fill="none" stroke="#2f6f9f" stroke-width="1" opacity="0.18"/>
<polyline points="80.0,303.9 112.5,323.1 145.0,317.3 177.5,333.8 210.0,304.2 242.5,317.5 275.0,331.2 307.5,367.6 340.0,285.5 372.5,326.3 405.0,327.9 437.5,363.7 470.0,267.7 502.5,278.3 535.0,335.0 567.5,364.1 600.0,304.7 632.5,333.4 665.0,322.0 697.5,317.2 730.0,286.0 762.5,284.7 795.0,295.6 827.5,321.5 860.0,351.7" fill="none" stroke="#2f6f9f" stroke-width="1" opacity="0.18"/>
<polyline points="80.0,303.3 112.5,308.7 145.0,290.6 177.5,318.3 210.0,328.0 242.5,338.4 275.0,316.7 307.5,330.5 340.0,325.0 372.5,348.1 405.0,349.2 437.5,316.3 470.0,324.1 502.5,284.6 535.0,285.3 567.5,328.6 600.0,336.0 632.5,344.6 665.0,353.5 697.5,352.7 730.0,331.1 762.5,350.4 795.0,333.8 827.5,322.5 860.0,307.6" fill="none" stroke="#2f6f9f" stroke-width="1" opacity="0.18"/>
<polyline points="80.0,354.5 112.5,345.6 145.0,363.5 177.5,351.8 210.0,357.4 242.5,363.9 275.0,345.9 307.5,340.2 340.0,376.2 372.5,340.2 405.0,316.2 437.5,350.6 470.0,318.7 502.5,292.8 535.0,331.4 567.5,348.0 600.0,358.4 632.5,365.4 665.0,376.5 697.5,377.6 730.0,379.6 762.5,360.6 795.0,339.6 827.5,374.1 860.0,352.6" fill="none" stroke="#2f6f9f" stroke-width="1" opacity="0.18"/>
<polyline points="80.0,355.1 112.5,338.8 145.0,348.7 177.5,368.1 210.0,370.9 242.5,375.2 275.0,362.2 307.5,389.7 340.0,389.3 372.5,379.4 405.0,340.3 437.5,372.6 470.0,275.7 502.5,281.6 535.0,303.2 567.5,334.6 600.0,331.4 632.5,373.3 665.0,358.3 697.5,361.2 730.0,366.4 762.5,375.8 795.0,378.4 827.5,377.4 860.0,344.4" fill="none" stroke="#2f6f9f" stroke-width="1" opacity="0.18"/>
<polyline points="80.0,332.4 112.5,344.9 145.0,348.5 177.5,347.8 210.0,345.7 242.5,359.3 275.0,348.4 307.5,341.5 340.0,353.1 372.5,334.0 405.0,312.9 437.5,335.9 470.0,302.4 502.5,294.1 535.0,321.2 567.5,339.4 600.0,347.3 632.5,351.9 665.0,339.2 697.5,348.3 730.0,339.8 762.5,339.6 795.0,340.7 827.5,349.3 860.0,339.8" fill="none" stroke="#2f6f9f" stroke-width="1" opacity="0.18"/>
<polyline points="80.0,358.5 112.5,356.8 145.0,392.8 177.5,358.3 210.0,384.2 242.5,349.7 275.0,366.1 307.5,353.0 340.0,372.4 372.5,362.0 405.0,375.7 437.5,387.4 470.0,305.9 502.5,273.3 535.0,280.2 567.5,344.7 600.0,322.0 632.5,342.8 665.0,369.7 697.5,377.8 730.0,401.5 762.5,351.6 795.0,385.3 827.5,350.5 860.0,370.3" fill="none" stroke="#2f6f9f" stroke-width="1" opacity="0.18"/>
<polyline points="80.0,362.5 112.5,366.6 145.0,377.0 177.5,358.2 210.0,305.2 242.5,324.0 275.0,353.7 307.5,362.6 340.0,331.6 372.5,373.9 405.0,397.9 437.5,361.8 470.0,274.2 502.5,317.6 535.0,369.4 567.5,376.0 600.0,358.3 632.5,379.9 665.0,389.4 697.5,390.6 730.0,356.5 762.5,361.9 795.0,371.2 827.5,401.9 860.0,370.2" fill="none" stroke="#2f6f9f" stroke-width="1" opacity="0.18"/>
<polyline points="80.0,299.1 112.5,335.4 145.0,421.3 177.5,422.0 210.0,372.7 242.5,407.3 275.0,429.8 307.5,418.7 340.0,365.2 372.5,381.5 405.0,403.5 437.5,393.4 470.0,385.6 502.5,361.5 535.0,343.3 567.5,361.7 600.0,326.6 632.5,323.8 665.0,354.1 697.5,338.3 730.0,340.7 762.5,347.2 795.0,385.1 827.5,349.3 860.0,345.7" fill="none" stroke="#2f6f9f" stroke-width="1" opacity="0.18"/>
<polyline points="80.0,300.8 112.5,325.7 145.0,342.2 177.5,404.9 210.0,341.3 242.5,371.5 275.0,298.8 307.5,357.1 340.0,309.0 372.5,349.1 405.0,309.5 437.5,361.5 470.0,304.7 502.5,304.1 535.0,344.1 567.5,381.7 600.0,379.6 632.5,375.9 665.0,359.8 697.5,391.8 730.0,361.9 762.5,342.8 795.0,332.8 827.5,385.7 860.0,322.0" fill="none" stroke="#2f6f9f" stroke-width="1" opacity="0.18"/>
<polyline points="80.0,322.7 112.5,330.5 145.0,348.2 177.5,363.7 210.0,342.9 242.5,295.2 275.0,340.7 307.5,337.5 340.0,348.8 372.5,364.6 405.0,353.0 437.5,349.8 470.0,277.9 502.5,310.6 535.0,308.5 567.5,360.6 600.0,315.4 632.5,315.1 665.0,305.0 697.5,355.8 730.0,325.5 762.5,333.0 795.0,334.0 827.5,367.8 860.0,296.2" fill="none" stroke="#2f6f9f" stroke-width="1" opacity="0.18"/>
<polyline points="80.0,360.4 112.5,354.3 145.0,342.2 177.5,357.0 210.0,343.6 242.5,352.0 275.0,356.4 307.5,354.7 340.0,340.1 372.5,339.8 405.0,385.2 437.5,380.5 470.0,322.5 502.5,329.4 535.0,333.0 567.5,360.1 600.0,331.1 632.5,320.6 665.0,311.8 697.5,326.1 730.0,286.8 762.5,303.6 795.0,300.8 827.5,328.7 860.0,336.7" fill="none" stroke="#2f6f9f" stroke-width="1" opacity="0.18"/>
<polyline points="80.0,346.9 112.5,321.5 145.0,331.0 177.5,319.9 210.0,299.4 242.5,332.5 275.0,303.5 307.5,337.5 340.0,339.3 372.5,348.0 405.0,312.9 437.5,332.0 470.0,293.3 502.5,298.2 535.0,297.5 567.5,324.3 600.0,344.3 632.5,337.2 665.0,378.6 697.5,375.3 730.0,355.1 762.5,357.4 795.0,356.2 827.5,370.3 860.0,370.1" fill="none" stroke="#2f6f9f" stroke-width="1" opacity="0.18"/>
<polyline points="80.0,291.5 112.5,341.2 145.0,328.7 177.5,342.7 210.0,354.5 242.5,333.6 275.0,349.8 307.5,349.5 340.0,341.0 372.5,355.0 405.0,354.8 437.5,339.5 470.0,291.9 502.5,309.8 535.0,303.3 567.5,346.0 600.0,361.5 632.5,331.5 665.0,326.5 697.5,385.4 730.0,369.9 762.5,349.5 795.0,330.0 827.5,324.8 860.0,318.4" fill="none" stroke="#2f6f9f" stroke-width="1" opacity="0.18"/>
<polyline points="80.0,318.4 112.5,318.0 145.0,336.1 177.5,336.5 210.0,368.4 242.5,344.3 275.0,335.1 307.5,336.1 340.0,364.2 372.5,339.8 405.0,332.3 437.5,339.4 470.0,299.5 502.5,269.2 535.0,332.6 567.5,394.1 600.0,391.9 632.5,406.3 665.0,333.6 697.5,317.8 730.0,347.6 762.5,368.6 795.0,359.4 827.5,347.0 860.0,299.4" fill="none" stroke="#2f6f9f" stroke-width="1" opacity="0.18"/>
<polyline points="80.0,245.0 112.5,260.3 145.0,316.5 177.5,307.1 210.0,336.2 242.5,361.3 275.0,333.9 307.5,288.3 340.0,302.6 372.5,275.4 405.0,268.6 437.5,261.0 470.0,244.9 502.5,295.3 535.0,267.1 567.5,272.6 600.0,272.9 632.5,338.5 665.0,252.7 697.5,262.3 730.0,294.0 762.5,285.8 795.0,315.7 827.5,337.9 860.0,327.2" fill="none" stroke="#2f6f9f" stroke-width="1" opacity="0.18"/>
<polyline points="80.0,252.0 112.5,277.3 145.0,284.3 177.5,286.7 210.0,246.9 242.5,266.6 275.0,247.2 307.5,277.3 340.0,261.0 372.5,259.4 405.0,265.2 437.5,264.2 470.0,228.6 502.5,269.1 535.0,246.1 567.5,289.1 600.0,261.8 632.5,267.1 665.0,247.2 697.5,282.7 730.0,251.7 762.5,268.9 795.0,257.0 827.5,269.4 860.0,266.8" fill="none" stroke="#2f6f9f" stroke-width="1" opacity="0.18"/>
<polyline points="80.0,366.0 112.5,384.1 145.0,368.7 177.5,304.4 210.0,284.9 242.5,320.4 275.0,263.0 307.5,316.4 340.0,347.9 372.5,322.8 405.0,341.0 437.5,326.5 470.0,239.4 502.5,282.8 535.0,339.6 567.5,312.6 600.0,363.8 632.5,345.1 665.0,244.8 697.5,265.0 730.0,289.5 762.5,289.2 795.0,304.1 827.5,250.3 860.0,292.4" fill="none" stroke="#2f6f9f" stroke-width="1" opacity="0.18"/>
<polyline points="80.0,348.5 112.5,324.8 145.0,327.1 177.5,313.9 210.0,298.2 242.5,314.5 275.0,289.6 307.5,305.1 340.0,319.3 372.5,360.7 405.0,330.6 437.5,349.9 470.0,280.4 502.5,298.2 535.0,310.0 567.5,272.4 600.0,335.4 632.5,293.8 665.0,326.3 697.5,306.8 730.0,331.4 762.5,317.1 795.0,302.0 827.5,276.6 860.0,335.9" fill="none" stroke="#2f6f9f" stroke-width="1" opacity="0.18"/>
<polyline points="80.0,313.4 112.5,311.8 145.0,323.1 177.5,289.9 210.0,318.6 242.5,309.0 275.0,312.5 307.5,324.5 340.0,316.0 372.5,304.3 405.0,343.6 437.5,330.2 470.0,332.4 502.5,280.2 535.0,305.5 567.5,337.0 600.0,322.1 632.5,342.1 665.0,343.0 697.5,330.1 730.0,317.6 762.5,297.1 795.0,318.1 827.5,325.1 860.0,317.9" fill="none" stroke="#2f6f9f" stroke-width="1" opacity="0.18"/>
<polyline points="80.0,300.1 112.5,307.0 145.0,290.1 177.5,311.5 210.0,302.7 242.5,288.5 275.0,260.2 307.5,264.6 340.0,312.8 372.5,302.7 405.0,301.2 437.5,315.2 470.0,257.5 502.5,291.4 535.0,332.9 567.5,292.2 600.0,286.9 632.5,308.7 665.0,296.8 697.5,320.7 730.0,309.1 762.5,279.3 795.0,262.4 827.5,282.4 860.0,288.9" fill="none" stroke="#2f6f9f" stroke-width="1" opacity="0.18"/>
<polyline points="80.0,394.2 112.5,273.8 145.0,314.4 177.5,265.4 210.0,253.5 242.5,313.1 275.0,363.1 307.5,378.3 340.0,338.1 372.5,276.3 405.0,305.3 437.5,304.4 470.0,256.0 502.5,278.7 535.0,400.1 567.5,354.7 600.0,302.9 632.5,276.4 665.0,370.0 697.5,303.5 730.0,259.5 762.5,277.7 795.0,348.1 827.5,371.3 860.0,269.9" fill="none" stroke="#c46a32" stroke-width="1" opacity="0.18"/>
<polyline points="80.0,292.9 112.5,281.9 145.0,294.0 177.5,301.5 210.0,289.8 242.5,298.4 275.0,288.2 307.5,269.5 340.0,293.3 372.5,297.0 405.0,282.4 437.5,313.1 470.0,277.5 502.5,287.1 535.0,295.1 567.5,269.0 600.0,277.7 632.5,323.1 665.0,276.6 697.5,271.6 730.0,277.0 762.5,309.9 795.0,287.2 827.5,292.9 860.0,279.8" fill="none" stroke="#c46a32" stroke-width="1" opacity="0.18"/>
<polyline points="80.0,320.6 112.5,315.1 145.0,276.6 177.5,315.0 210.0,326.7 242.5,279.3 275.0,330.3 307.5,311.8 340.0,335.3 372.5,289.5 405.0,314.7 437.5,312.0 470.0,272.1 502.5,327.6 535.0,342.0 567.5,316.8 600.0,299.7 632.5,309.0 665.0,310.6 697.5,274.4 730.0,325.2 762.5,310.9 795.0,312.9 827.5,324.1 860.0,327.4" fill="none" stroke="#c46a32" stroke-width="1" opacity="0.18"/>
<polyline points="80.0,301.9 112.5,319.1 145.0,309.8 177.5,342.3 210.0,289.9 242.5,320.1 275.0,316.3 307.5,287.4 340.0,356.1 372.5,321.6 405.0,300.3 437.5,326.5 470.0,254.3 502.5,298.9 535.0,333.2 567.5,324.2 600.0,296.6 632.5,305.4 665.0,331.2 697.5,314.7 730.0,294.7 762.5,353.2 795.0,316.3 827.5,285.5 860.0,293.4" fill="none" stroke="#c46a32" stroke-width="1" opacity="0.18"/>
<polyline points="80.0,273.6 112.5,307.3 145.0,340.4 177.5,317.8 210.0,320.3 242.5,287.3 275.0,307.2 307.5,278.2 340.0,341.8 372.5,351.8 405.0,301.5 437.5,295.1 470.0,277.4 502.5,306.8 535.0,358.4 567.5,297.2 600.0,314.9 632.5,324.5 665.0,292.1 697.5,339.4 730.0,302.6 762.5,319.8 795.0,275.2 827.5,300.4 860.0,310.2" fill="none" stroke="#c46a32" stroke-width="1" opacity="0.18"/>
<polyline points="80.0,320.8 112.5,319.5 145.0,310.0 177.5,317.3 210.0,343.2 242.5,331.2 275.0,331.1 307.5,297.0 340.0,316.0 372.5,346.0 405.0,320.9 437.5,359.1 470.0,270.1 502.5,289.8 535.0,322.6 567.5,324.3 600.0,330.4 632.5,261.9 665.0,305.6 697.5,305.3 730.0,300.9 762.5,315.1 795.0,269.9 827.5,281.7 860.0,314.2" fill="none" stroke="#c46a32" stroke-width="1" opacity="0.18"/>
<polyline points="80.0,315.0 112.5,300.6 145.0,358.5 177.5,302.2 210.0,256.8 242.5,283.8 275.0,291.6 307.5,306.5 340.0,319.1 372.5,339.7 405.0,381.9 437.5,316.4 470.0,269.7 502.5,287.0 535.0,305.6 567.5,336.5 600.0,303.8 632.5,321.6 665.0,351.0 697.5,334.9 730.0,297.0 762.5,283.8 795.0,274.3 827.5,353.0 860.0,298.2" fill="none" stroke="#c46a32" stroke-width="1" opacity="0.18"/>
<polyline points="80.0,302.9 112.5,278.0 145.0,280.5 177.5,286.6 210.0,318.8 242.5,303.4 275.0,278.8 307.5,324.3 340.0,284.6 372.5,311.5 405.0,312.3 437.5,282.8 470.0,244.7 502.5,304.2 535.0,320.2 567.5,308.8 600.0,298.2 632.5,294.6 665.0,311.7 697.5,281.2 730.0,292.1 762.5,295.0 795.0,261.8 827.5,314.6 860.0,286.5" fill="none" stroke="#c46a32" stroke-width="1" opacity="0.18"/>
<polyline points="80.0,283.4 112.5,275.4 145.0,288.9 177.5,291.3 210.0,272.0 242.5,312.3 275.0,293.2 307.5,280.2 340.0,343.4 372.5,330.3 405.0,325.0 437.5,339.1 470.0,273.1 502.5,268.9 535.0,261.8 567.5,287.8 600.0,285.2 632.5,307.6 665.0,284.9 697.5,275.8 730.0,324.6 762.5,339.8 795.0,295.9 827.5,275.8 860.0,288.0" fill="none" stroke="#c46a32" stroke-width="1" opacity="0.18"/>
<polyline points="80.0,262.8 112.5,291.9 145.0,322.6 177.5,278.7 210.0,292.6 242.5,335.9 275.0,321.8 307.5,303.2 340.0,260.9 372.5,247.0 405.0,243.1 437.5,291.3 470.0,281.5 502.5,282.0 535.0,339.0 567.5,278.2 600.0,294.4 632.5,346.4 665.0,304.1 697.5,291.9 730.0,266.6 762.5,279.9 795.0,257.2 827.5,255.6 860.0,300.9" fill="none" stroke="#c46a32" stroke-width="1" opacity="0.18"/>
<polyline points="80.0,332.2 112.5,281.8 145.0,297.5 177.5,247.8 210.0,276.1 242.5,337.3 275.0,267.9 307.5,273.5 340.0,269.5 372.5,322.8 405.0,281.9 437.5,297.5 470.0,247.8 502.5,275.3 535.0,340.9 567.5,266.9 600.0,269.2 632.5,258.1 665.0,333.6 697.5,282.0 730.0,309.6 762.5,254.8 795.0,277.3 827.5,323.4 860.0,265.5" fill="none" stroke="#c46a32" stroke-width="1" opacity="0.18"/>
<polyline points="80.0,285.7 112.5,281.4 145.0,267.5 177.5,274.7 210.0,333.3 242.5,304.5 275.0,376.6 307.5,389.9 340.0,288.4 372.5,289.2 405.0,250.2 437.5,271.7 470.0,218.1 502.5,292.5 535.0,391.3 567.5,322.2 600.0,387.2 632.5,298.3 665.0,281.1 697.5,262.1 730.0,270.8 762.5,267.8 795.0,308.4 827.5,335.3 860.0,362.8" fill="none" stroke="#c46a32" stroke-width="1" opacity="0.18"/>
<polyline points="80.0,301.5 112.5,306.3 145.0,267.4 177.5,313.1 210.0,262.4 242.5,252.3 275.0,331.7 307.5,378.6 340.0,364.5 372.5,311.9 405.0,304.2 437.5,344.9 470.0,275.6 502.5,269.6 535.0,265.3 567.5,267.6 600.0,299.0 632.5,350.1 665.0,330.4 697.5,297.3 730.0,285.3 762.5,332.1 795.0,262.6 827.5,273.0 860.0,262.3" fill="none" stroke="#c46a32" stroke-width="1" opacity="0.18"/>
<polyline points="80.0,318.3 112.5,325.1 145.0,324.4 177.5,307.7 210.0,318.7 242.5,316.5 275.0,317.2 307.5,286.9 340.0,327.6 372.5,296.7 405.0,310.8 437.5,318.2 470.0,300.0 502.5,324.1 535.0,306.7 567.5,309.7 600.0,299.0 632.5,272.1 665.0,325.7 697.5,297.0 730.0,335.2 762.5,297.6 795.0,299.2 827.5,337.9 860.0,320.2" fill="none" stroke="#c46a32" stroke-width="1" opacity="0.18"/>
<polyline points="80.0,278.0 112.5,277.2 145.0,306.7 177.5,305.5 210.0,316.3 242.5,314.1 275.0,309.6 307.5,275.5 340.0,326.5 372.5,362.1 405.0,391.2 437.5,321.3 470.0,257.2 502.5,281.6 535.0,318.3 567.5,281.6 600.0,280.9 632.5,278.6 665.0,275.3 697.5,289.4 730.0,334.1 762.5,335.7 795.0,364.7 827.5,313.8 860.0,313.3" fill="none" stroke="#c46a32" stroke-width="1" opacity="0.18"/>
<polyline points="80.0,300.3 112.5,310.1 145.0,298.6 177.5,278.6 210.0,290.7 242.5,318.2 275.0,285.8 307.5,280.0 340.0,270.4 372.5,289.6 405.0,349.2 437.5,302.1 470.0,257.5 502.5,309.6 535.0,307.3 567.5,274.0 600.0,288.4 632.5,278.5 665.0,285.5 697.5,345.1 730.0,285.2 762.5,280.7 795.0,316.6 827.5,294.6 860.0,275.5" fill="none" stroke="#c46a32" stroke-width="1" opacity="0.18"/>
<polyline points="80.0,337.1 112.5,282.7 145.0,262.0 177.5,230.2 210.0,122.0 242.5,287.1 275.0,296.4 307.5,338.4 340.0,281.4 372.5,248.2 405.0,375.2 437.5,282.9 470.0,255.1 502.5,230.2 535.0,181.5 567.5,285.1 600.0,251.0 632.5,319.7 665.0,344.0 697.5,261.4 730.0,341.7 762.5,250.8 795.0,268.1 827.5,285.1 860.0,220.8" fill="none" stroke="#c46a32" stroke-width="1" opacity="0.18"/>
<polyline points="80.0,267.9 112.5,290.8 145.0,271.4 177.5,249.1 210.0,292.8 242.5,258.3 275.0,221.2 307.5,304.2 340.0,249.6 372.5,277.1 405.0,288.2 437.5,244.9 470.0,276.4 502.5,259.2 535.0,301.3 567.5,280.2 600.0,307.3 632.5,281.1 665.0,263.2 697.5,258.7 730.0,258.3 762.5,302.0 795.0,276.9 827.5,300.7 860.0,257.8" fill="none" stroke="#c46a32" stroke-width="1" opacity="0.18"/>
<polyline points="80.0,259.8 112.5,246.6 145.0,253.0 177.5,200.1 210.0,303.4 242.5,248.7 275.0,244.0 307.5,196.4 340.0,276.0 372.5,296.3 405.0,268.2 437.5,289.9 470.0,282.7 502.5,266.2 535.0,276.0 567.5,237.6 600.0,244.0 632.5,196.4 665.0,276.0 697.5,285.9 730.0,257.9 762.5,205.7 795.0,302.3 827.5,290.0 860.0,271.6" fill="none" stroke="#c46a32" stroke-width="1" opacity="0.18"/>
<polyline points="80.0,279.6 112.5,257.2 145.0,82.0 177.5,362.6 210.0,207.7 242.5,269.1 275.0,269.3 307.5,303.8 340.0,358.3 372.5,282.7 405.0,281.9 437.5,276.7 470.0,283.5 502.5,269.1 535.0,269.3 567.5,323.5 600.0,239.7 632.5,276.7 665.0,280.3 697.5,327.8 730.0,416.7 762.5,271.6 795.0,82.0 827.5,218.3 860.0,280.3" fill="none" stroke="#c46a32" stroke-width="1" opacity="0.18"/>
<polyline points="80.0,279.4 112.5,328.1 145.0,337.8 177.5,315.6 210.0,288.2 242.5,290.6 275.0,270.1 307.5,300.4 340.0,304.6 372.5,310.3 405.0,312.6 437.5,299.2 470.0,281.9 502.5,281.5 535.0,346.1 567.5,413.6 600.0,278.1 632.5,281.4 665.0,320.3 697.5,350.5 730.0,308.2 762.5,277.5 795.0,273.9 827.5,295.4 860.0,310.2" fill="none" stroke="#c46a32" stroke-width="1" opacity="0.18"/>
<polyline points="80.0,372.4 112.5,314.7 145.0,280.2 177.5,270.7 210.0,255.6 242.5,271.8 275.0,306.2 307.5,244.4 340.0,212.4 372.5,302.3 405.0,297.5 437.5,279.4 470.0,219.9 502.5,318.6 535.0,275.6 567.5,307.1 600.0,338.3 632.5,267.6 665.0,289.7 697.5,347.1 730.0,265.0 762.5,264.3 795.0,317.2 827.5,255.9 860.0,248.9" fill="none" stroke="#c46a32" stroke-width="1" opacity="0.18"/>
<polyline points="80.0,314.0 112.5,305.8 145.0,319.6 177.5,323.5 210.0,283.7 242.5,307.0 275.0,310.6 307.5,345.4 340.0,303.4 372.5,313.2 405.0,323.4 437.5,321.6 470.0,264.3 502.5,273.5 535.0,348.5 567.5,276.6 600.0,292.3 632.5,294.2 665.0,304.4 697.5,311.1 730.0,323.1 762.5,352.4 795.0,306.8 827.5,320.3 860.0,289.2" fill="none" stroke="#c46a32" stroke-width="1" opacity="0.18"/>
<polyline points="80.0,320.5 112.5,371.3 145.0,308.2 177.5,317.6 210.0,331.1 242.5,272.8 275.0,294.4 307.5,317.2 340.0,299.8 372.5,316.1 405.0,273.7 437.5,289.0 470.0,286.8 502.5,287.2 535.0,371.1 567.5,319.4 600.0,382.0 632.5,299.0 665.0,338.7 697.5,276.7 730.0,270.0 762.5,338.6 795.0,322.0 827.5,278.9 860.0,283.8" fill="none" stroke="#c46a32" stroke-width="1" opacity="0.18"/>
<polyline points="80.0,338.9 112.5,280.2 145.0,300.7 177.5,271.4 210.0,300.7 242.5,296.6 275.0,322.5 307.5,277.2 340.0,347.5 372.5,289.9 405.0,277.3 437.5,343.5 470.0,275.7 502.5,276.0 535.0,339.6 567.5,280.7 600.0,294.8 632.5,278.6 665.0,305.9 697.5,269.1 730.0,374.3 762.5,271.8 795.0,301.3 827.5,353.6 860.0,272.3" fill="none" stroke="#c46a32" stroke-width="1" opacity="0.18"/>
<polyline points="80.0,319.5 112.5,274.9 145.0,295.4 177.5,322.2 210.0,369.0 242.5,353.5 275.0,298.8 307.5,338.3 340.0,325.6 372.5,299.4 405.0,322.0 437.5,321.9 470.0,271.1 502.5,316.9 535.0,335.7 567.5,333.4 600.0,384.6 632.5,331.3 665.0,273.4 697.5,296.7 730.0,342.1 762.5,285.0 795.0,368.4 827.5,330.9 860.0,339.5" fill="none" stroke="#c46a32" stroke-width="1" opacity="0.18"/>
<polyline points="80.0,303.2 112.5,319.7 145.0,329.1 177.5,324.3 210.0,319.5 242.5,364.7 275.0,276.4 307.5,352.9 340.0,327.4 372.5,347.5 405.0,350.2 437.5,360.4 470.0,329.2 502.5,315.1 535.0,278.1 567.5,370.7 600.0,369.6 632.5,401.0 665.0,309.4 697.5,362.1 730.0,379.9 762.5,402.3 795.0,368.0 827.5,425.4 860.0,305.5" fill="none" stroke="#c46a32" stroke-width="1" opacity="0.18"/>
<polyline points="80.0,278.5 112.5,264.2 145.0,284.9 177.5,314.7 210.0,302.2 242.5,280.5 275.0,276.3 307.5,317.0 340.0,277.0 372.5,275.4 405.0,302.2 437.5,262.7 470.0,240.5 502.5,213.9 535.0,297.7 567.5,271.2 600.0,310.2 632.5,298.6 665.0,273.7 697.5,381.2 730.0,281.2 762.5,272.4 795.0,325.8 827.5,281.5 860.0,278.2" fill="none" stroke="#c46a32" stroke-width="1" opacity="0.18"/>
<polyline points="80.0,274.0 112.5,261.4 145.0,268.1 177.5,284.6 210.0,278.9 242.5,271.3 275.0,267.5 307.5,295.3 340.0,263.5 372.5,266.7 405.0,270.1 437.5,247.2 470.0,259.8 502.5,270.1 535.0,290.4 567.5,272.8 600.0,273.1 632.5,288.1 665.0,270.2 697.5,259.5 730.0,294.7 762.5,266.4 795.0,263.8 827.5,282.6 860.0,256.0" fill="none" stroke="#c46a32" stroke-width="1" opacity="0.18"/>
<polyline points="80.0,365.4 112.5,275.4 145.0,270.4 177.5,305.9 210.0,333.6 242.5,301.2 275.0,322.3 307.5,295.3 340.0,356.4 372.5,378.3 405.0,367.0 437.5,352.3 470.0,300.6 502.5,277.0 535.0,270.0 567.5,324.4 600.0,285.8 632.5,332.4 665.0,299.9 697.5,327.9 730.0,335.1 762.5,288.6 795.0,317.0 827.5,316.8 860.0,272.2" fill="none" stroke="#c46a32" stroke-width="1" opacity="0.18"/>
<polyline points="80.0,345.6 112.5,294.8 145.0,270.4 177.5,347.3 210.0,277.9 242.5,297.6 275.0,331.2 307.5,296.5 340.0,260.9 372.5,339.3 405.0,288.5 437.5,287.7 470.0,307.4 502.5,292.8 535.0,268.5 567.5,348.1 600.0,309.8 632.5,279.0 665.0,258.9 697.5,314.5 730.0,278.7 762.5,338.2 795.0,314.8 827.5,272.8 860.0,285.7" fill="none" stroke="#c46a32" stroke-width="1" opacity="0.18"/>
<polyline points="80.0,319.3 112.5,308.3 145.0,288.4 177.5,314.9 210.0,312.4 242.5,332.8 275.0,288.4 307.5,287.9 340.0,289.1 372.5,347.1 405.0,309.7 437.5,301.0 470.0,264.7 502.5,293.9 535.0,355.2 567.5,309.0 600.0,298.8 632.5,332.7 665.0,300.7 697.5,291.4 730.0,312.8 762.5,296.6 795.0,325.1 827.5,338.3 860.0,310.5" fill="none" stroke="#c46a32" stroke-width="1" opacity="0.18"/>
<polyline points="80.0,229.2 112.5,237.2 145.0,233.2 177.5,247.6 210.0,243.4 242.5,245.9 275.0,239.3 307.5,250.2 340.0,256.2 372.5,358.3 405.0,283.5 437.5,254.0 470.0,281.5 502.5,264.7 535.0,296.9 567.5,264.8 600.0,281.2 632.5,262.5 665.0,236.2 697.5,339.5 730.0,246.5 762.5,310.8 795.0,274.4 827.5,236.9 860.0,255.7" fill="none" stroke="#c46a32" stroke-width="1" opacity="0.18"/>
<polyline points="80.0,286.2 112.5,301.0 145.0,386.9 177.5,316.5 210.0,333.6 242.5,292.1 275.0,303.2 307.5,299.1 340.0,328.0 372.5,350.9 405.0,354.0 437.5,316.0 470.0,254.5 502.5,294.0 535.0,355.9 567.5,329.7 600.0,373.9 632.5,339.1 665.0,302.3 697.5,312.4 730.0,325.3 762.5,334.5 795.0,341.6 827.5,272.0 860.0,307.1" fill="none" stroke="#c46a32" stroke-width="1" opacity="0.18"/>
<polyline points="80.0,252.2 112.5,239.8 145.0,270.5 177.5,274.9 210.0,263.0 242.5,280.1 275.0,277.0 307.5,274.4 340.0,315.4 372.5,299.2 405.0,236.9 437.5,276.4 470.0,234.7 502.5,218.0 535.0,273.8 567.5,290.2 600.0,309.5 632.5,274.3 665.0,271.2 697.5,281.6 730.0,270.8 762.5,304.6 795.0,268.2 827.5,260.3 860.0,268.6" fill="none" stroke="#c46a32" stroke-width="1" opacity="0.18"/>
<polyline points="80.0,313.1 112.5,302.2 145.0,304.4 177.5,322.7 210.0,330.6 242.5,275.7 275.0,278.5 307.5,318.3 340.0,318.7 372.5,270.8 405.0,335.5 437.5,327.2 470.0,293.6 502.5,319.3 535.0,322.3 567.5,360.0 600.0,289.5 632.5,290.9 665.0,301.8 697.5,285.6 730.0,314.0 762.5,317.0 795.0,288.5 827.5,326.7 860.0,284.9" fill="none" stroke="#c46a32" stroke-width="1" opacity="0.18"/>
<polyline points="80.0,316.0 112.5,284.0 145.0,349.9 177.5,302.4 210.0,294.4 242.5,276.8 275.0,356.1 307.5,323.7 340.0,373.2 372.5,252.9 405.0,303.5 437.5,342.4 470.0,263.5 502.5,327.9 535.0,299.9 567.5,366.8 600.0,358.4 632.5,343.5 665.0,287.5 697.5,291.9 730.0,309.4 762.5,316.5 795.0,313.5 827.5,295.2 860.0,361.9" fill="none" stroke="#c46a32" stroke-width="1" opacity="0.18"/>
<polyline points="80.0,313.8 112.5,315.7 145.0,320.1 177.5,325.3 210.0,318.0 242.5,323.1 275.0,319.3 307.5,325.7 340.0,324.9 372.5,322.4 405.0,318.2 437.5,326.1 470.0,292.9 502.5,290.4 535.0,308.6 567.5,320.9 600.0,320.7 632.5,329.3 665.0,323.4 697.5,323.7 730.0,320.2 762.5,324.2 795.0,317.3 827.5,326.5 860.0,316.4" fill="none" stroke="#2f6f9f" stroke-width="4"/>
<polyline points="80.0,307.2 112.5,298.0 145.0,302.8 177.5,303.5 210.0,300.1 242.5,299.2 275.0,304.4 307.5,302.6 340.0,313.0 372.5,310.9 405.0,313.0 437.5,308.9 470.0,268.8 502.5,293.2 535.0,320.6 567.5,309.0 600.0,304.5 632.5,302.7 665.0,304.5 697.5,303.0 730.0,303.2 762.5,306.2 795.0,300.5 827.5,306.8 860.0,295.9" fill="none" stroke="#c46a32" stroke-width="4"/>
<line x1="880" y1="100" x2="908" y2="100" stroke="#2f6f9f" stroke-width="4"/>
<text class="small" x="916" y="104">DCML classical</text>
<line x1="880" y1="126" x2="908" y2="126" stroke="#c46a32" stroke-width="4"/>
<text class="small" x="916" y="130">JTC jazz</text>
</svg>
