<svg xmlns="http://www.w3.org/2000/svg" width="980" height="540" viewBox="0 0 980 540">
  <rect width="100%" height="100%" fill="#fbfaf7"/>
  <style>
    text { font-family: Arial, Helvetica, sans-serif; fill: #1d252c; }
    .title { font-size: 21px; font-weight: 700; }
    .label { font-size: 13px; }
    .small { font-size: 11px; fill: #52606d; }
    .axis { stroke: #9aa5b1; stroke-width: 1; }
  </style>
<text class="title" x="70" y="38">RQ2 high states, peaks, and changepoints near boundaries</text>
<line class="axis" x1="80" y1="460" x2="860" y2="460"/>
<line class="axis" x1="80" y1="70" x2="80" y2="460"/>
<line x1="470.0" y1="70" x2="470.0" y2="460" stroke="#333" stroke-width="1.4" stroke-dasharray="5 5"/>
<text class="label" x="380" y="505">Event position relative to boundary</text>
<text class="label" transform="translate(24 330) rotate(-90)">Event rate</text>
<text class="small" x="650" y="88">solid=high state, dashed=peak, dotted=changepoint</text>
<polyline points="80.0,254.5 112.5,269.4 145.0,286.2 177.5,295.6 210.0,262.9 242.5,297.4 275.0,264.7 307.5,310.5 340.0,328.3 372.5,265.7 405.0,280.6 437.5,337.6 470.0,148.9 502.5,272.2 535.0,334.8 567.5,291.8 600.0,295.6 632.5,329.2 665.0,290.0 697.5,302.1 730.0,277.8 762.5,304.9 795.0,262.9 827.5,308.7 860.0,257.3" fill="none" stroke="#2f6f9f" stroke-width="3" opacity="0.85"/>
<polyline points="80.0,277.8 112.5,287.2 145.0,301.2 177.5,316.1 210.0,283.4 242.5,316.1 275.0,282.5 307.5,328.3 340.0,341.4 372.5,281.6 405.0,295.6 437.5,353.5 470.0,173.2 502.5,298.4 535.0,351.6 567.5,311.5 600.0,313.3 632.5,341.4 665.0,307.7 697.5,309.6 730.0,298.4 762.5,317.1 795.0,289.0 827.5,328.3 860.0,282.5" fill="none" stroke="#2f6f9f" stroke-width="3" opacity="0.85" stroke-dasharray="6 4"/>
<polyline points="80.0,430.1 112.5,433.8 145.0,434.8 177.5,418.0 210.0,417.0 242.5,425.4 275.0,408.6 307.5,421.7 340.0,423.6 372.5,419.8 405.0,416.1 437.5,402.1 470.0,400.2 502.5,416.1 535.0,415.2 567.5,420.8 600.0,421.7 632.5,437.6 665.0,435.7 697.5,429.2 730.0,433.8 762.5,429.2 795.0,433.8 827.5,440.4 860.0,438.5" fill="none" stroke="#2f6f9f" stroke-width="3" opacity="0.85" stroke-dasharray="2 4"/>
<polyline points="80.0,311.2 112.5,302.5 145.0,289.4 177.5,215.0 210.0,276.2 242.5,276.2 275.0,306.9 307.5,302.5 340.0,293.7 372.5,363.7 405.0,293.7 437.5,346.2 470.0,105.6 502.5,381.2 535.0,210.6 567.5,298.1 600.0,368.1 632.5,315.6 665.0,341.9 697.5,320.0 730.0,315.6 762.5,166.9 795.0,337.5 827.5,250.0 860.0,311.2" fill="none" stroke="#c46a32" stroke-width="3" opacity="0.85"/>
<polyline points="80.0,337.5 112.5,306.9 145.0,341.9 177.5,241.2 210.0,289.4 242.5,293.7 275.0,341.9 307.5,315.6 340.0,306.9 372.5,363.7 405.0,350.6 437.5,390.0 470.0,118.7 502.5,385.6 535.0,228.1 567.5,315.6 600.0,425.0 632.5,315.6 665.0,355.0 697.5,350.6 730.0,359.4 762.5,166.9 795.0,363.7 827.5,254.4 860.0,337.5" fill="none" stroke="#c46a32" stroke-width="3" opacity="0.85" stroke-dasharray="6 4"/>
<polyline points="80.0,411.9 112.5,442.5 145.0,411.9 177.5,433.7 210.0,416.2 242.5,403.1 275.0,411.9 307.5,425.0 340.0,363.7 372.5,411.9 405.0,420.6 437.5,425.0 470.0,398.7 502.5,438.1 535.0,446.9 567.5,385.6 600.0,416.2 632.5,376.9 665.0,394.4 697.5,425.0 730.0,420.6 762.5,425.0 795.0,403.1 827.5,394.4 860.0,429.4" fill="none" stroke="#c46a32" stroke-width="3" opacity="0.85" stroke-dasharray="2 4"/>
<line x1="880" y1="100" x2="908" y2="100" stroke="#2f6f9f" stroke-width="4"/>
<text class="small" x="916" y="104">DCML classical</text>
<line x1="880" y1="126" x2="908" y2="126" stroke="#c46a32" stroke-width="4"/>
<text class="small" x="916" y="130">JTC jazz</text>
</svg>
