<svg xmlns="http://www.w3.org/2000/svg" width="980" height="560" viewBox="0 0 980 560">
  <rect width="100%" height="100%" fill="#fbfaf7"/>
  <style>
    text { font-family: Arial, Helvetica, sans-serif; fill: #1d252c; }
    .title { font-size: 21px; font-weight: 700; }
    .label { font-size: 13px; }
    .small { font-size: 11px; fill: #52606d; }
    .axis { stroke: #9aa5b1; stroke-width: 1; }
  </style>
<text class="title" x="70" y="38">RQ2 boundary-aligned surprisal profile</text>
<line class="axis" x1="80" y1="480" x2="860" y2="480"/>
<line class="axis" x1="80" y1="70" x2="80" y2="480"/>
<line x1="470.0" y1="70" x2="470.0" y2="480" stroke="#333" stroke-width="1.4" stroke-dasharray="5 5"/>
<text class="label" x="380" y="525">Event position relative to boundary</text>
<text class="label" transform="translate(24 330) rotate(-90)">Surprisal (bits)</text>
<polyline points="80.0,389.5 112.5,394.9 145.0,407.2 177.5,421.6 210.0,401.4 242.5,415.5 275.0,405.0 307.5,422.5 340.0,420.4 372.5,413.4 405.0,401.8 437.5,423.6 470.0,331.7 502.5,324.9 535.0,375.1 567.5,409.4 600.0,408.9 632.5,432.5 665.0,416.4 697.5,417.1 730.0,407.5 762.5,418.5 795.0,399.4 827.5,424.9 860.0,396.8" fill="none" stroke="#2f6f9f" stroke-width="3" opacity="0.95"/>
<polyline points="80.0,371.3 112.5,386.5 145.0,379.6 177.5,380.4 210.0,375.4 242.5,387.9 275.0,375.5 307.5,383.0 340.0,379.7 372.5,379.7 405.0,374.7 437.5,382.6 470.0,321.1 502.5,359.7 535.0,367.9 567.5,372.9 600.0,371.5 632.5,382.9 665.0,381.9 697.5,382.5 730.0,379.1 762.5,379.7 795.0,377.4 827.5,385.1 860.0,368.9" fill="none" stroke="#2f6f9f" stroke-width="3" opacity="0.60" stroke-dasharray="6 4"/>
<polyline points="80.0,314.6 112.5,316.7 145.0,315.1 177.5,317.0 210.0,307.1 242.5,319.2 275.0,314.0 307.5,323.0 340.0,318.7 372.5,316.1 405.0,313.3 437.5,314.6 470.0,277.4 502.5,287.3 535.0,308.6 567.5,318.1 600.0,318.3 632.5,322.5 665.0,328.1 697.5,329.4 730.0,319.6 762.5,327.8 795.0,314.5 827.5,321.8 860.0,315.4" fill="none" stroke="#2f6f9f" stroke-width="3" opacity="0.60" stroke-dasharray="2 4"/>
<polyline points="80.0,371.4 112.5,346.0 145.0,359.1 177.5,361.0 210.0,351.8 242.5,349.2 275.0,363.5 307.5,358.5 340.0,387.5 372.5,381.7 405.0,387.5 437.5,376.2 470.0,265.0 502.5,332.5 535.0,408.6 567.5,376.3 600.0,363.9 632.5,358.9 665.0,363.8 697.5,359.6 730.0,360.4 762.5,368.7 795.0,352.8 827.5,370.1 860.0,340.0" fill="none" stroke="#c46a32" stroke-width="3" opacity="0.95"/>
<polyline points="80.0,411.9 112.5,372.1 145.0,391.0 177.5,389.8 210.0,392.5 242.5,408.9 275.0,432.5 307.5,418.6 340.0,406.0 372.5,443.7 405.0,425.1 437.5,444.2 470.0,96.6 502.5,414.1 535.0,436.5 567.5,425.1 600.0,453.4 632.5,423.9 665.0,406.8 697.5,405.8 730.0,403.8 762.5,384.1 795.0,397.3 827.5,399.7 860.0,393.8" fill="none" stroke="#c46a32" stroke-width="3" opacity="0.60" stroke-dasharray="6 4"/>
<polyline points="80.0,349.5 112.5,321.0 145.0,355.0 177.5,341.7 210.0,347.6 242.5,354.1 275.0,343.7 307.5,370.1 340.0,344.8 372.5,366.0 405.0,356.7 437.5,335.8 470.0,275.8 502.5,331.8 535.0,408.3 567.5,356.2 600.0,372.8 632.5,352.1 665.0,339.7 697.5,336.6 730.0,357.6 762.5,348.8 795.0,354.2 827.5,348.3 860.0,340.2" fill="none" stroke="#c46a32" stroke-width="3" opacity="0.60" stroke-dasharray="2 4"/>
<line x1="880" y1="100" x2="908" y2="100" stroke="#2f6f9f" stroke-width="4"/>
<text class="small" x="916" y="104">DCML classical</text>
<line x1="880" y1="126" x2="908" y2="126" stroke="#c46a32" stroke-width="4"/>
<text class="small" x="916" y="130">JTC jazz</text>
</svg>
