<svg xmlns="http://www.w3.org/2000/svg" width="980" height="550" viewBox="0 0 980 550">
  <rect width="100%" height="100%" fill="#fbfaf7"/>
  <style>
    text { font-family: Arial, Helvetica, sans-serif; fill: #1d252c; }
    .title { font-size: 21px; font-weight: 700; }
    .label { font-size: 13px; }
    .small { font-size: 11px; fill: #52606d; }
    .axis { stroke: #9aa5b1; stroke-width: 1; }
  </style>
<text class="title" x="70" y="38">DCML period boundary effects</text>
<line class="axis" x1="320" y1="490" x2="900" y2="490"/>
<line class="axis" x1="610.0" y1="65" x2="610.0" y2="490"/>
<text class="small" x="610" y="88">positive = Romantic higher than Classical</text>
<text class="small" x="25" y="90.2">boundary_local_variance_lift_vs_far</text>
<rect x="357.8" y="76.2" width="252.2" height="20" fill="#2f6f9f" rx="2"/>
<text class="small" x="313.8" y="90.2">-0.52</text>
<text class="small" x="25" y="132.8">boundary_value</text>
<rect x="610.0" y="118.8" width="223.6" height="20" fill="#b84a6b" rx="2"/>
<text class="small" x="841.6" y="132.8">0.47</text>
<text class="small" x="25" y="175.2">changepoint_boundary_enrichment</text>
<rect x="397.3" y="161.2" width="212.7" height="20" fill="#2f6f9f" rx="2"/>
<text class="small" x="353.3" y="175.2">-0.44</text>
<text class="small" x="25" y="217.8">normalized_boundary_z</text>
<rect x="420.8" y="203.8" width="189.2" height="20" fill="#2f6f9f" rx="2"/>
<text class="small" x="376.8" y="217.8">-0.39</text>
<text class="small" x="25" y="260.2">boundary_curve_range</text>
<rect x="610.0" y="246.2" width="183.4" height="20" fill="#b84a6b" rx="2"/>
<text class="small" x="801.4" y="260.2">0.38</text>
<text class="small" x="25" y="302.8">boundary_lift_vs_shuffled</text>
<rect x="610.0" y="288.8" width="161.4" height="20" fill="#b84a6b" rx="2"/>
<text class="small" x="779.4" y="302.8">0.34</text>
<text class="small" x="25" y="345.2">peak_boundary_enrichment</text>
<rect x="471.9" y="331.2" width="138.1" height="20" fill="#2f6f9f" rx="2"/>
<text class="small" x="427.9" y="345.2">-0.29</text>
<text class="small" x="25" y="387.8">boundary_core_lift_vs_far</text>
<rect x="485.0" y="373.8" width="125.0" height="20" fill="#2f6f9f" rx="2"/>
<text class="small" x="441.0" y="387.8">-0.26</text>
<text class="small" x="25" y="430.2">high_event_boundary_enrichment</text>
<rect x="490.9" y="416.2" width="119.1" height="20" fill="#2f6f9f" rx="2"/>
<text class="small" x="446.9" y="430.2">-0.25</text>
<text class="small" x="25" y="472.8">boundary_lift_vs_unigram</text>
<rect x="521.5" y="458.8" width="88.5" height="20" fill="#2f6f9f" rx="2"/>
<text class="small" x="477.5" y="472.8">-0.18</text>
</svg>
