<svg xmlns="http://www.w3.org/2000/svg" width="980" height="540" viewBox="0 0 980 540">
  <rect width="100%" height="100%" fill="#fbfaf7"/>
  <style>
    text { font-family: Arial, Helvetica, sans-serif; fill: #1d252c; }
    .title { font-size: 21px; font-weight: 700; }
    .label { font-size: 13px; }
    .small { font-size: 11px; fill: #52606d; }
    .axis { stroke: #9aa5b1; stroke-width: 1; }
  </style>
<text class="title" x="70" y="38">DCML period high states, peaks, and changepoints</text>
<line class="axis" x1="80" y1="460" x2="815" y2="460"/>
<line class="axis" x1="80" y1="70" x2="80" y2="460"/>
<line x1="447.5" y1="70" x2="447.5" y2="460" stroke="#333" stroke-width="1.4" stroke-dasharray="5 5"/>
<text class="label" x="380" y="505">Event position relative to boundary</text>
<text class="label" transform="translate(24 330) rotate(-90)">Event rate</text>
<text class="small" x="580" y="88">solid=high state, dashed=peak, dotted=changepoint</text>
<polyline points="80.0,257.8 110.6,281.0 141.2,284.6 171.9,297.1 202.5,281.0 233.1,302.5 263.8,239.9 294.4,332.9 325.0,306.1 355.6,264.9 386.2,298.9 416.9,347.3 447.5,105.6 478.1,284.6 508.8,345.5 539.4,302.5 570.0,266.7 600.6,341.9 631.2,315.0 661.9,334.7 692.5,272.1 723.1,329.4 753.8,311.5 784.4,336.5 815.0,263.1" fill="none" stroke="#2f6f9f" stroke-width="3" opacity="0.85"/>
<polyline points="80.0,279.2 110.6,302.5 141.2,306.1 171.9,324.0 202.5,306.1 233.1,325.8 263.8,273.9 294.4,356.2 325.0,320.4 355.6,282.8 386.2,309.7 416.9,354.4 447.5,134.3 478.1,311.5 508.8,365.1 539.4,316.8 570.0,284.6 600.6,358.0 631.2,327.6 661.9,340.1 692.5,286.4 723.1,338.3 753.8,322.2 784.4,350.8 815.0,286.4" fill="none" stroke="#2f6f9f" stroke-width="3" opacity="0.85" stroke-dasharray="6 4"/>
<polyline points="80.0,431.4 110.6,438.5 141.2,434.9 171.9,422.4 202.5,418.8 233.1,433.2 263.8,408.1 294.4,415.3 325.0,436.7 355.6,418.8 386.2,400.9 416.9,392.0 447.5,399.2 478.1,426.0 508.8,402.7 539.4,426.0 570.0,424.2 600.6,429.6 631.2,440.3 661.9,431.4 692.5,431.4 723.1,436.7 753.8,445.7 784.4,440.3 815.0,440.3" fill="none" stroke="#2f6f9f" stroke-width="3" opacity="0.85" stroke-dasharray="2 4"/>
<polyline points="80.0,263.9 110.6,239.1 141.2,286.2 171.9,333.4 202.5,261.4 233.1,296.2 263.8,296.2 294.4,286.2 325.0,353.2 355.6,298.6 386.2,291.2 416.9,368.1 447.5,182.0 478.1,316.0 508.8,343.3 539.4,251.5 570.0,335.9 600.6,323.5 631.2,268.8 661.9,263.9 692.5,288.7 723.1,278.8 753.8,229.1 784.4,271.3 815.0,241.5" fill="none" stroke="#b84a6b" stroke-width="3" opacity="0.85"/>
<polyline points="80.0,291.2 110.6,256.4 141.2,303.6 171.9,335.9 202.5,281.3 233.1,308.6 263.8,311.0 294.4,298.6 325.0,363.2 355.6,303.6 386.2,313.5 416.9,378.1 447.5,206.8 478.1,345.8 508.8,355.7 539.4,278.8 570.0,353.2 600.6,333.4 631.2,288.7 661.9,276.3 692.5,321.0 723.1,301.1 753.8,266.4 784.4,301.1 815.0,281.3" fill="none" stroke="#b84a6b" stroke-width="3" opacity="0.85" stroke-dasharray="6 4"/>
<polyline points="80.0,432.7 110.6,442.6 141.2,420.3 171.9,420.3 202.5,410.3 233.1,432.7 263.8,395.5 294.4,425.2 325.0,425.2 355.6,420.3 386.2,415.3 416.9,385.5 447.5,410.3 478.1,422.8 508.8,432.7 539.4,415.3 570.0,422.8 600.6,452.6 631.2,417.8 661.9,427.7 692.5,425.2 723.1,432.7 753.8,432.7 784.4,422.8 815.0,440.1" fill="none" stroke="#b84a6b" stroke-width="3" opacity="0.85" stroke-dasharray="2 4"/>
<line x1="835" y1="100" x2="863" y2="100" stroke="#2f6f9f" stroke-width="4"/>
<text class="small" x="871" y="104">Classical</text>
<line x1="835" y1="126" x2="863" y2="126" stroke="#b84a6b" stroke-width="4"/>
<text class="small" x="871" y="130">Romantic</text>
<line x1="835" y1="152" x2="863" y2="152" stroke="#7a4fb3" stroke-width="4"/>
<text class="small" x="871" y="156">Late</text>
</svg>
