<svg xmlns="http://www.w3.org/2000/svg" width="980" height="550" viewBox="0 0 980 550">
  <rect width="100%" height="100%" fill="#fbfaf7"/>
  <style>
    text { font-family: Arial, Helvetica, sans-serif; fill: #1d252c; }
    .title { font-size: 21px; font-weight: 700; }
    .label { font-size: 13px; }
    .small { font-size: 11px; fill: #52606d; }
    .axis { stroke: #9aa5b1; stroke-width: 1; }
  </style>
<text class="title" x="70" y="38">DCML period time-structure effects</text>
<line class="axis" x1="320" y1="490" x2="900" y2="490"/>
<line class="axis" x1="610.0" y1="65" x2="610.0" y2="490"/>
<text class="small" x="610" y="88">positive = Romantic higher than Classical</text>
<text class="small" x="25" y="90.2">entropy_rate_order2</text>
<rect x="357.8" y="76.2" width="252.2" height="20" fill="#2f6f9f" rx="2"/>
<text class="small" x="313.8" y="90.2">-1.21</text>
<text class="small" x="25" y="132.8">max_local_variance</text>
<rect x="395.2" y="118.8" width="214.8" height="20" fill="#2f6f9f" rx="2"/>
<text class="small" x="351.2" y="132.8">-1.03</text>
<text class="small" x="25" y="175.2">mean_surprisal</text>
<rect x="610.0" y="161.2" width="208.4" height="20" fill="#b84a6b" rx="2"/>
<text class="small" x="826.4" y="175.2">1.00</text>
<text class="small" x="25" y="217.8">sd_surprisal</text>
<rect x="424.3" y="203.8" width="185.7" height="20" fill="#2f6f9f" rx="2"/>
<text class="small" x="380.3" y="217.8">-0.89</text>
<text class="small" x="25" y="260.2">curve_range</text>
<rect x="450.4" y="246.2" width="159.6" height="20" fill="#2f6f9f" rx="2"/>
<text class="small" x="406.4" y="260.2">-0.76</text>
<text class="small" x="25" y="302.8">entropy_rate_order1</text>
<rect x="498.3" y="288.8" width="111.7" height="20" fill="#2f6f9f" rx="2"/>
<text class="small" x="454.3" y="302.8">-0.54</text>
<text class="small" x="25" y="345.2">mean_local_variance</text>
<rect x="519.8" y="331.2" width="90.2" height="20" fill="#2f6f9f" rx="2"/>
<text class="small" x="475.8" y="345.2">-0.43</text>
<text class="small" x="25" y="387.8">same_state_transition_rate</text>
<rect x="520.1" y="373.8" width="89.9" height="20" fill="#2f6f9f" rx="2"/>
<text class="small" x="476.1" y="387.8">-0.43</text>
<text class="small" x="25" y="430.2">state_entropy</text>
<rect x="528.8" y="416.2" width="81.2" height="20" fill="#2f6f9f" rx="2"/>
<text class="small" x="484.8" y="430.2">-0.39</text>
<text class="small" x="25" y="472.8">changepoint_rate</text>
<rect x="610.0" y="458.8" width="72.8" height="20" fill="#b84a6b" rx="2"/>
<text class="small" x="690.8" y="472.8">0.35</text>
</svg>
