<svg xmlns="http://www.w3.org/2000/svg" width="980" height="560" viewBox="0 0 980 560">
  <rect width="100%" height="100%" fill="#fbfaf7"/>
  <style>
    text { font-family: Arial, Helvetica, sans-serif; fill: #1d252c; }
    .title { font-size: 21px; font-weight: 700; }
    .label { font-size: 13px; }
    .small { font-size: 11px; fill: #52606d; }
    .axis { stroke: #9aa5b1; stroke-width: 1; }
  </style>
<text class="title" x="70" y="38">DCML period boundary-aligned profile</text>
<line class="axis" x1="80" y1="480" x2="815" y2="480"/>
<line class="axis" x1="80" y1="70" x2="80" y2="480"/>
<line x1="447.5" y1="70" x2="447.5" y2="480" stroke="#333" stroke-width="1.4" stroke-dasharray="5 5"/>
<text class="label" x="380" y="525">Event position relative to boundary</text>
<text class="label" transform="translate(24 330) rotate(-90)">Surprisal (bits)</text>
<polyline points="80.0,342.5 110.6,361.1 141.2,393.6 171.9,423.5 202.5,368.2 233.1,393.5 263.8,370.6 294.4,428.8 325.0,397.1 355.6,388.2 386.2,378.5 416.9,421.2 447.5,229.5 478.1,212.4 508.8,308.3 539.4,424.4 570.0,386.2 600.6,435.8 631.2,408.9 661.9,420.0 692.5,380.0 723.1,409.7 753.8,370.7 784.4,430.1 815.0,366.7" fill="none" stroke="#2f6f9f" stroke-width="3" opacity="0.95"/>
<polyline points="80.0,292.4 110.6,318.4 141.2,305.7 171.9,309.6 202.5,293.3 233.1,325.5 263.8,303.4 294.4,318.9 325.0,300.7 355.6,309.2 386.2,311.8 416.9,311.7 447.5,230.4 478.1,264.8 508.8,291.6 539.4,303.8 570.0,290.7 600.6,305.0 631.2,299.4 661.9,311.4 692.5,294.9 723.1,308.2 753.8,297.7 784.4,316.5 815.0,286.6" fill="none" stroke="#2f6f9f" stroke-width="3" opacity="0.60" stroke-dasharray="6 4"/>
<polyline points="80.0,184.5 110.6,192.5 141.2,181.8 171.9,204.8 202.5,189.5 233.1,204.9 263.8,195.3 294.4,209.9 325.0,194.7 355.6,201.4 386.2,187.6 416.9,191.5 447.5,133.6 478.1,140.3 508.8,182.6 539.4,212.6 570.0,194.0 600.6,205.2 631.2,219.8 661.9,216.0 692.5,187.6 723.1,212.7 753.8,191.0 784.4,202.5 815.0,190.7" fill="none" stroke="#2f6f9f" stroke-width="3" opacity="0.60" stroke-dasharray="2 4"/>
<polyline points="80.0,265.9 110.6,254.1 141.2,273.1 171.9,294.1 202.5,283.1 233.1,290.5 263.8,277.4 294.4,267.7 325.0,318.6 355.6,295.8 386.2,278.4 416.9,303.4 447.5,166.3 478.1,185.6 508.8,258.7 539.4,221.3 570.0,271.4 600.6,293.5 631.2,274.1 661.9,261.4 692.5,287.4 723.1,288.6 753.8,260.7 784.4,267.2 815.0,254.1" fill="none" stroke="#b84a6b" stroke-width="3" opacity="0.95"/>
<polyline points="80.0,257.7 110.6,288.0 141.2,275.7 171.9,271.1 202.5,272.3 233.1,278.4 263.8,256.8 294.4,267.6 325.0,283.1 355.6,272.5 386.2,265.3 416.9,276.1 447.5,149.5 478.1,254.2 508.8,249.8 539.4,243.4 570.0,258.6 600.6,281.4 631.2,292.5 661.9,279.7 692.5,287.5 723.1,268.0 753.8,273.8 784.4,281.5 815.0,256.3" fill="none" stroke="#b84a6b" stroke-width="3" opacity="0.60" stroke-dasharray="6 4"/>
<polyline points="80.0,158.9 110.6,172.0 141.2,159.4 171.9,154.1 202.5,149.7 233.1,160.6 263.8,141.2 294.4,146.8 325.0,173.4 355.6,157.6 386.2,170.6 416.9,168.6 447.5,114.2 478.1,132.3 508.8,153.9 539.4,156.6 570.0,156.3 600.6,160.9 631.2,168.9 661.9,168.0 692.5,168.7 723.1,182.4 753.8,173.0 784.4,159.8 815.0,169.7" fill="none" stroke="#b84a6b" stroke-width="3" opacity="0.60" stroke-dasharray="2 4"/>
<line x1="835" y1="100" x2="863" y2="100" stroke="#2f6f9f" stroke-width="4"/>
<text class="small" x="871" y="104">Classical</text>
<line x1="835" y1="126" x2="863" y2="126" stroke="#b84a6b" stroke-width="4"/>
<text class="small" x="871" y="130">Romantic</text>
<line x1="835" y1="152" x2="863" y2="152" stroke="#7a4fb3" stroke-width="4"/>
<text class="small" x="871" y="156">Late</text>
</svg>
