<svg xmlns="http://www.w3.org/2000/svg" width="920" height="500" viewBox="0 0 920 500">
  <rect width="100%" height="100%" fill="#fbfaf7"/>
  <style>
    text { font-family: Arial, Helvetica, sans-serif; fill: #1d252c; }
    .title { font-size: 21px; font-weight: 700; }
    .label { font-size: 13px; }
    .small { font-size: 11px; fill: #52606d; }
    .axis { stroke: #9aa5b1; stroke-width: 1; }
  </style>
<text class="title" x="70" y="38">Romantic minus Classical profile</text>
<line class="axis" x1="80" y1="420" x2="870" y2="420"/>
<line class="axis" x1="80" y1="70" x2="80" y2="420"/>
<line x1="80" y1="339.4" x2="870" y2="339.4" stroke="#777" stroke-dasharray="5 5"/>
<text class="label" x="350" y="465">Normalized piece time</text>
<text class="label" transform="translate(24 315) rotate(-90)">Romantic minus Classical</text>
<polyline points="80.0,383.6 88.0,271.5 96.0,222.4 103.9,292.6 111.9,186.0 119.9,310.7 127.9,199.0 135.9,207.8 143.8,226.4 151.8,238.9 159.8,281.8 167.8,256.7 175.8,211.8 183.7,286.6 191.7,282.1 199.7,208.4 207.7,175.1 215.7,272.5 223.6,275.3 231.6,106.4 239.6,162.0 247.6,241.9 255.6,237.7 263.5,242.5 271.5,218.0 279.5,290.0 287.5,259.6 295.5,306.2 303.4,177.1 311.4,286.4 319.4,115.7 327.4,297.2 335.4,294.5 343.3,348.4 351.3,259.6 359.3,331.9 367.3,259.9 375.3,243.2 383.2,372.2 391.2,227.5 399.2,285.9 407.2,296.1 415.2,367.1 423.1,275.8 431.1,327.8 439.1,263.7 447.1,255.6 455.1,256.5 463.0,284.6 471.0,245.9 479.0,371.6 487.0,326.4 494.9,223.7 502.9,324.0 510.9,184.4 518.9,220.6 526.9,251.7 534.8,202.6 542.8,304.9 550.8,167.5 558.8,226.4 566.8,231.8 574.7,122.6 582.7,274.6 590.7,236.7 598.7,200.2 606.7,210.3 614.6,131.3 622.6,236.7 630.6,330.6 638.6,327.4 646.6,304.2 654.5,283.6 662.5,182.0 670.5,229.2 678.5,223.6 686.5,318.9 694.4,285.9 702.4,245.4 710.4,257.9 718.4,229.8 726.4,243.9 734.3,299.1 742.3,301.1 750.3,308.2 758.3,182.9 766.3,175.4 774.2,260.0 782.2,257.2 790.2,274.8 798.2,134.7 806.2,251.1 814.1,239.2 822.1,287.1 830.1,285.6 838.1,259.2 846.1,245.1 854.0,211.1 862.0,194.1 870.0,242.2" fill="none" stroke="#7a4fb3" stroke-width="3"/>
</svg>
