<svg xmlns="http://www.w3.org/2000/svg" width="980" height="540" viewBox="0 0 980 540">
  <rect width="100%" height="100%" fill="#fbfaf7"/>
  <style>
    text { font-family: Arial, Helvetica, sans-serif; fill: #1d252c; }
    .title { font-size: 21px; font-weight: 700; }
    .label { font-size: 13px; }
    .small { font-size: 11px; fill: #52606d; }
    .axis { stroke: #9aa5b1; stroke-width: 1; }
  </style>
<text class="title" x="70" y="38">DCML period local volatility profile</text>
<line class="axis" x1="80" y1="460" x2="815" y2="460"/>
<line class="axis" x1="80" y1="70" x2="80" y2="460"/>
<text class="label" x="380" y="505">Normalized piece time</text>
<text class="label" transform="translate(24 330) rotate(-90)">Local variance</text>
<polyline points="80.0,407.7 87.4,283.2 94.8,236.1 102.3,325.5 109.7,282.8 117.1,192.3 124.5,205.1 132.0,239.2 139.4,195.0 146.8,192.2 154.2,227.1 161.7,182.1 169.1,189.2 176.5,203.3 183.9,222.4 191.4,193.7 198.8,196.9 206.2,180.9 213.6,209.8 221.1,170.7 228.5,227.7 235.9,224.3 243.3,222.0 250.8,185.7 258.2,244.7 265.6,196.7 273.0,146.4 280.5,166.4 287.9,194.9 295.3,156.1 302.7,160.3 310.2,148.5 317.6,130.3 325.0,213.1 332.4,122.3 339.8,145.4 347.3,178.3 354.7,179.4 362.1,251.2 369.5,271.6 377.0,222.1 384.4,179.1 391.8,214.8 399.2,235.3 406.7,205.3 414.1,230.0 421.5,197.1 428.9,209.9 436.4,215.6 443.8,246.8 451.2,197.4 458.6,157.6 466.1,170.7 473.5,203.8 480.9,190.0 488.3,191.1 495.8,159.8 503.2,210.6 510.6,180.1 518.0,221.7 525.5,144.5 532.9,221.0 540.3,211.9 547.7,211.6 555.2,198.5 562.6,283.8 570.0,199.5 577.4,179.3 584.8,207.5 592.3,221.8 599.7,274.9 607.1,255.9 614.5,195.5 622.0,193.7 629.4,159.6 636.8,170.3 644.2,173.6 651.7,193.8 659.1,225.5 666.5,228.3 673.9,295.5 681.4,239.5 688.8,195.4 696.2,164.8 703.6,167.8 711.1,208.8 718.5,194.9 725.9,250.7 733.3,215.2 740.8,217.1 748.2,272.4 755.6,267.4 763.0,229.3 770.5,275.9 777.9,246.0 785.3,257.1 792.7,289.6 800.2,268.1 807.6,271.7 815.0,244.2" fill="none" stroke="#2f6f9f" stroke-width="4"/>
<polyline points="80.0,395.3 87.4,362.8 94.8,371.9 102.3,352.4 109.7,314.0 117.1,313.6 124.5,290.8 132.0,251.3 139.4,270.8 146.8,251.5 154.2,250.4 161.7,224.3 169.1,226.1 176.5,231.7 183.9,256.0 191.4,268.0 198.8,269.3 206.2,289.1 213.6,316.1 221.1,304.8 228.5,293.0 235.9,265.0 243.3,256.2 250.8,236.3 258.2,325.0 265.6,299.6 273.0,242.6 280.5,270.4 287.9,244.9 295.3,253.9 302.7,254.0 310.2,244.3 317.6,233.8 325.0,239.7 332.4,216.5 339.8,246.1 347.3,225.4 354.7,244.2 362.1,226.9 369.5,191.8 377.0,240.8 384.4,234.4 391.8,215.1 399.2,266.1 406.7,259.2 414.1,299.8 421.5,299.0 428.9,259.4 436.4,266.9 443.8,288.5 451.2,311.1 458.6,283.8 466.1,271.1 473.5,259.6 480.9,240.0 488.3,232.8 495.8,289.0 503.2,259.0 510.6,253.8 518.0,268.9 525.5,285.3 532.9,248.1 540.3,262.9 547.7,257.8 555.2,261.1 562.6,263.5 570.0,254.0 577.4,284.1 584.8,280.8 592.3,264.6 599.7,264.0 607.1,277.3 614.5,310.7 622.0,272.8 629.4,306.2 636.8,291.1 644.2,310.4 651.7,300.5 659.1,304.4 666.5,264.3 673.9,266.2 681.4,236.1 688.8,236.3 696.2,241.7 703.6,269.0 711.1,280.5 718.5,241.9 725.9,276.9 733.3,267.9 740.8,255.7 748.2,287.6 755.6,325.8 763.0,316.7 770.5,277.2 777.9,293.3 785.3,331.6 792.7,355.5 800.2,343.0 807.6,391.0 815.0,373.9" fill="none" stroke="#b84a6b" stroke-width="4"/>
<line x1="835" y1="100" x2="863" y2="100" stroke="#2f6f9f" stroke-width="4"/>
<text class="small" x="871" y="104">Classical</text>
<line x1="835" y1="126" x2="863" y2="126" stroke="#b84a6b" stroke-width="4"/>
<text class="small" x="871" y="130">Romantic</text>
<line x1="835" y1="152" x2="863" y2="152" stroke="#7a4fb3" stroke-width="4"/>
<text class="small" x="871" y="156">Late</text>
</svg>
