<svg xmlns="http://www.w3.org/2000/svg" width="980" height="540" viewBox="0 0 980 540">
  <rect width="100%" height="100%" fill="#fbfaf7"/>
  <style>
    text { font-family: Arial, Helvetica, sans-serif; fill: #1d252c; }
    .title { font-size: 21px; font-weight: 700; }
    .label { font-size: 13px; }
    .small { font-size: 11px; fill: #52606d; }
    .axis { stroke: #9aa5b1; stroke-width: 1; }
  </style>
<text class="title" x="70" y="38">DCML period mean surprisal profile</text>
<line class="axis" x1="80" y1="460" x2="815" y2="460"/>
<line class="axis" x1="80" y1="70" x2="80" y2="460"/>
<text class="label" x="380" y="505">Normalized piece time</text>
<text class="label" transform="translate(24 330) rotate(-90)">Surprisal (bits)</text>
<polyline points="80.0,190.9 87.4,295.0 94.8,299.6 102.3,296.2 109.7,359.6 117.1,318.8 124.5,362.5 132.0,302.4 139.4,309.2 146.8,336.9 154.2,316.3 161.7,341.9 169.1,348.5 176.5,295.3 183.9,286.3 191.4,338.6 198.8,330.9 206.2,273.8 213.6,283.0 221.1,386.8 228.5,334.2 235.9,345.3 243.3,337.8 250.8,316.1 258.2,349.6 265.6,326.2 273.0,294.8 280.5,324.0 287.9,357.1 295.3,295.1 302.7,384.3 310.2,263.1 317.6,303.5 325.0,279.2 332.4,360.7 339.8,309.0 347.3,335.0 354.7,316.6 362.1,307.5 369.5,322.2 377.0,294.0 384.4,309.0 391.8,289.7 399.2,360.1 406.7,300.5 414.1,366.4 421.5,331.2 428.9,325.4 436.4,318.4 443.8,353.4 451.2,251.4 458.6,302.8 466.1,282.3 473.5,291.9 480.9,305.3 488.3,320.9 495.8,308.2 503.2,350.3 510.6,306.6 518.0,348.2 525.5,323.6 532.9,356.4 540.3,382.1 547.7,340.8 555.2,324.9 562.6,349.5 570.0,353.9 577.4,340.0 584.8,308.0 592.3,305.1 599.7,259.7 607.1,296.0 614.5,332.8 622.0,370.5 629.4,356.8 636.8,387.4 644.2,287.2 651.7,260.4 659.1,296.4 666.5,292.9 673.9,353.4 681.4,293.0 688.8,283.8 696.2,289.5 703.6,258.0 711.1,382.8 718.5,355.2 725.9,361.4 733.3,307.9 740.8,326.5 748.2,408.8 755.6,385.0 763.0,333.5 770.5,309.5 777.9,344.2 785.3,291.3 792.7,314.6 800.2,329.8 807.6,316.2 815.0,203.1" fill="none" stroke="#2f6f9f" stroke-width="4"/>
<polyline points="80.0,228.2 87.4,237.8 94.8,201.0 102.3,256.7 109.7,230.2 117.1,294.7 124.5,244.1 132.0,191.4 139.4,213.9 146.8,252.2 154.2,267.7 161.7,272.2 169.1,240.9 176.5,250.8 183.9,237.9 191.4,228.1 198.8,192.4 206.2,217.5 213.6,228.9 221.1,190.3 228.5,184.6 235.9,263.1 243.3,252.1 250.8,234.4 258.2,247.2 265.6,284.5 273.0,227.6 280.5,296.0 287.9,220.2 295.3,250.4 302.7,195.7 310.2,227.5 317.6,265.7 325.0,286.8 332.4,293.4 339.8,302.8 347.3,268.0 354.7,235.5 362.1,335.2 369.5,227.8 377.0,248.9 384.4,272.5 391.8,313.1 399.2,306.5 406.7,290.7 414.1,302.5 421.5,260.5 428.9,255.5 436.4,272.2 443.8,274.6 451.2,278.6 458.6,291.9 466.1,184.7 473.5,278.9 480.9,174.6 488.3,220.8 495.8,234.3 503.2,235.0 510.6,277.5 518.0,203.2 525.5,228.4 532.9,265.7 540.3,199.3 547.7,286.2 555.2,238.3 562.6,232.1 570.0,245.1 577.4,164.5 584.8,221.4 592.3,297.7 599.7,249.6 607.1,266.3 614.5,285.8 622.0,237.7 629.4,263.9 636.8,289.7 644.2,270.0 651.7,215.3 659.1,217.1 666.5,224.2 673.9,261.0 681.4,212.5 688.8,249.8 696.2,257.2 703.6,231.7 711.1,250.8 718.5,216.9 725.9,294.4 733.3,238.6 740.8,272.0 748.2,236.2 755.6,310.5 763.0,249.0 770.5,265.4 777.9,298.9 785.3,223.7 792.7,235.1 800.2,221.6 807.6,193.7 815.0,121.2" fill="none" stroke="#b84a6b" stroke-width="4"/>
<line x1="835" y1="100" x2="863" y2="100" stroke="#2f6f9f" stroke-width="4"/>
<text class="small" x="871" y="104">Classical</text>
<line x1="835" y1="126" x2="863" y2="126" stroke="#b84a6b" stroke-width="4"/>
<text class="small" x="871" y="130">Romantic</text>
<line x1="835" y1="152" x2="863" y2="152" stroke="#7a4fb3" stroke-width="4"/>
<text class="small" x="871" y="156">Late</text>
</svg>
