<?xml version="1.0" encoding="utf-8" standalone="no"?>
<!DOCTYPE svg PUBLIC "-//W3C//DTD SVG 1.1//EN"
  "http://www.w3.org/Graphics/SVG/1.1/DTD/svg11.dtd">
<svg xmlns:xlink="http://www.w3.org/1999/xlink" width="540pt" height="309.6pt" viewBox="0 0 540 309.6" xmlns="http://www.w3.org/2000/svg" version="1.1">
 <metadata>
  <rdf:RDF xmlns:dc="http://purl.org/dc/elements/1.1/" xmlns:cc="http://creativecommons.org/ns#" xmlns:rdf="http://www.w3.org/1999/02/22-rdf-syntax-ns#">
   <cc:Work>
    <dc:type rdf:resource="http://purl.org/dc/dcmitype/StillImage"/>
    <dc:date>2026-05-17T22:15:39.321414</dc:date>
    <dc:format>image/svg+xml</dc:format>
    <dc:creator>
     <cc:Agent>
      <dc:title>Matplotlib v3.10.0, https://matplotlib.org/</dc:title>
     </cc:Agent>
    </dc:creator>
   </cc:Work>
  </rdf:RDF>
 </metadata>
 <defs>
  <style type="text/css">*{stroke-linejoin: round; stroke-linecap: butt}</style>
 </defs>
 <g id="figure_1">
  <g id="patch_1">
   <path d="M 0 309.6 
L 540 309.6 
L 540 0 
L 0 0 
z
" style="fill: #ffffff"/>
  </g>
  <g id="axes_1">
   <g id="patch_2">
    <path d="M 56.18 267.64 
L 529.2 267.64 
L 529.2 10.8 
L 56.18 10.8 
z
" style="fill: #ffffff"/>
   </g>
   <g id="FillBetweenPolyCollection_1">
    <defs>
     <path id="ma46a1cd202" d="M 77.680909 -226.981024 
L 77.680909 -143.774023 
L 125.519495 -145.95185 
L 174.019444 -146.362722 
L 221.990302 -151.285969 
L 268.814798 -156.560916 
L 318.593382 -155.74562 
L 367.666512 -158.556533 
L 415.064189 -155.675263 
L 464.005046 -160.348857 
L 507.699091 -163.001081 
L 507.699091 -264.135374 
L 507.699091 -264.135374 
L 464.005046 -242.175648 
L 415.064189 -238.631006 
L 367.666512 -241.36654 
L 318.593382 -241.001483 
L 268.814798 -237.220767 
L 221.990302 -234.050892 
L 174.019444 -230.34453 
L 125.519495 -228.654377 
L 77.680909 -226.981024 
z
"/>
    </defs>
    <g clip-path="url(#pe19c77520a)">
     <use xlink:href="#ma46a1cd202" x="0" y="309.6" style="fill: #54a24b; fill-opacity: 0.16"/>
    </g>
   </g>
   <g id="FillBetweenPolyCollection_2">
    <defs>
     <path id="me816585d9f" d="M 77.680909 -131.571587 
L 77.680909 -53.634545 
L 125.519495 -67.552571 
L 174.019444 -61.939387 
L 221.990302 -68.532546 
L 268.814798 -70.814809 
L 318.593382 -70.640348 
L 367.666512 -74.636704 
L 415.064189 -77.732941 
L 464.005046 -75.952922 
L 507.699091 -95.144472 
L 507.699091 -190.290918 
L 507.699091 -190.290918 
L 464.005046 -151.122149 
L 415.064189 -153.001402 
L 367.666512 -150.897751 
L 318.593382 -147.334664 
L 268.814798 -144.383005 
L 221.990302 -143.784926 
L 174.019444 -138.708924 
L 125.519495 -142.747087 
L 77.680909 -131.571587 
z
"/>
    </defs>
    <g clip-path="url(#pe19c77520a)">
     <use xlink:href="#me816585d9f" x="0" y="309.6" style="fill: #4c78a8; fill-opacity: 0.16"/>
    </g>
   </g>
   <g id="FillBetweenPolyCollection_3">
    <defs>
     <path id="maa101d76a6" d="M 77.680909 -262.099875 
L 77.680909 -213.851873 
L 125.519495 -218.343135 
L 174.019444 -218.353052 
L 221.990302 -222.458934 
L 268.814798 -219.524336 
L 318.593382 -221.238563 
L 367.666512 -223.428865 
L 415.064189 -225.409033 
L 464.005046 -222.956458 
L 507.699091 -200.248169 
L 507.699091 -287.125455 
L 507.699091 -287.125455 
L 464.005046 -276.749899 
L 415.064189 -270.840956 
L 367.666512 -270.89666 
L 318.593382 -271.926005 
L 268.814798 -266.573756 
L 221.990302 -269.482741 
L 174.019444 -267.449683 
L 125.519495 -265.682565 
L 77.680909 -262.099875 
z
"/>
    </defs>
    <g clip-path="url(#pe19c77520a)">
     <use xlink:href="#maa101d76a6" x="0" y="309.6" style="fill: #f58518; fill-opacity: 0.16"/>
    </g>
   </g>
   <g id="matplotlib.axis_1">
    <g id="xtick_1">
     <g id="line2d_1">
      <defs>
       <path id="m724fa5721e" d="M 0 0 
L 0 3.5 
" style="stroke: #000000; stroke-width: 0.8"/>
      </defs>
      <g>
       <use xlink:href="#m724fa5721e" x="507.699091" y="267.64" style="stroke: #000000; stroke-width: 0.8"/>
      </g>
     </g>
     <g id="text_1">
      <!-- 0 -->
      <g transform="translate(504.517841 282.238437) scale(0.1 -0.1)">
       <defs>
        <path id="DejaVuSans-30" d="M 2034 4250 
Q 1547 4250 1301 3770 
Q 1056 3291 1056 2328 
Q 1056 1369 1301 889 
Q 1547 409 2034 409 
Q 2525 409 2770 889 
Q 3016 1369 3016 2328 
Q 3016 3291 2770 3770 
Q 2525 4250 2034 4250 
z
M 2034 4750 
Q 2819 4750 3233 4129 
Q 3647 3509 3647 2328 
Q 3647 1150 3233 529 
Q 2819 -91 2034 -91 
Q 1250 -91 836 529 
Q 422 1150 422 2328 
Q 422 3509 836 4129 
Q 1250 4750 2034 4750 
z
" transform="scale(0.015625)"/>
       </defs>
       <use xlink:href="#DejaVuSans-30"/>
      </g>
     </g>
    </g>
    <g id="xtick_2">
     <g id="line2d_2">
      <g>
       <use xlink:href="#m724fa5721e" x="408.053742" y="267.64" style="stroke: #000000; stroke-width: 0.8"/>
      </g>
     </g>
     <g id="text_2">
      <!-- 10 -->
      <g transform="translate(401.691242 282.238437) scale(0.1 -0.1)">
       <defs>
        <path id="DejaVuSans-31" d="M 794 531 
L 1825 531 
L 1825 4091 
L 703 3866 
L 703 4441 
L 1819 4666 
L 2450 4666 
L 2450 531 
L 3481 531 
L 3481 0 
L 794 0 
L 794 531 
z
" transform="scale(0.015625)"/>
       </defs>
       <use xlink:href="#DejaVuSans-31"/>
       <use xlink:href="#DejaVuSans-30" transform="translate(63.623047 0)"/>
      </g>
     </g>
    </g>
    <g id="xtick_3">
     <g id="line2d_3">
      <g>
       <use xlink:href="#m724fa5721e" x="308.408392" y="267.64" style="stroke: #000000; stroke-width: 0.8"/>
      </g>
     </g>
     <g id="text_3">
      <!-- 20 -->
      <g transform="translate(302.045892 282.238437) scale(0.1 -0.1)">
       <defs>
        <path id="DejaVuSans-32" d="M 1228 531 
L 3431 531 
L 3431 0 
L 469 0 
L 469 531 
Q 828 903 1448 1529 
Q 2069 2156 2228 2338 
Q 2531 2678 2651 2914 
Q 2772 3150 2772 3378 
Q 2772 3750 2511 3984 
Q 2250 4219 1831 4219 
Q 1534 4219 1204 4116 
Q 875 4013 500 3803 
L 500 4441 
Q 881 4594 1212 4672 
Q 1544 4750 1819 4750 
Q 2544 4750 2975 4387 
Q 3406 4025 3406 3419 
Q 3406 3131 3298 2873 
Q 3191 2616 2906 2266 
Q 2828 2175 2409 1742 
Q 1991 1309 1228 531 
z
" transform="scale(0.015625)"/>
       </defs>
       <use xlink:href="#DejaVuSans-32"/>
       <use xlink:href="#DejaVuSans-30" transform="translate(63.623047 0)"/>
      </g>
     </g>
    </g>
    <g id="xtick_4">
     <g id="line2d_4">
      <g>
       <use xlink:href="#m724fa5721e" x="208.763043" y="267.64" style="stroke: #000000; stroke-width: 0.8"/>
      </g>
     </g>
     <g id="text_4">
      <!-- 30 -->
      <g transform="translate(202.400543 282.238437) scale(0.1 -0.1)">
       <defs>
        <path id="DejaVuSans-33" d="M 2597 2516 
Q 3050 2419 3304 2112 
Q 3559 1806 3559 1356 
Q 3559 666 3084 287 
Q 2609 -91 1734 -91 
Q 1441 -91 1130 -33 
Q 819 25 488 141 
L 488 750 
Q 750 597 1062 519 
Q 1375 441 1716 441 
Q 2309 441 2620 675 
Q 2931 909 2931 1356 
Q 2931 1769 2642 2001 
Q 2353 2234 1838 2234 
L 1294 2234 
L 1294 2753 
L 1863 2753 
Q 2328 2753 2575 2939 
Q 2822 3125 2822 3475 
Q 2822 3834 2567 4026 
Q 2313 4219 1838 4219 
Q 1578 4219 1281 4162 
Q 984 4106 628 3988 
L 628 4550 
Q 988 4650 1302 4700 
Q 1616 4750 1894 4750 
Q 2613 4750 3031 4423 
Q 3450 4097 3450 3541 
Q 3450 3153 3228 2886 
Q 3006 2619 2597 2516 
z
" transform="scale(0.015625)"/>
       </defs>
       <use xlink:href="#DejaVuSans-33"/>
       <use xlink:href="#DejaVuSans-30" transform="translate(63.623047 0)"/>
      </g>
     </g>
    </g>
    <g id="xtick_5">
     <g id="line2d_5">
      <g>
       <use xlink:href="#m724fa5721e" x="109.117694" y="267.64" style="stroke: #000000; stroke-width: 0.8"/>
      </g>
     </g>
     <g id="text_5">
      <!-- 40 -->
      <g transform="translate(102.755194 282.238437) scale(0.1 -0.1)">
       <defs>
        <path id="DejaVuSans-34" d="M 2419 4116 
L 825 1625 
L 2419 1625 
L 2419 4116 
z
M 2253 4666 
L 3047 4666 
L 3047 1625 
L 3713 1625 
L 3713 1100 
L 3047 1100 
L 3047 0 
L 2419 0 
L 2419 1100 
L 313 1100 
L 313 1709 
L 2253 4666 
z
" transform="scale(0.015625)"/>
       </defs>
       <use xlink:href="#DejaVuSans-34"/>
       <use xlink:href="#DejaVuSans-30" transform="translate(63.623047 0)"/>
      </g>
     </g>
    </g>
    <g id="text_6">
     <!-- Mean notes before C2 onset -->
     <g transform="translate(222.20875 295.916562) scale(0.1 -0.1)">
      <defs>
       <path id="DejaVuSans-4d" d="M 628 4666 
L 1569 4666 
L 2759 1491 
L 3956 4666 
L 4897 4666 
L 4897 0 
L 4281 0 
L 4281 4097 
L 3078 897 
L 2444 897 
L 1241 4097 
L 1241 0 
L 628 0 
L 628 4666 
z
" transform="scale(0.015625)"/>
       <path id="DejaVuSans-65" d="M 3597 1894 
L 3597 1613 
L 953 1613 
Q 991 1019 1311 708 
Q 1631 397 2203 397 
Q 2534 397 2845 478 
Q 3156 559 3463 722 
L 3463 178 
Q 3153 47 2828 -22 
Q 2503 -91 2169 -91 
Q 1331 -91 842 396 
Q 353 884 353 1716 
Q 353 2575 817 3079 
Q 1281 3584 2069 3584 
Q 2775 3584 3186 3129 
Q 3597 2675 3597 1894 
z
M 3022 2063 
Q 3016 2534 2758 2815 
Q 2500 3097 2075 3097 
Q 1594 3097 1305 2825 
Q 1016 2553 972 2059 
L 3022 2063 
z
" transform="scale(0.015625)"/>
       <path id="DejaVuSans-61" d="M 2194 1759 
Q 1497 1759 1228 1600 
Q 959 1441 959 1056 
Q 959 750 1161 570 
Q 1363 391 1709 391 
Q 2188 391 2477 730 
Q 2766 1069 2766 1631 
L 2766 1759 
L 2194 1759 
z
M 3341 1997 
L 3341 0 
L 2766 0 
L 2766 531 
Q 2569 213 2275 61 
Q 1981 -91 1556 -91 
Q 1019 -91 701 211 
Q 384 513 384 1019 
Q 384 1609 779 1909 
Q 1175 2209 1959 2209 
L 2766 2209 
L 2766 2266 
Q 2766 2663 2505 2880 
Q 2244 3097 1772 3097 
Q 1472 3097 1187 3025 
Q 903 2953 641 2809 
L 641 3341 
Q 956 3463 1253 3523 
Q 1550 3584 1831 3584 
Q 2591 3584 2966 3190 
Q 3341 2797 3341 1997 
z
" transform="scale(0.015625)"/>
       <path id="DejaVuSans-6e" d="M 3513 2113 
L 3513 0 
L 2938 0 
L 2938 2094 
Q 2938 2591 2744 2837 
Q 2550 3084 2163 3084 
Q 1697 3084 1428 2787 
Q 1159 2491 1159 1978 
L 1159 0 
L 581 0 
L 581 3500 
L 1159 3500 
L 1159 2956 
Q 1366 3272 1645 3428 
Q 1925 3584 2291 3584 
Q 2894 3584 3203 3211 
Q 3513 2838 3513 2113 
z
" transform="scale(0.015625)"/>
       <path id="DejaVuSans-20" transform="scale(0.015625)"/>
       <path id="DejaVuSans-6f" d="M 1959 3097 
Q 1497 3097 1228 2736 
Q 959 2375 959 1747 
Q 959 1119 1226 758 
Q 1494 397 1959 397 
Q 2419 397 2687 759 
Q 2956 1122 2956 1747 
Q 2956 2369 2687 2733 
Q 2419 3097 1959 3097 
z
M 1959 3584 
Q 2709 3584 3137 3096 
Q 3566 2609 3566 1747 
Q 3566 888 3137 398 
Q 2709 -91 1959 -91 
Q 1206 -91 779 398 
Q 353 888 353 1747 
Q 353 2609 779 3096 
Q 1206 3584 1959 3584 
z
" transform="scale(0.015625)"/>
       <path id="DejaVuSans-74" d="M 1172 4494 
L 1172 3500 
L 2356 3500 
L 2356 3053 
L 1172 3053 
L 1172 1153 
Q 1172 725 1289 603 
Q 1406 481 1766 481 
L 2356 481 
L 2356 0 
L 1766 0 
Q 1100 0 847 248 
Q 594 497 594 1153 
L 594 3053 
L 172 3053 
L 172 3500 
L 594 3500 
L 594 4494 
L 1172 4494 
z
" transform="scale(0.015625)"/>
       <path id="DejaVuSans-73" d="M 2834 3397 
L 2834 2853 
Q 2591 2978 2328 3040 
Q 2066 3103 1784 3103 
Q 1356 3103 1142 2972 
Q 928 2841 928 2578 
Q 928 2378 1081 2264 
Q 1234 2150 1697 2047 
L 1894 2003 
Q 2506 1872 2764 1633 
Q 3022 1394 3022 966 
Q 3022 478 2636 193 
Q 2250 -91 1575 -91 
Q 1294 -91 989 -36 
Q 684 19 347 128 
L 347 722 
Q 666 556 975 473 
Q 1284 391 1588 391 
Q 1994 391 2212 530 
Q 2431 669 2431 922 
Q 2431 1156 2273 1281 
Q 2116 1406 1581 1522 
L 1381 1569 
Q 847 1681 609 1914 
Q 372 2147 372 2553 
Q 372 3047 722 3315 
Q 1072 3584 1716 3584 
Q 2034 3584 2315 3537 
Q 2597 3491 2834 3397 
z
" transform="scale(0.015625)"/>
       <path id="DejaVuSans-62" d="M 3116 1747 
Q 3116 2381 2855 2742 
Q 2594 3103 2138 3103 
Q 1681 3103 1420 2742 
Q 1159 2381 1159 1747 
Q 1159 1113 1420 752 
Q 1681 391 2138 391 
Q 2594 391 2855 752 
Q 3116 1113 3116 1747 
z
M 1159 2969 
Q 1341 3281 1617 3432 
Q 1894 3584 2278 3584 
Q 2916 3584 3314 3078 
Q 3713 2572 3713 1747 
Q 3713 922 3314 415 
Q 2916 -91 2278 -91 
Q 1894 -91 1617 61 
Q 1341 213 1159 525 
L 1159 0 
L 581 0 
L 581 4863 
L 1159 4863 
L 1159 2969 
z
" transform="scale(0.015625)"/>
       <path id="DejaVuSans-66" d="M 2375 4863 
L 2375 4384 
L 1825 4384 
Q 1516 4384 1395 4259 
Q 1275 4134 1275 3809 
L 1275 3500 
L 2222 3500 
L 2222 3053 
L 1275 3053 
L 1275 0 
L 697 0 
L 697 3053 
L 147 3053 
L 147 3500 
L 697 3500 
L 697 3744 
Q 697 4328 969 4595 
Q 1241 4863 1831 4863 
L 2375 4863 
z
" transform="scale(0.015625)"/>
       <path id="DejaVuSans-72" d="M 2631 2963 
Q 2534 3019 2420 3045 
Q 2306 3072 2169 3072 
Q 1681 3072 1420 2755 
Q 1159 2438 1159 1844 
L 1159 0 
L 581 0 
L 581 3500 
L 1159 3500 
L 1159 2956 
Q 1341 3275 1631 3429 
Q 1922 3584 2338 3584 
Q 2397 3584 2469 3576 
Q 2541 3569 2628 3553 
L 2631 2963 
z
" transform="scale(0.015625)"/>
       <path id="DejaVuSans-43" d="M 4122 4306 
L 4122 3641 
Q 3803 3938 3442 4084 
Q 3081 4231 2675 4231 
Q 1875 4231 1450 3742 
Q 1025 3253 1025 2328 
Q 1025 1406 1450 917 
Q 1875 428 2675 428 
Q 3081 428 3442 575 
Q 3803 722 4122 1019 
L 4122 359 
Q 3791 134 3420 21 
Q 3050 -91 2638 -91 
Q 1578 -91 968 557 
Q 359 1206 359 2328 
Q 359 3453 968 4101 
Q 1578 4750 2638 4750 
Q 3056 4750 3426 4639 
Q 3797 4528 4122 4306 
z
" transform="scale(0.015625)"/>
      </defs>
      <use xlink:href="#DejaVuSans-4d"/>
      <use xlink:href="#DejaVuSans-65" transform="translate(86.279297 0)"/>
      <use xlink:href="#DejaVuSans-61" transform="translate(147.802734 0)"/>
      <use xlink:href="#DejaVuSans-6e" transform="translate(209.082031 0)"/>
      <use xlink:href="#DejaVuSans-20" transform="translate(272.460938 0)"/>
      <use xlink:href="#DejaVuSans-6e" transform="translate(304.248047 0)"/>
      <use xlink:href="#DejaVuSans-6f" transform="translate(367.626953 0)"/>
      <use xlink:href="#DejaVuSans-74" transform="translate(428.808594 0)"/>
      <use xlink:href="#DejaVuSans-65" transform="translate(468.017578 0)"/>
      <use xlink:href="#DejaVuSans-73" transform="translate(529.541016 0)"/>
      <use xlink:href="#DejaVuSans-20" transform="translate(581.640625 0)"/>
      <use xlink:href="#DejaVuSans-62" transform="translate(613.427734 0)"/>
      <use xlink:href="#DejaVuSans-65" transform="translate(676.904297 0)"/>
      <use xlink:href="#DejaVuSans-66" transform="translate(738.427734 0)"/>
      <use xlink:href="#DejaVuSans-6f" transform="translate(773.632812 0)"/>
      <use xlink:href="#DejaVuSans-72" transform="translate(834.814453 0)"/>
      <use xlink:href="#DejaVuSans-65" transform="translate(873.677734 0)"/>
      <use xlink:href="#DejaVuSans-20" transform="translate(935.201172 0)"/>
      <use xlink:href="#DejaVuSans-43" transform="translate(966.988281 0)"/>
      <use xlink:href="#DejaVuSans-32" transform="translate(1036.8125 0)"/>
      <use xlink:href="#DejaVuSans-20" transform="translate(1100.435547 0)"/>
      <use xlink:href="#DejaVuSans-6f" transform="translate(1132.222656 0)"/>
      <use xlink:href="#DejaVuSans-6e" transform="translate(1193.404297 0)"/>
      <use xlink:href="#DejaVuSans-73" transform="translate(1256.783203 0)"/>
      <use xlink:href="#DejaVuSans-65" transform="translate(1308.882812 0)"/>
      <use xlink:href="#DejaVuSans-74" transform="translate(1370.40625 0)"/>
     </g>
    </g>
   </g>
   <g id="matplotlib.axis_2">
    <g id="ytick_1">
     <g id="line2d_6">
      <defs>
       <path id="m964cda6509" d="M 0 0 
L -3.5 0 
" style="stroke: #000000; stroke-width: 0.8"/>
      </defs>
      <g>
       <use xlink:href="#m964cda6509" x="56.18" y="222.826729" style="stroke: #000000; stroke-width: 0.8"/>
      </g>
     </g>
     <g id="text_7">
      <!-- −0.4 -->
      <g transform="translate(24.897188 226.625948) scale(0.1 -0.1)">
       <defs>
        <path id="DejaVuSans-2212" d="M 678 2272 
L 4684 2272 
L 4684 1741 
L 678 1741 
L 678 2272 
z
" transform="scale(0.015625)"/>
        <path id="DejaVuSans-2e" d="M 684 794 
L 1344 794 
L 1344 0 
L 684 0 
L 684 794 
z
" transform="scale(0.015625)"/>
       </defs>
       <use xlink:href="#DejaVuSans-2212"/>
       <use xlink:href="#DejaVuSans-30" transform="translate(83.789062 0)"/>
       <use xlink:href="#DejaVuSans-2e" transform="translate(147.412109 0)"/>
       <use xlink:href="#DejaVuSans-34" transform="translate(179.199219 0)"/>
      </g>
     </g>
    </g>
    <g id="ytick_2">
     <g id="line2d_7">
      <g>
       <use xlink:href="#m964cda6509" x="56.18" y="169.111318" style="stroke: #000000; stroke-width: 0.8"/>
      </g>
     </g>
     <g id="text_8">
      <!-- −0.2 -->
      <g transform="translate(24.897188 172.910537) scale(0.1 -0.1)">
       <use xlink:href="#DejaVuSans-2212"/>
       <use xlink:href="#DejaVuSans-30" transform="translate(83.789062 0)"/>
       <use xlink:href="#DejaVuSans-2e" transform="translate(147.412109 0)"/>
       <use xlink:href="#DejaVuSans-32" transform="translate(179.199219 0)"/>
      </g>
     </g>
    </g>
    <g id="ytick_3">
     <g id="line2d_8">
      <g>
       <use xlink:href="#m964cda6509" x="56.18" y="115.395908" style="stroke: #000000; stroke-width: 0.8"/>
      </g>
     </g>
     <g id="text_9">
      <!-- 0.0 -->
      <g transform="translate(33.276875 119.195127) scale(0.1 -0.1)">
       <use xlink:href="#DejaVuSans-30"/>
       <use xlink:href="#DejaVuSans-2e" transform="translate(63.623047 0)"/>
       <use xlink:href="#DejaVuSans-30" transform="translate(95.410156 0)"/>
      </g>
     </g>
    </g>
    <g id="ytick_4">
     <g id="line2d_9">
      <g>
       <use xlink:href="#m964cda6509" x="56.18" y="61.680498" style="stroke: #000000; stroke-width: 0.8"/>
      </g>
     </g>
     <g id="text_10">
      <!-- 0.2 -->
      <g transform="translate(33.276875 65.479716) scale(0.1 -0.1)">
       <use xlink:href="#DejaVuSans-30"/>
       <use xlink:href="#DejaVuSans-2e" transform="translate(63.623047 0)"/>
       <use xlink:href="#DejaVuSans-32" transform="translate(95.410156 0)"/>
      </g>
     </g>
    </g>
    <g id="text_11">
     <!-- Control future IC - actual C2 future IC (bits) -->
     <g transform="translate(18.8175 246.992656) rotate(-90) scale(0.1 -0.1)">
      <defs>
       <path id="DejaVuSans-6c" d="M 603 4863 
L 1178 4863 
L 1178 0 
L 603 0 
L 603 4863 
z
" transform="scale(0.015625)"/>
       <path id="DejaVuSans-75" d="M 544 1381 
L 544 3500 
L 1119 3500 
L 1119 1403 
Q 1119 906 1312 657 
Q 1506 409 1894 409 
Q 2359 409 2629 706 
Q 2900 1003 2900 1516 
L 2900 3500 
L 3475 3500 
L 3475 0 
L 2900 0 
L 2900 538 
Q 2691 219 2414 64 
Q 2138 -91 1772 -91 
Q 1169 -91 856 284 
Q 544 659 544 1381 
z
M 1991 3584 
L 1991 3584 
z
" transform="scale(0.015625)"/>
       <path id="DejaVuSans-49" d="M 628 4666 
L 1259 4666 
L 1259 0 
L 628 0 
L 628 4666 
z
" transform="scale(0.015625)"/>
       <path id="DejaVuSans-2d" d="M 313 2009 
L 1997 2009 
L 1997 1497 
L 313 1497 
L 313 2009 
z
" transform="scale(0.015625)"/>
       <path id="DejaVuSans-63" d="M 3122 3366 
L 3122 2828 
Q 2878 2963 2633 3030 
Q 2388 3097 2138 3097 
Q 1578 3097 1268 2742 
Q 959 2388 959 1747 
Q 959 1106 1268 751 
Q 1578 397 2138 397 
Q 2388 397 2633 464 
Q 2878 531 3122 666 
L 3122 134 
Q 2881 22 2623 -34 
Q 2366 -91 2075 -91 
Q 1284 -91 818 406 
Q 353 903 353 1747 
Q 353 2603 823 3093 
Q 1294 3584 2113 3584 
Q 2378 3584 2631 3529 
Q 2884 3475 3122 3366 
z
" transform="scale(0.015625)"/>
       <path id="DejaVuSans-28" d="M 1984 4856 
Q 1566 4138 1362 3434 
Q 1159 2731 1159 2009 
Q 1159 1288 1364 580 
Q 1569 -128 1984 -844 
L 1484 -844 
Q 1016 -109 783 600 
Q 550 1309 550 2009 
Q 550 2706 781 3412 
Q 1013 4119 1484 4856 
L 1984 4856 
z
" transform="scale(0.015625)"/>
       <path id="DejaVuSans-69" d="M 603 3500 
L 1178 3500 
L 1178 0 
L 603 0 
L 603 3500 
z
M 603 4863 
L 1178 4863 
L 1178 4134 
L 603 4134 
L 603 4863 
z
" transform="scale(0.015625)"/>
       <path id="DejaVuSans-29" d="M 513 4856 
L 1013 4856 
Q 1481 4119 1714 3412 
Q 1947 2706 1947 2009 
Q 1947 1309 1714 600 
Q 1481 -109 1013 -844 
L 513 -844 
Q 928 -128 1133 580 
Q 1338 1288 1338 2009 
Q 1338 2731 1133 3434 
Q 928 4138 513 4856 
z
" transform="scale(0.015625)"/>
      </defs>
      <use xlink:href="#DejaVuSans-43"/>
      <use xlink:href="#DejaVuSans-6f" transform="translate(69.824219 0)"/>
      <use xlink:href="#DejaVuSans-6e" transform="translate(131.005859 0)"/>
      <use xlink:href="#DejaVuSans-74" transform="translate(194.384766 0)"/>
      <use xlink:href="#DejaVuSans-72" transform="translate(233.59375 0)"/>
      <use xlink:href="#DejaVuSans-6f" transform="translate(272.457031 0)"/>
      <use xlink:href="#DejaVuSans-6c" transform="translate(333.638672 0)"/>
      <use xlink:href="#DejaVuSans-20" transform="translate(361.421875 0)"/>
      <use xlink:href="#DejaVuSans-66" transform="translate(393.208984 0)"/>
      <use xlink:href="#DejaVuSans-75" transform="translate(428.414062 0)"/>
      <use xlink:href="#DejaVuSans-74" transform="translate(491.792969 0)"/>
      <use xlink:href="#DejaVuSans-75" transform="translate(531.001953 0)"/>
      <use xlink:href="#DejaVuSans-72" transform="translate(594.380859 0)"/>
      <use xlink:href="#DejaVuSans-65" transform="translate(633.244141 0)"/>
      <use xlink:href="#DejaVuSans-20" transform="translate(694.767578 0)"/>
      <use xlink:href="#DejaVuSans-49" transform="translate(726.554688 0)"/>
      <use xlink:href="#DejaVuSans-43" transform="translate(756.046875 0)"/>
      <use xlink:href="#DejaVuSans-20" transform="translate(825.871094 0)"/>
      <use xlink:href="#DejaVuSans-2d" transform="translate(857.658203 0)"/>
      <use xlink:href="#DejaVuSans-20" transform="translate(893.742188 0)"/>
      <use xlink:href="#DejaVuSans-61" transform="translate(925.529297 0)"/>
      <use xlink:href="#DejaVuSans-63" transform="translate(986.808594 0)"/>
      <use xlink:href="#DejaVuSans-74" transform="translate(1041.789062 0)"/>
      <use xlink:href="#DejaVuSans-75" transform="translate(1080.998047 0)"/>
      <use xlink:href="#DejaVuSans-61" transform="translate(1144.376953 0)"/>
      <use xlink:href="#DejaVuSans-6c" transform="translate(1205.65625 0)"/>
      <use xlink:href="#DejaVuSans-20" transform="translate(1233.439453 0)"/>
      <use xlink:href="#DejaVuSans-43" transform="translate(1265.226562 0)"/>
      <use xlink:href="#DejaVuSans-32" transform="translate(1335.050781 0)"/>
      <use xlink:href="#DejaVuSans-20" transform="translate(1398.673828 0)"/>
      <use xlink:href="#DejaVuSans-66" transform="translate(1430.460938 0)"/>
      <use xlink:href="#DejaVuSans-75" transform="translate(1465.666016 0)"/>
      <use xlink:href="#DejaVuSans-74" transform="translate(1529.044922 0)"/>
      <use xlink:href="#DejaVuSans-75" transform="translate(1568.253906 0)"/>
      <use xlink:href="#DejaVuSans-72" transform="translate(1631.632812 0)"/>
      <use xlink:href="#DejaVuSans-65" transform="translate(1670.496094 0)"/>
      <use xlink:href="#DejaVuSans-20" transform="translate(1732.019531 0)"/>
      <use xlink:href="#DejaVuSans-49" transform="translate(1763.806641 0)"/>
      <use xlink:href="#DejaVuSans-43" transform="translate(1793.298828 0)"/>
      <use xlink:href="#DejaVuSans-20" transform="translate(1863.123047 0)"/>
      <use xlink:href="#DejaVuSans-28" transform="translate(1894.910156 0)"/>
      <use xlink:href="#DejaVuSans-62" transform="translate(1933.923828 0)"/>
      <use xlink:href="#DejaVuSans-69" transform="translate(1997.400391 0)"/>
      <use xlink:href="#DejaVuSans-74" transform="translate(2025.183594 0)"/>
      <use xlink:href="#DejaVuSans-73" transform="translate(2064.392578 0)"/>
      <use xlink:href="#DejaVuSans-29" transform="translate(2116.492188 0)"/>
     </g>
    </g>
   </g>
   <g id="line2d_10">
    <path d="M 77.680909 124.222476 
L 125.519495 122.296887 
L 174.019444 121.246374 
L 221.990302 116.93157 
L 268.814798 112.709159 
L 318.593382 111.226449 
L 367.666512 109.638463 
L 415.064189 112.446866 
L 464.005046 108.337747 
L 507.699091 96.031772 
" clip-path="url(#pe19c77520a)" style="fill: none; stroke: #54a24b; stroke-width: 2; stroke-linecap: square"/>
    <defs>
     <path id="ma7d7b0515b" d="M 0 3 
C 0.795609 3 1.55874 2.683901 2.12132 2.12132 
C 2.683901 1.55874 3 0.795609 3 0 
C 3 -0.795609 2.683901 -1.55874 2.12132 -2.12132 
C 1.55874 -2.683901 0.795609 -3 0 -3 
C -0.795609 -3 -1.55874 -2.683901 -2.12132 -2.12132 
C -2.683901 -1.55874 -3 -0.795609 -3 0 
C -3 0.795609 -2.683901 1.55874 -2.12132 2.12132 
C -1.55874 2.683901 -0.795609 3 0 3 
z
" style="stroke: #54a24b"/>
    </defs>
    <g clip-path="url(#pe19c77520a)">
     <use xlink:href="#ma7d7b0515b" x="77.680909" y="124.222476" style="fill: #54a24b; stroke: #54a24b"/>
     <use xlink:href="#ma7d7b0515b" x="125.519495" y="122.296887" style="fill: #54a24b; stroke: #54a24b"/>
     <use xlink:href="#ma7d7b0515b" x="174.019444" y="121.246374" style="fill: #54a24b; stroke: #54a24b"/>
     <use xlink:href="#ma7d7b0515b" x="221.990302" y="116.93157" style="fill: #54a24b; stroke: #54a24b"/>
     <use xlink:href="#ma7d7b0515b" x="268.814798" y="112.709159" style="fill: #54a24b; stroke: #54a24b"/>
     <use xlink:href="#ma7d7b0515b" x="318.593382" y="111.226449" style="fill: #54a24b; stroke: #54a24b"/>
     <use xlink:href="#ma7d7b0515b" x="367.666512" y="109.638463" style="fill: #54a24b; stroke: #54a24b"/>
     <use xlink:href="#ma7d7b0515b" x="415.064189" y="112.446866" style="fill: #54a24b; stroke: #54a24b"/>
     <use xlink:href="#ma7d7b0515b" x="464.005046" y="108.337747" style="fill: #54a24b; stroke: #54a24b"/>
     <use xlink:href="#ma7d7b0515b" x="507.699091" y="96.031772" style="fill: #54a24b; stroke: #54a24b"/>
    </g>
   </g>
   <g id="line2d_11">
    <path d="M 77.680909 216.996934 
L 125.519495 204.450171 
L 174.019444 209.275844 
L 221.990302 203.441264 
L 268.814798 202.001093 
L 318.593382 200.612494 
L 367.666512 196.832772 
L 415.064189 194.232828 
L 464.005046 196.062464 
L 507.699091 166.882305 
" clip-path="url(#pe19c77520a)" style="fill: none; stroke: #4c78a8; stroke-width: 2; stroke-linecap: square"/>
    <defs>
     <path id="m3a904edcdd" d="M 0 3 
C 0.795609 3 1.55874 2.683901 2.12132 2.12132 
C 2.683901 1.55874 3 0.795609 3 0 
C 3 -0.795609 2.683901 -1.55874 2.12132 -2.12132 
C 1.55874 -2.683901 0.795609 -3 0 -3 
C -0.795609 -3 -1.55874 -2.683901 -2.12132 -2.12132 
C -2.683901 -1.55874 -3 -0.795609 -3 0 
C -3 0.795609 -2.683901 1.55874 -2.12132 2.12132 
C -1.55874 2.683901 -0.795609 3 0 3 
z
" style="stroke: #4c78a8"/>
    </defs>
    <g clip-path="url(#pe19c77520a)">
     <use xlink:href="#m3a904edcdd" x="77.680909" y="216.996934" style="fill: #4c78a8; stroke: #4c78a8"/>
     <use xlink:href="#m3a904edcdd" x="125.519495" y="204.450171" style="fill: #4c78a8; stroke: #4c78a8"/>
     <use xlink:href="#m3a904edcdd" x="174.019444" y="209.275844" style="fill: #4c78a8; stroke: #4c78a8"/>
     <use xlink:href="#m3a904edcdd" x="221.990302" y="203.441264" style="fill: #4c78a8; stroke: #4c78a8"/>
     <use xlink:href="#m3a904edcdd" x="268.814798" y="202.001093" style="fill: #4c78a8; stroke: #4c78a8"/>
     <use xlink:href="#m3a904edcdd" x="318.593382" y="200.612494" style="fill: #4c78a8; stroke: #4c78a8"/>
     <use xlink:href="#m3a904edcdd" x="367.666512" y="196.832772" style="fill: #4c78a8; stroke: #4c78a8"/>
     <use xlink:href="#m3a904edcdd" x="415.064189" y="194.232828" style="fill: #4c78a8; stroke: #4c78a8"/>
     <use xlink:href="#m3a904edcdd" x="464.005046" y="196.062464" style="fill: #4c78a8; stroke: #4c78a8"/>
     <use xlink:href="#m3a904edcdd" x="507.699091" y="166.882305" style="fill: #4c78a8; stroke: #4c78a8"/>
    </g>
   </g>
   <g id="line2d_12">
    <path d="M 77.680909 71.624126 
L 125.519495 67.58715 
L 174.019444 66.698632 
L 221.990302 63.629162 
L 268.814798 66.550954 
L 318.593382 63.017716 
L 367.666512 62.437237 
L 415.064189 61.475006 
L 464.005046 59.746821 
L 507.699091 65.913188 
" clip-path="url(#pe19c77520a)" style="fill: none; stroke: #f58518; stroke-width: 2; stroke-linecap: square"/>
    <defs>
     <path id="m0eb771ae27" d="M 0 3 
C 0.795609 3 1.55874 2.683901 2.12132 2.12132 
C 2.683901 1.55874 3 0.795609 3 0 
C 3 -0.795609 2.683901 -1.55874 2.12132 -2.12132 
C 1.55874 -2.683901 0.795609 -3 0 -3 
C -0.795609 -3 -1.55874 -2.683901 -2.12132 -2.12132 
C -2.683901 -1.55874 -3 -0.795609 -3 0 
C -3 0.795609 -2.683901 1.55874 -2.12132 2.12132 
C -1.55874 2.683901 -0.795609 3 0 3 
z
" style="stroke: #f58518"/>
    </defs>
    <g clip-path="url(#pe19c77520a)">
     <use xlink:href="#m0eb771ae27" x="77.680909" y="71.624126" style="fill: #f58518; stroke: #f58518"/>
     <use xlink:href="#m0eb771ae27" x="125.519495" y="67.58715" style="fill: #f58518; stroke: #f58518"/>
     <use xlink:href="#m0eb771ae27" x="174.019444" y="66.698632" style="fill: #f58518; stroke: #f58518"/>
     <use xlink:href="#m0eb771ae27" x="221.990302" y="63.629162" style="fill: #f58518; stroke: #f58518"/>
     <use xlink:href="#m0eb771ae27" x="268.814798" y="66.550954" style="fill: #f58518; stroke: #f58518"/>
     <use xlink:href="#m0eb771ae27" x="318.593382" y="63.017716" style="fill: #f58518; stroke: #f58518"/>
     <use xlink:href="#m0eb771ae27" x="367.666512" y="62.437237" style="fill: #f58518; stroke: #f58518"/>
     <use xlink:href="#m0eb771ae27" x="415.064189" y="61.475006" style="fill: #f58518; stroke: #f58518"/>
     <use xlink:href="#m0eb771ae27" x="464.005046" y="59.746821" style="fill: #f58518; stroke: #f58518"/>
     <use xlink:href="#m0eb771ae27" x="507.699091" y="65.913188" style="fill: #f58518; stroke: #f58518"/>
    </g>
   </g>
   <g id="line2d_13">
    <path d="M 56.18 115.395908 
L 529.2 115.395908 
" clip-path="url(#pe19c77520a)" style="fill: none; stroke: #555555; stroke-linecap: square"/>
   </g>
   <g id="patch_3">
    <path d="M 56.18 267.64 
L 56.18 10.8 
" style="fill: none; stroke: #000000; stroke-width: 0.8; stroke-linejoin: miter; stroke-linecap: square"/>
   </g>
   <g id="patch_4">
    <path d="M 56.18 267.64 
L 529.2 267.64 
" style="fill: none; stroke: #000000; stroke-width: 0.8; stroke-linejoin: miter; stroke-linecap: square"/>
   </g>
   <g id="text_12">
    <!-- Positive = actual C2 is more predictable at the future horizon -->
    <g transform="translate(65.6404 28.672037) scale(0.1 -0.1)">
     <defs>
      <path id="DejaVuSans-50" d="M 1259 4147 
L 1259 2394 
L 2053 2394 
Q 2494 2394 2734 2622 
Q 2975 2850 2975 3272 
Q 2975 3691 2734 3919 
Q 2494 4147 2053 4147 
L 1259 4147 
z
M 628 4666 
L 2053 4666 
Q 2838 4666 3239 4311 
Q 3641 3956 3641 3272 
Q 3641 2581 3239 2228 
Q 2838 1875 2053 1875 
L 1259 1875 
L 1259 0 
L 628 0 
L 628 4666 
z
" transform="scale(0.015625)"/>
      <path id="DejaVuSans-76" d="M 191 3500 
L 800 3500 
L 1894 563 
L 2988 3500 
L 3597 3500 
L 2284 0 
L 1503 0 
L 191 3500 
z
" transform="scale(0.015625)"/>
      <path id="DejaVuSans-3d" d="M 678 2906 
L 4684 2906 
L 4684 2381 
L 678 2381 
L 678 2906 
z
M 678 1631 
L 4684 1631 
L 4684 1100 
L 678 1100 
L 678 1631 
z
" transform="scale(0.015625)"/>
      <path id="DejaVuSans-6d" d="M 3328 2828 
Q 3544 3216 3844 3400 
Q 4144 3584 4550 3584 
Q 5097 3584 5394 3201 
Q 5691 2819 5691 2113 
L 5691 0 
L 5113 0 
L 5113 2094 
Q 5113 2597 4934 2840 
Q 4756 3084 4391 3084 
Q 3944 3084 3684 2787 
Q 3425 2491 3425 1978 
L 3425 0 
L 2847 0 
L 2847 2094 
Q 2847 2600 2669 2842 
Q 2491 3084 2119 3084 
Q 1678 3084 1418 2786 
Q 1159 2488 1159 1978 
L 1159 0 
L 581 0 
L 581 3500 
L 1159 3500 
L 1159 2956 
Q 1356 3278 1631 3431 
Q 1906 3584 2284 3584 
Q 2666 3584 2933 3390 
Q 3200 3197 3328 2828 
z
" transform="scale(0.015625)"/>
      <path id="DejaVuSans-70" d="M 1159 525 
L 1159 -1331 
L 581 -1331 
L 581 3500 
L 1159 3500 
L 1159 2969 
Q 1341 3281 1617 3432 
Q 1894 3584 2278 3584 
Q 2916 3584 3314 3078 
Q 3713 2572 3713 1747 
Q 3713 922 3314 415 
Q 2916 -91 2278 -91 
Q 1894 -91 1617 61 
Q 1341 213 1159 525 
z
M 3116 1747 
Q 3116 2381 2855 2742 
Q 2594 3103 2138 3103 
Q 1681 3103 1420 2742 
Q 1159 2381 1159 1747 
Q 1159 1113 1420 752 
Q 1681 391 2138 391 
Q 2594 391 2855 752 
Q 3116 1113 3116 1747 
z
" transform="scale(0.015625)"/>
      <path id="DejaVuSans-64" d="M 2906 2969 
L 2906 4863 
L 3481 4863 
L 3481 0 
L 2906 0 
L 2906 525 
Q 2725 213 2448 61 
Q 2172 -91 1784 -91 
Q 1150 -91 751 415 
Q 353 922 353 1747 
Q 353 2572 751 3078 
Q 1150 3584 1784 3584 
Q 2172 3584 2448 3432 
Q 2725 3281 2906 2969 
z
M 947 1747 
Q 947 1113 1208 752 
Q 1469 391 1925 391 
Q 2381 391 2643 752 
Q 2906 1113 2906 1747 
Q 2906 2381 2643 2742 
Q 2381 3103 1925 3103 
Q 1469 3103 1208 2742 
Q 947 2381 947 1747 
z
" transform="scale(0.015625)"/>
      <path id="DejaVuSans-68" d="M 3513 2113 
L 3513 0 
L 2938 0 
L 2938 2094 
Q 2938 2591 2744 2837 
Q 2550 3084 2163 3084 
Q 1697 3084 1428 2787 
Q 1159 2491 1159 1978 
L 1159 0 
L 581 0 
L 581 4863 
L 1159 4863 
L 1159 2956 
Q 1366 3272 1645 3428 
Q 1925 3584 2291 3584 
Q 2894 3584 3203 3211 
Q 3513 2838 3513 2113 
z
" transform="scale(0.015625)"/>
      <path id="DejaVuSans-7a" d="M 353 3500 
L 3084 3500 
L 3084 2975 
L 922 459 
L 3084 459 
L 3084 0 
L 275 0 
L 275 525 
L 2438 3041 
L 353 3041 
L 353 3500 
z
" transform="scale(0.015625)"/>
     </defs>
     <use xlink:href="#DejaVuSans-50"/>
     <use xlink:href="#DejaVuSans-6f" transform="translate(56.677734 0)"/>
     <use xlink:href="#DejaVuSans-73" transform="translate(117.859375 0)"/>
     <use xlink:href="#DejaVuSans-69" transform="translate(169.958984 0)"/>
     <use xlink:href="#DejaVuSans-74" transform="translate(197.742188 0)"/>
     <use xlink:href="#DejaVuSans-69" transform="translate(236.951172 0)"/>
     <use xlink:href="#DejaVuSans-76" transform="translate(264.734375 0)"/>
     <use xlink:href="#DejaVuSans-65" transform="translate(323.914062 0)"/>
     <use xlink:href="#DejaVuSans-20" transform="translate(385.4375 0)"/>
     <use xlink:href="#DejaVuSans-3d" transform="translate(417.224609 0)"/>
     <use xlink:href="#DejaVuSans-20" transform="translate(501.013672 0)"/>
     <use xlink:href="#DejaVuSans-61" transform="translate(532.800781 0)"/>
     <use xlink:href="#DejaVuSans-63" transform="translate(594.080078 0)"/>
     <use xlink:href="#DejaVuSans-74" transform="translate(649.060547 0)"/>
     <use xlink:href="#DejaVuSans-75" transform="translate(688.269531 0)"/>
     <use xlink:href="#DejaVuSans-61" transform="translate(751.648438 0)"/>
     <use xlink:href="#DejaVuSans-6c" transform="translate(812.927734 0)"/>
     <use xlink:href="#DejaVuSans-20" transform="translate(840.710938 0)"/>
     <use xlink:href="#DejaVuSans-43" transform="translate(872.498047 0)"/>
     <use xlink:href="#DejaVuSans-32" transform="translate(942.322266 0)"/>
     <use xlink:href="#DejaVuSans-20" transform="translate(1005.945312 0)"/>
     <use xlink:href="#DejaVuSans-69" transform="translate(1037.732422 0)"/>
     <use xlink:href="#DejaVuSans-73" transform="translate(1065.515625 0)"/>
     <use xlink:href="#DejaVuSans-20" transform="translate(1117.615234 0)"/>
     <use xlink:href="#DejaVuSans-6d" transform="translate(1149.402344 0)"/>
     <use xlink:href="#DejaVuSans-6f" transform="translate(1246.814453 0)"/>
     <use xlink:href="#DejaVuSans-72" transform="translate(1307.996094 0)"/>
     <use xlink:href="#DejaVuSans-65" transform="translate(1346.859375 0)"/>
     <use xlink:href="#DejaVuSans-20" transform="translate(1408.382812 0)"/>
     <use xlink:href="#DejaVuSans-70" transform="translate(1440.169922 0)"/>
     <use xlink:href="#DejaVuSans-72" transform="translate(1503.646484 0)"/>
     <use xlink:href="#DejaVuSans-65" transform="translate(1542.509766 0)"/>
     <use xlink:href="#DejaVuSans-64" transform="translate(1604.033203 0)"/>
     <use xlink:href="#DejaVuSans-69" transform="translate(1667.509766 0)"/>
     <use xlink:href="#DejaVuSans-63" transform="translate(1695.292969 0)"/>
     <use xlink:href="#DejaVuSans-74" transform="translate(1750.273438 0)"/>
     <use xlink:href="#DejaVuSans-61" transform="translate(1789.482422 0)"/>
     <use xlink:href="#DejaVuSans-62" transform="translate(1850.761719 0)"/>
     <use xlink:href="#DejaVuSans-6c" transform="translate(1914.238281 0)"/>
     <use xlink:href="#DejaVuSans-65" transform="translate(1942.021484 0)"/>
     <use xlink:href="#DejaVuSans-20" transform="translate(2003.544922 0)"/>
     <use xlink:href="#DejaVuSans-61" transform="translate(2035.332031 0)"/>
     <use xlink:href="#DejaVuSans-74" transform="translate(2096.611328 0)"/>
     <use xlink:href="#DejaVuSans-20" transform="translate(2135.820312 0)"/>
     <use xlink:href="#DejaVuSans-74" transform="translate(2167.607422 0)"/>
     <use xlink:href="#DejaVuSans-68" transform="translate(2206.816406 0)"/>
     <use xlink:href="#DejaVuSans-65" transform="translate(2270.195312 0)"/>
     <use xlink:href="#DejaVuSans-20" transform="translate(2331.71875 0)"/>
     <use xlink:href="#DejaVuSans-66" transform="translate(2363.505859 0)"/>
     <use xlink:href="#DejaVuSans-75" transform="translate(2398.710938 0)"/>
     <use xlink:href="#DejaVuSans-74" transform="translate(2462.089844 0)"/>
     <use xlink:href="#DejaVuSans-75" transform="translate(2501.298828 0)"/>
     <use xlink:href="#DejaVuSans-72" transform="translate(2564.677734 0)"/>
     <use xlink:href="#DejaVuSans-65" transform="translate(2603.541016 0)"/>
     <use xlink:href="#DejaVuSans-20" transform="translate(2665.064453 0)"/>
     <use xlink:href="#DejaVuSans-68" transform="translate(2696.851562 0)"/>
     <use xlink:href="#DejaVuSans-6f" transform="translate(2760.230469 0)"/>
     <use xlink:href="#DejaVuSans-72" transform="translate(2821.412109 0)"/>
     <use xlink:href="#DejaVuSans-69" transform="translate(2862.525391 0)"/>
     <use xlink:href="#DejaVuSans-7a" transform="translate(2890.308594 0)"/>
     <use xlink:href="#DejaVuSans-6f" transform="translate(2942.798828 0)"/>
     <use xlink:href="#DejaVuSans-6e" transform="translate(3003.980469 0)"/>
    </g>
   </g>
   <g id="legend_1">
    <g id="line2d_14">
     <path d="M 420.298438 223.704062 
L 430.298438 223.704062 
L 440.298438 223.704062 
" style="fill: none; stroke: #54a24b; stroke-width: 2; stroke-linecap: square"/>
     <g>
      <use xlink:href="#ma7d7b0515b" x="430.298438" y="223.704062" style="fill: #54a24b; stroke: #54a24b"/>
     </g>
    </g>
    <g id="text_13">
     <!-- V2 opening -->
     <g transform="translate(448.298438 227.204062) scale(0.1 -0.1)">
      <defs>
       <path id="DejaVuSans-56" d="M 1831 0 
L 50 4666 
L 709 4666 
L 2188 738 
L 3669 4666 
L 4325 4666 
L 2547 0 
L 1831 0 
z
" transform="scale(0.015625)"/>
       <path id="DejaVuSans-67" d="M 2906 1791 
Q 2906 2416 2648 2759 
Q 2391 3103 1925 3103 
Q 1463 3103 1205 2759 
Q 947 2416 947 1791 
Q 947 1169 1205 825 
Q 1463 481 1925 481 
Q 2391 481 2648 825 
Q 2906 1169 2906 1791 
z
M 3481 434 
Q 3481 -459 3084 -895 
Q 2688 -1331 1869 -1331 
Q 1566 -1331 1297 -1286 
Q 1028 -1241 775 -1147 
L 775 -588 
Q 1028 -725 1275 -790 
Q 1522 -856 1778 -856 
Q 2344 -856 2625 -561 
Q 2906 -266 2906 331 
L 2906 616 
Q 2728 306 2450 153 
Q 2172 0 1784 0 
Q 1141 0 747 490 
Q 353 981 353 1791 
Q 353 2603 747 3093 
Q 1141 3584 1784 3584 
Q 2172 3584 2450 3431 
Q 2728 3278 2906 2969 
L 2906 3500 
L 3481 3500 
L 3481 434 
z
" transform="scale(0.015625)"/>
      </defs>
      <use xlink:href="#DejaVuSans-56"/>
      <use xlink:href="#DejaVuSans-32" transform="translate(68.408203 0)"/>
      <use xlink:href="#DejaVuSans-20" transform="translate(132.03125 0)"/>
      <use xlink:href="#DejaVuSans-6f" transform="translate(163.818359 0)"/>
      <use xlink:href="#DejaVuSans-70" transform="translate(225 0)"/>
      <use xlink:href="#DejaVuSans-65" transform="translate(288.476562 0)"/>
      <use xlink:href="#DejaVuSans-6e" transform="translate(350 0)"/>
      <use xlink:href="#DejaVuSans-69" transform="translate(413.378906 0)"/>
      <use xlink:href="#DejaVuSans-6e" transform="translate(441.162109 0)"/>
      <use xlink:href="#DejaVuSans-67" transform="translate(504.541016 0)"/>
     </g>
    </g>
    <g id="line2d_15">
     <path d="M 420.298438 238.382187 
L 430.298438 238.382187 
L 440.298438 238.382187 
" style="fill: none; stroke: #4c78a8; stroke-width: 2; stroke-linecap: square"/>
     <g>
      <use xlink:href="#m3a904edcdd" x="430.298438" y="238.382187" style="fill: #4c78a8; stroke: #4c78a8"/>
     </g>
    </g>
    <g id="text_14">
     <!-- Other-song C2 -->
     <g transform="translate(448.298438 241.882187) scale(0.1 -0.1)">
      <defs>
       <path id="DejaVuSans-4f" d="M 2522 4238 
Q 1834 4238 1429 3725 
Q 1025 3213 1025 2328 
Q 1025 1447 1429 934 
Q 1834 422 2522 422 
Q 3209 422 3611 934 
Q 4013 1447 4013 2328 
Q 4013 3213 3611 3725 
Q 3209 4238 2522 4238 
z
M 2522 4750 
Q 3503 4750 4090 4092 
Q 4678 3434 4678 2328 
Q 4678 1225 4090 567 
Q 3503 -91 2522 -91 
Q 1538 -91 948 565 
Q 359 1222 359 2328 
Q 359 3434 948 4092 
Q 1538 4750 2522 4750 
z
" transform="scale(0.015625)"/>
      </defs>
      <use xlink:href="#DejaVuSans-4f"/>
      <use xlink:href="#DejaVuSans-74" transform="translate(78.710938 0)"/>
      <use xlink:href="#DejaVuSans-68" transform="translate(117.919922 0)"/>
      <use xlink:href="#DejaVuSans-65" transform="translate(181.298828 0)"/>
      <use xlink:href="#DejaVuSans-72" transform="translate(242.822266 0)"/>
      <use xlink:href="#DejaVuSans-2d" transform="translate(277.560547 0)"/>
      <use xlink:href="#DejaVuSans-73" transform="translate(313.644531 0)"/>
      <use xlink:href="#DejaVuSans-6f" transform="translate(365.744141 0)"/>
      <use xlink:href="#DejaVuSans-6e" transform="translate(426.925781 0)"/>
      <use xlink:href="#DejaVuSans-67" transform="translate(490.304688 0)"/>
      <use xlink:href="#DejaVuSans-20" transform="translate(553.78125 0)"/>
      <use xlink:href="#DejaVuSans-43" transform="translate(585.568359 0)"/>
      <use xlink:href="#DejaVuSans-32" transform="translate(655.392578 0)"/>
     </g>
    </g>
    <g id="line2d_16">
     <path d="M 420.298438 253.060312 
L 430.298438 253.060312 
L 440.298438 253.060312 
" style="fill: none; stroke: #f58518; stroke-width: 2; stroke-linecap: square"/>
     <g>
      <use xlink:href="#m0eb771ae27" x="430.298438" y="253.060312" style="fill: #f58518; stroke: #f58518"/>
     </g>
    </g>
    <g id="text_15">
     <!-- Shuffled C2 -->
     <g transform="translate(448.298438 256.560312) scale(0.1 -0.1)">
      <defs>
       <path id="DejaVuSans-53" d="M 3425 4513 
L 3425 3897 
Q 3066 4069 2747 4153 
Q 2428 4238 2131 4238 
Q 1616 4238 1336 4038 
Q 1056 3838 1056 3469 
Q 1056 3159 1242 3001 
Q 1428 2844 1947 2747 
L 2328 2669 
Q 3034 2534 3370 2195 
Q 3706 1856 3706 1288 
Q 3706 609 3251 259 
Q 2797 -91 1919 -91 
Q 1588 -91 1214 -16 
Q 841 59 441 206 
L 441 856 
Q 825 641 1194 531 
Q 1563 422 1919 422 
Q 2459 422 2753 634 
Q 3047 847 3047 1241 
Q 3047 1584 2836 1778 
Q 2625 1972 2144 2069 
L 1759 2144 
Q 1053 2284 737 2584 
Q 422 2884 422 3419 
Q 422 4038 858 4394 
Q 1294 4750 2059 4750 
Q 2388 4750 2728 4690 
Q 3069 4631 3425 4513 
z
" transform="scale(0.015625)"/>
      </defs>
      <use xlink:href="#DejaVuSans-53"/>
      <use xlink:href="#DejaVuSans-68" transform="translate(63.476562 0)"/>
      <use xlink:href="#DejaVuSans-75" transform="translate(126.855469 0)"/>
      <use xlink:href="#DejaVuSans-66" transform="translate(190.234375 0)"/>
      <use xlink:href="#DejaVuSans-66" transform="translate(225.439453 0)"/>
      <use xlink:href="#DejaVuSans-6c" transform="translate(260.644531 0)"/>
      <use xlink:href="#DejaVuSans-65" transform="translate(288.427734 0)"/>
      <use xlink:href="#DejaVuSans-64" transform="translate(349.951172 0)"/>
      <use xlink:href="#DejaVuSans-20" transform="translate(413.427734 0)"/>
      <use xlink:href="#DejaVuSans-43" transform="translate(445.214844 0)"/>
      <use xlink:href="#DejaVuSans-32" transform="translate(515.039062 0)"/>
     </g>
    </g>
   </g>
  </g>
 </g>
 <defs>
  <clipPath id="pe19c77520a">
   <rect x="56.18" y="10.8" width="473.02" height="256.84"/>
  </clipPath>
 </defs>
</svg>
