<svg xmlns="http://www.w3.org/2000/svg" width="980" height="540" viewBox="0 0 980 540">
  <rect width="100%" height="100%" fill="#fbfaf7"/>
  <style>
    text { font-family: Arial, Helvetica, sans-serif; fill: #1d252c; }
    .title { font-size: 21px; font-weight: 700; }
    .label { font-size: 13px; }
    .small { font-size: 11px; fill: #52606d; }
    .axis { stroke: #9aa5b1; stroke-width: 1; }
  </style>
<text class="title" x="70" y="38">jsb_vs_cocochorales_test1: local volatility profile</text>
<line class="axis" x1="80" y1="460" x2="860" y2="460"/>
<line class="axis" x1="80" y1="70" x2="80" y2="460"/>
<text class="label" x="410" y="505">Normalized piece time</text>
<text class="label" transform="translate(24 330) rotate(-90)">Local variance</text>
<polyline points="80.0,432.7 87.9,428.0 95.8,421.2 103.6,416.5 111.5,414.5 119.4,412.1 127.3,410.0 135.2,409.3 143.0,408.6 150.9,406.6 158.8,405.0 166.7,403.4 174.5,400.4 182.4,397.0 190.3,393.7 198.2,392.9 206.1,393.2 213.9,392.4 221.8,391.7 229.7,391.3 237.6,390.3 245.5,389.2 253.3,388.6 261.2,389.4 269.1,391.3 277.0,393.9 284.8,395.0 292.7,396.9 300.6,396.6 308.5,394.5 316.4,388.3 324.2,385.7 332.1,384.5 340.0,383.3 347.9,381.5 355.8,379.7 363.6,377.8 371.5,375.2 379.4,370.1 387.3,368.3 395.2,368.9 403.0,368.0 410.9,367.0 418.8,368.3 426.7,370.4 434.5,370.7 442.4,371.7 450.3,372.0 458.2,372.4 466.1,373.5 473.9,375.2 481.8,375.5 489.7,378.1 497.6,380.3 505.5,382.1 513.3,382.7 521.2,383.3 529.1,385.5 537.0,386.8 544.8,387.7 552.7,389.4 560.6,392.0 568.5,392.8 576.4,393.7 584.2,395.4 592.1,397.3 600.0,397.5 607.9,397.4 615.8,397.2 623.6,396.5 631.5,397.0 639.4,397.3 647.3,398.0 655.2,399.3 663.0,398.1 670.9,397.2 678.8,398.2 686.7,397.8 694.5,397.3 702.4,396.9 710.3,397.2 718.2,398.0 726.1,398.5 733.9,399.1 741.8,398.8 749.7,398.0 757.6,398.0 765.5,398.0 773.3,397.6 781.2,398.2 789.1,398.0 797.0,396.6 804.8,396.5 812.7,398.2 820.6,400.4 828.5,402.6 836.4,405.9 844.2,408.3 852.1,410.0 860.0,412.0" fill="none" stroke="#2f6f9f" stroke-width="4"/>
<polyline points="80.0,227.2 87.9,223.0 95.8,218.7 103.6,214.5 111.5,210.5 119.4,208.6 127.3,206.9 135.2,205.1 143.0,203.0 150.9,200.7 158.8,198.3 166.7,195.5 174.5,192.9 182.4,190.3 190.3,187.3 198.2,183.7 206.1,179.8 213.9,176.1 221.8,172.0 229.7,167.7 237.6,163.8 245.5,160.8 253.3,158.0 261.2,155.5 269.1,153.3 277.0,151.4 284.8,148.5 292.7,144.5 300.6,140.5 308.5,137.2 316.4,134.0 324.2,131.6 332.1,129.3 340.0,126.3 347.9,125.0 355.8,123.7 363.6,123.3 371.5,123.6 379.4,123.5 387.3,123.0 395.2,121.9 403.0,121.4 410.9,120.8 418.8,119.8 426.7,119.3 434.5,118.0 442.4,115.8 450.3,113.7 458.2,113.4 466.1,113.9 473.9,114.5 481.8,115.1 489.7,115.3 497.6,114.1 505.5,112.8 513.3,111.5 521.2,110.2 529.1,109.0 537.0,107.7 544.8,106.5 552.7,105.3 560.6,104.4 568.5,103.2 576.4,102.1 584.2,101.0 592.1,99.6 600.0,98.2 607.9,97.6 615.8,97.3 623.6,97.5 631.5,98.8 639.4,100.6 647.3,102.0 655.2,103.4 663.0,104.2 670.9,104.8 678.8,105.5 686.7,106.4 694.5,107.3 702.4,107.9 710.3,108.7 718.2,109.8 726.1,110.5 733.9,111.3 741.8,112.4 749.7,113.8 757.6,115.9 765.5,117.8 773.3,119.8 781.2,122.7 789.1,126.3 797.0,130.1 804.8,133.9 812.7,138.2 820.6,142.9 828.5,147.7 836.4,149.9 844.2,151.2 852.1,152.4 860.0,153.6" fill="none" stroke="#b84a6b" stroke-width="4"/>
<line x1="880" y1="100" x2="908" y2="100" stroke="#2f6f9f" stroke-width="4"/>
<text class="small" x="916" y="104">human</text>
<line x1="880" y1="124" x2="908" y2="124" stroke="#b84a6b" stroke-width="4"/>
<text class="small" x="916" y="128">AI</text>
</svg>
