<svg xmlns="http://www.w3.org/2000/svg" width="1420" height="630" viewBox="0 0 1420 630">
<style>text{font-family:Arial,Helvetica,sans-serif;fill:#111827}.title{font-size:22px;font-weight:700}.panel{font-size:20px;font-weight:700}.sub{font-size:14px;fill:#374151}.label{font-size:13px}.star{font-size:21px;font-weight:700}.axis{stroke:#6b7280;stroke-width:1.2}</style>
<rect width="100%" height="100%" fill="#fff"/>
<text x="24" y="34" class="title">Post-cadential IC increase: melody vs harmony</text>
<text x="710" y="65" text-anchor="middle" class="sub">DeltaDelta zIC = melody zIC increase (t0 to t1) minus harmony zIC increase; error bars = 95% CI</text>
<text x="389.0" y="88" text-anchor="middle" class="panel">Beethoven</text>
<rect x="92" y="112" width="594" height="398" fill="none" class="axis"/>
<text x="34" y="311.0" text-anchor="middle" transform="rotate(-90 34 311.0)" class="label">DeltaDelta zIC</text>
<line x1="92" y1="358.6" x2="686" y2="358.6" stroke="#111" stroke-dasharray="7 5"/>
<rect x="116.9" y="325.9" width="68.9" height="32.8" fill="#1f77b4" opacity="0.94" stroke="#1f2937"/>
<line x1="151.4" y1="309.9" x2="151.4" y2="341.8" stroke="#1f2937" stroke-width="1.8"/>
<line x1="142.4" y1="309.9" x2="160.4" y2="309.9" stroke="#1f2937" stroke-width="1.8"/>
<line x1="142.4" y1="341.8" x2="160.4" y2="341.8" stroke="#1f2937" stroke-width="1.8"/>
<text x="151.4" y="297.9" text-anchor="middle" class="star">***</text>
<text x="151.4" y="542" text-anchor="middle" class="label">PAC</text>
<rect x="235.7" y="322.7" width="68.9" height="35.9" fill="#2ca02c" opacity="0.94" stroke="#1f2937"/>
<line x1="270.2" y1="290.6" x2="270.2" y2="354.9" stroke="#1f2937" stroke-width="1.8"/>
<line x1="261.2" y1="290.6" x2="279.2" y2="290.6" stroke="#1f2937" stroke-width="1.8"/>
<line x1="261.2" y1="354.9" x2="279.2" y2="354.9" stroke="#1f2937" stroke-width="1.8"/>
<text x="270.2" y="278.6" text-anchor="middle" class="star">*</text>
<text x="270.2" y="542" text-anchor="middle" class="label">IAC</text>
<rect x="354.5" y="333.3" width="68.9" height="25.4" fill="#d62728" opacity="0.94" stroke="#1f2937"/>
<line x1="389.0" y1="308.7" x2="389.0" y2="357.8" stroke="#1f2937" stroke-width="1.8"/>
<line x1="380.0" y1="308.7" x2="398.0" y2="308.7" stroke="#1f2937" stroke-width="1.8"/>
<line x1="380.0" y1="357.8" x2="398.0" y2="357.8" stroke="#1f2937" stroke-width="1.8"/>
<text x="389.0" y="296.7" text-anchor="middle" class="star">*</text>
<text x="389.0" y="542" text-anchor="middle" class="label">HC</text>
<rect x="473.3" y="238.1" width="68.9" height="120.5" fill="#ff7f0e" opacity="0.94" stroke="#1f2937"/>
<line x1="507.8" y1="160.4" x2="507.8" y2="315.8" stroke="#1f2937" stroke-width="1.8"/>
<line x1="498.8" y1="160.4" x2="516.8" y2="160.4" stroke="#1f2937" stroke-width="1.8"/>
<line x1="498.8" y1="315.8" x2="516.8" y2="315.8" stroke="#1f2937" stroke-width="1.8"/>
<text x="507.8" y="148.4" text-anchor="middle" class="star">**</text>
<text x="507.8" y="542" text-anchor="middle" class="label">DC</text>
<rect x="592.1" y="358.6" width="68.9" height="16.7" fill="#9467bd" opacity="0.94" stroke="#1f2937"/>
<line x1="626.6" y1="266.1" x2="626.6" y2="484.6" stroke="#1f2937" stroke-width="1.8"/>
<line x1="617.6" y1="266.1" x2="635.6" y2="266.1" stroke="#1f2937" stroke-width="1.8"/>
<line x1="617.6" y1="484.6" x2="635.6" y2="484.6" stroke="#1f2937" stroke-width="1.8"/>
<text x="626.6" y="254.1" text-anchor="middle" class="star">ns</text>
<text x="626.6" y="542" text-anchor="middle" class="label">EC</text>
<text x="1075.0" y="88" text-anchor="middle" class="panel">Mozart</text>
<rect x="778" y="112" width="594" height="398" fill="none" class="axis"/>
<text x="720" y="311.0" text-anchor="middle" transform="rotate(-90 720 311.0)" class="label">DeltaDelta zIC</text>
<line x1="778" y1="358.6" x2="1372" y2="358.6" stroke="#111" stroke-dasharray="7 5"/>
<rect x="802.9" y="270.8" width="68.9" height="87.8" fill="#1f77b4" opacity="0.94" stroke="#1f2937"/>
<line x1="837.4" y1="248.0" x2="837.4" y2="293.6" stroke="#1f2937" stroke-width="1.8"/>
<line x1="828.4" y1="248.0" x2="846.4" y2="248.0" stroke="#1f2937" stroke-width="1.8"/>
<line x1="828.4" y1="293.6" x2="846.4" y2="293.6" stroke="#1f2937" stroke-width="1.8"/>
<text x="837.4" y="236.0" text-anchor="middle" class="star">***</text>
<text x="837.4" y="542" text-anchor="middle" class="label">PAC</text>
<rect x="921.7" y="309.6" width="68.9" height="49.0" fill="#2ca02c" opacity="0.94" stroke="#1f2937"/>
<line x1="956.2" y1="265.4" x2="956.2" y2="353.9" stroke="#1f2937" stroke-width="1.8"/>
<line x1="947.2" y1="265.4" x2="965.2" y2="265.4" stroke="#1f2937" stroke-width="1.8"/>
<line x1="947.2" y1="353.9" x2="965.2" y2="353.9" stroke="#1f2937" stroke-width="1.8"/>
<text x="956.2" y="253.4" text-anchor="middle" class="star">*</text>
<text x="956.2" y="542" text-anchor="middle" class="label">IAC</text>
<rect x="1040.5" y="303.8" width="68.9" height="54.8" fill="#d62728" opacity="0.94" stroke="#1f2937"/>
<line x1="1075.0" y1="281.0" x2="1075.0" y2="326.7" stroke="#1f2937" stroke-width="1.8"/>
<line x1="1066.0" y1="281.0" x2="1084.0" y2="281.0" stroke="#1f2937" stroke-width="1.8"/>
<line x1="1066.0" y1="326.7" x2="1084.0" y2="326.7" stroke="#1f2937" stroke-width="1.8"/>
<text x="1075.0" y="269.0" text-anchor="middle" class="star">***</text>
<text x="1075.0" y="542" text-anchor="middle" class="label">HC</text>
<rect x="1159.3" y="263.4" width="68.9" height="95.3" fill="#ff7f0e" opacity="0.94" stroke="#1f2937"/>
<line x1="1193.8" y1="196.5" x2="1193.8" y2="330.3" stroke="#1f2937" stroke-width="1.8"/>
<line x1="1184.8" y1="196.5" x2="1202.8" y2="196.5" stroke="#1f2937" stroke-width="1.8"/>
<line x1="1184.8" y1="330.3" x2="1202.8" y2="330.3" stroke="#1f2937" stroke-width="1.8"/>
<text x="1193.8" y="184.5" text-anchor="middle" class="star">**</text>
<text x="1193.8" y="542" text-anchor="middle" class="label">DC</text>
<rect x="1278.1" y="348.8" width="68.9" height="9.9" fill="#9467bd" opacity="0.94" stroke="#1f2937"/>
<line x1="1312.6" y1="312.5" x2="1312.6" y2="385.1" stroke="#1f2937" stroke-width="1.8"/>
<line x1="1303.6" y1="312.5" x2="1321.6" y2="312.5" stroke="#1f2937" stroke-width="1.8"/>
<line x1="1303.6" y1="385.1" x2="1321.6" y2="385.1" stroke="#1f2937" stroke-width="1.8"/>
<text x="1312.6" y="300.5" text-anchor="middle" class="star">ns</text>
<text x="1312.6" y="542" text-anchor="middle" class="label">EC</text>
</svg>