<svg xmlns="http://www.w3.org/2000/svg" width="980" height="540" viewBox="0 0 980 540">
<style>text{font-family:Arial,Helvetica,sans-serif;fill:#111827}.title{font-size:22px;font-weight:700}.panel{font-size:20px;font-weight:700}.sub{font-size:14px;fill:#374151}.label{font-size:13px}.star{font-size:21px;font-weight:700}.axis{stroke:#6b7280;stroke-width:1.2}</style>
<rect width="100%" height="100%" fill="#fff"/>
<text x="24" y="34" class="title">Beethoven: boundary-aligned entropy</text>
<line x1="72" y1="468" x2="908" y2="468" class="axis"/>
<line x1="72" y1="72" x2="72" y2="468" class="axis"/>
<text x="490.0" y="518" text-anchor="middle" class="label">Relative melody event</text>
<text x="18" y="38" class="label">Entropy</text>
<line x1="490.0" y1="72" x2="490.0" y2="468" stroke="#777" stroke-dasharray="5 5"/>
<polyline fill="none" stroke="#1f77b4" stroke-width="2.2"  points="72.0,273.3 211.3,269.7 350.7,272.9 490.0,287.0 629.3,220.3 768.7,197.1 908.0,214.4"/>
<polyline fill="none" stroke="#1f77b4" stroke-width="2.2" stroke-dasharray="7 5" points="72.0,223.0 211.3,244.2 350.7,268.3 490.0,382.3 629.3,322.6 768.7,293.5 908.0,273.1"/>
<polyline fill="none" stroke="#2ca02c" stroke-width="2.2"  points="72.0,274.8 211.3,245.9 350.7,272.7 490.0,259.4 629.3,249.9 768.7,196.8 908.0,211.1"/>
<polyline fill="none" stroke="#2ca02c" stroke-width="2.2" stroke-dasharray="7 5" points="72.0,72.0 211.3,81.7 350.7,86.5 490.0,172.8 629.3,159.9 768.7,128.3 908.0,116.2"/>
<polyline fill="none" stroke="#d62728" stroke-width="2.2"  points="72.0,281.2 211.3,293.7 350.7,311.6 490.0,297.3 629.3,279.3 768.7,213.5 908.0,222.2"/>
<polyline fill="none" stroke="#d62728" stroke-width="2.2" stroke-dasharray="7 5" points="72.0,173.3 211.3,160.1 350.7,144.9 490.0,139.5 629.3,192.2 768.7,161.1 908.0,168.6"/>
<polyline fill="none" stroke="#ff7f0e" stroke-width="2.2"  points="72.0,263.4 211.3,197.9 350.7,468.0 490.0,291.0 629.3,203.6 768.7,300.9 908.0,255.0"/>
<polyline fill="none" stroke="#ff7f0e" stroke-width="2.2" stroke-dasharray="7 5" points="72.0,201.5 211.3,380.5 350.7,253.8 490.0,403.0 629.3,231.6 768.7,110.8 908.0,132.0"/>
<polyline fill="none" stroke="#9467bd" stroke-width="2.2"  points="72.0,292.5 211.3,267.6 350.7,334.9 490.0,323.3 629.3,250.5 768.7,200.1 908.0,228.8"/>
<polyline fill="none" stroke="#9467bd" stroke-width="2.2" stroke-dasharray="7 5" points="72.0,232.7 211.3,177.8 350.7,237.3 490.0,354.1 629.3,335.8 768.7,335.5 908.0,348.3"/>
<circle cx="810" cy="78" r="5" fill="#1f77b4"/>
<text x="824" y="83" class="label">PAC</text>
<circle cx="810" cy="100" r="5" fill="#2ca02c"/>
<text x="824" y="105" class="label">IAC</text>
<circle cx="810" cy="122" r="5" fill="#d62728"/>
<text x="824" y="127" class="label">HC</text>
<circle cx="810" cy="144" r="5" fill="#ff7f0e"/>
<text x="824" y="149" class="label">DC</text>
<circle cx="810" cy="166" r="5" fill="#9467bd"/>
<text x="824" y="171" class="label">EC</text>
</svg>