<svg xmlns="http://www.w3.org/2000/svg" width="1512" height="262" viewBox="0 0 1512 262">
  <rect width="100%" height="100%" fill="#fbfaf7"/>
  <style>
    text { font-family: Arial, Helvetica, sans-serif; fill: #1d252c; }
    .title { font-size: 22px; font-weight: 700; }
    .label { font-size: 13px; }
    .small { font-size: 11px; fill: #52606d; }
    .cell { font-size: 11px; fill: #1d252c; font-weight: 700; }
    .axis { stroke: #9aa5b1; stroke-width: 1; }
  </style>
<text class="title" x="55" y="36">RQ4 time-series parameter effect sizes</text>
<text class="small" x="55" y="56">Cells show Cohen&apos;s d for AI minus human. Purple = higher in AI, red = lower in AI.</text>
<text class="small" transform="translate(238 58) rotate(-35)">variance</text>
<text class="small" transform="translate(350 58) rotate(-35)">sd</text>
<text class="small" transform="translate(462 58) rotate(-35)">cv</text>
<text class="small" transform="translate(574 58) rotate(-35)">peak_rate</text>
<text class="small" transform="translate(686 58) rotate(-35)">peak_mass</text>
<text class="small" transform="translate(798 58) rotate(-35)">mean_abs_diff</text>
<text class="small" transform="translate(910 58) rotate(-35)">smoothness</text>
<text class="small" transform="translate(1022 58) rotate(-35)">lag1_autocorr</text>
<text class="small" transform="translate(1134 58) rotate(-35)">lag4_autocorr</text>
<text class="small" transform="translate(1246 58) rotate(-35)">max_autocorr_lag2_16</text>
<text class="small" transform="translate(1358 58) rotate(-35)">surprisal_entropy</text>
<text class="label" x="55" y="92">cocochorales</text>
<rect x="230" y="70" width="109" height="31" fill="rgb(217,205,226)" stroke="#ffffff"/>
<text class="cell" x="272.0" y="91">1.1</text>
<rect x="342" y="70" width="109" height="31" fill="rgb(217,206,226)" stroke="#ffffff"/>
<text class="cell" x="384.0" y="91">1.1</text>
<rect x="454" y="70" width="109" height="31" fill="rgb(226,186,183)" stroke="#ffffff"/>
<text class="cell" x="496.0" y="91">-1.6</text>
<rect x="566" y="70" width="109" height="31" fill="rgb(210,195,222)" stroke="#ffffff"/>
<text class="cell" x="608.0" y="91">1.4</text>
<rect x="678" y="70" width="109" height="31" fill="rgb(200,182,217)" stroke="#ffffff"/>
<text class="cell" x="720.0" y="91">1.7</text>
<rect x="790" y="70" width="109" height="31" fill="rgb(227,219,231)" stroke="#ffffff"/>
<text class="cell" x="832.0" y="91">0.7</text>
<rect x="902" y="70" width="109" height="31" fill="rgb(240,224,219)" stroke="#ffffff"/>
<text class="cell" x="944.0" y="91">-0.6</text>
<rect x="1014" y="70" width="109" height="31" fill="rgb(241,237,238)" stroke="#ffffff"/>
<text class="cell" x="1056.0" y="91">0.2</text>
<rect x="1126" y="70" width="109" height="31" fill="rgb(245,239,234)" stroke="#ffffff"/>
<text class="cell" x="1168.0" y="91">-0.2</text>
<rect x="1238" y="70" width="109" height="31" fill="rgb(230,222,232)" stroke="#ffffff"/>
<text class="cell" x="1280.0" y="91">0.6</text>
<rect x="1350" y="70" width="109" height="31" fill="rgb(229,194,191)" stroke="#ffffff"/>
<text class="cell" x="1392.0" y="91">-1.4</text>
<text class="label" x="55" y="126">js_fake</text>
<rect x="230" y="104" width="109" height="31" fill="rgb(202,185,218)" stroke="#ffffff"/>
<text class="cell" x="272.0" y="125">1.7</text>
<rect x="342" y="104" width="109" height="31" fill="rgb(197,179,216)" stroke="#ffffff"/>
<text class="cell" x="384.0" y="125">1.8</text>
<rect x="454" y="104" width="109" height="31" fill="rgb(231,199,195)" stroke="#ffffff"/>
<text class="cell" x="496.0" y="125">-1.2</text>
<rect x="566" y="104" width="109" height="31" fill="rgb(122,79,179)" stroke="#ffffff"/>
<text class="cell" x="608.0" y="125">4.5</text>
<rect x="678" y="104" width="109" height="31" fill="rgb(134,95,185)" stroke="#ffffff"/>
<text class="cell" x="720.0" y="125">4.1</text>
<rect x="790" y="104" width="109" height="31" fill="rgb(180,155,207)" stroke="#ffffff"/>
<text class="cell" x="832.0" y="125">2.4</text>
<rect x="902" y="104" width="109" height="31" fill="rgb(209,142,140)" stroke="#ffffff"/>
<text class="cell" x="944.0" y="125">-2.7</text>
<rect x="1014" y="104" width="109" height="31" fill="rgb(227,189,185)" stroke="#ffffff"/>
<text class="cell" x="1056.0" y="125">-1.5</text>
<rect x="1126" y="104" width="109" height="31" fill="rgb(223,213,229)" stroke="#ffffff"/>
<text class="cell" x="1168.0" y="125">0.9</text>
<rect x="1238" y="104" width="109" height="31" fill="rgb(239,222,218)" stroke="#ffffff"/>
<text class="cell" x="1280.0" y="125">-0.6</text>
<rect x="1350" y="104" width="109" height="31" fill="rgb(216,203,225)" stroke="#ffffff"/>
<text class="cell" x="1392.0" y="125">1.1</text>
<text class="label" x="55" y="160">music_transformer</text>
<rect x="230" y="138" width="109" height="31" fill="rgb(247,245,240)" stroke="#ffffff"/>
<text class="cell" x="272.0" y="159">-0.0</text>
<rect x="342" y="138" width="109" height="31" fill="rgb(242,231,227)" stroke="#ffffff"/>
<text class="cell" x="384.0" y="159">-0.4</text>
<rect x="454" y="138" width="109" height="31" fill="rgb(231,199,196)" stroke="#ffffff"/>
<text class="cell" x="496.0" y="159">-1.2</text>
<rect x="566" y="138" width="109" height="31" fill="rgb(184,162,210)" stroke="#ffffff"/>
<text class="cell" x="608.0" y="159">2.3</text>
<rect x="678" y="138" width="109" height="31" fill="rgb(186,164,211)" stroke="#ffffff"/>
<text class="cell" x="720.0" y="159">2.2</text>
<rect x="790" y="138" width="109" height="31" fill="rgb(225,185,182)" stroke="#ffffff"/>
<text class="cell" x="832.0" y="159">-1.6</text>
<rect x="902" y="138" width="109" height="31" fill="rgb(200,182,217)" stroke="#ffffff"/>
<text class="cell" x="944.0" y="159">1.7</text>
<rect x="1014" y="138" width="109" height="31" fill="rgb(240,235,237)" stroke="#ffffff"/>
<text class="cell" x="1056.0" y="159">0.3</text>
<rect x="1126" y="138" width="109" height="31" fill="rgb(246,242,237)" stroke="#ffffff"/>
<text class="cell" x="1168.0" y="159">-0.1</text>
<rect x="1238" y="138" width="109" height="31" fill="rgb(220,209,227)" stroke="#ffffff"/>
<text class="cell" x="1280.0" y="159">1.0</text>
<rect x="1350" y="138" width="109" height="31" fill="rgb(242,229,225)" stroke="#ffffff"/>
<text class="cell" x="1392.0" y="159">-0.4</text>
</svg>
